<svg width="960" height="960" viewBox="0 0 960 960" fill="none" xmlns="http://www.w3.org/2000/svg">
<g clip-path="url(#clip0_179_2728)">
<path d="M0 0H960V960H0V0Z" fill="#F9EBD8"/>
<path d="M184.899 780.363C175.772 775.915 167.01 771.389 158.714 765.47C145.105 755.761 132.626 744.73 121.957 731.835C88.2111 691.05 71.6417 632.962 57.8716 582.679C51.1923 558.29 43.658 534.36 39.5347 509.322C37.7246 498.331 36.5618 487.517 37.1957 476.352C38.0943 460.522 47.0302 428.824 56.2101 416.016L56.2239 416.607C56.3208 423.801 55.2149 431.145 54.7437 438.334C54.1528 447.351 54.1446 456.48 54.2511 465.512C54.872 518.174 67.3047 572.176 98.4113 615.426C108.901 630.009 121.596 642.831 132.681 656.95C146.577 674.652 155.314 696.309 171.422 712.254C173.757 714.566 176.268 716.657 178.749 718.805C180.877 720.648 187.938 722.891 189.078 724.526C187.8 743.147 186.407 761.759 184.899 780.363Z" fill="#D8AE56"/>
<path d="M583.207 509.626C583.204 508.968 583.308 506.428 582.773 506.036C581.368 505.012 574.222 503.262 572.038 502.493C541.268 491.643 505.559 456.546 488.523 429.281C475.29 408.102 470.081 382.226 475.761 357.745C485.646 315.138 525.596 300.381 561.256 284.281C573.641 278.69 586.145 272.548 597.651 265.296C602.059 262.517 613.314 256.841 614.44 251.431C614.47 251.287 614.494 251.14 614.52 250.996C613.4 275.343 610.723 308.012 591.623 325.598C589.463 327.587 587.16 329.415 584.858 331.238C587.928 338.158 597.152 361.081 597.662 368.092C598.129 374.497 595.343 384.794 594.228 391.454C592.322 402.826 590.596 414.346 589.32 425.81C587.115 445.627 585.8 465.608 584.528 485.501C584.143 491.519 584.313 504.653 583.207 509.626Z" fill="#909D7A"/>
<path d="M325.492 155.687C327.75 144.363 346.612 127.239 355.998 120.916C377.477 106.446 405.538 98.2242 431.322 103.383C450.473 107.216 468.07 117.422 478.972 133.854C493.435 155.654 493.623 181.796 488.509 206.62C482.296 236.778 469.385 265.656 458.081 294.18C450.043 314.461 441.894 334.733 434.903 355.404C432.786 361.665 431.184 368.076 429.175 374.37C426.394 383.08 420.359 397.213 419.877 405.825C418.586 403.092 417.696 384.861 417.207 380.07C414.974 358.147 412.403 336.328 410.896 314.331L407.773 263.005C407.041 249.145 407.352 221.248 403.042 209.622C402.574 208.327 402.036 207.063 401.427 205.828C400.818 204.593 400.143 203.395 399.401 202.236C398.659 201.077 397.856 199.962 396.99 198.892C396.124 197.822 395.201 196.803 394.222 195.836C387.147 188.899 377.966 185.311 370.34 179.242C362.741 173.195 345.612 154.164 338.149 151.105C334.369 149.556 329.435 153.913 326.018 155.455L325.492 155.687Z" fill="#D5E7C3"/>
<path d="M56.2726 415.702C60.2942 393.934 64.0651 372.414 69.7465 350.984C74.2335 334.058 80.1506 317.675 86.2359 301.279C98.3438 268.656 111.647 236.707 129.631 206.82C148.002 176.29 184.456 125.698 220.545 117.019C231.71 114.334 243.446 114.995 253.328 121.179C268.163 130.46 271.716 144.263 275.359 160.453C269.897 158.966 264.578 157.561 259.427 155.158C249.368 161.391 242.168 171.383 232.763 178.459C222.969 185.827 208.371 190.271 200.374 199.595C196.491 204.123 195.143 210.974 193.809 216.643C185.476 252.08 181.568 288.544 178.919 324.784C178.1 335.986 176.686 347.485 176.687 358.696C174.518 359.885 163.449 358.315 160.474 358.223C155.219 358.06 149.639 358.716 144.413 359.339C118.036 362.48 93.8175 372.798 75.0969 392.049C70.2778 397.005 65.6116 402.377 61.5177 407.942C59.6909 410.425 58.1885 413.338 56.2726 415.702Z" fill="#BAC7A8"/>
<path d="M726.04 157.473C733.478 154.334 740.564 150.393 748.062 147.429C768.274 139.441 791.572 136.775 812.113 145.134C833.872 153.99 848.459 174.358 857.189 195.465C872.118 231.558 866.645 279.172 865.008 317.574C864.57 330.372 864.21 343.171 863.93 355.973C863.463 374.914 863.066 394.015 864.803 412.911C867.284 439.884 874.527 463.926 885.71 488.547C890.889 499.947 896.652 511.107 901.612 522.602C916.744 557.667 925.531 593.043 924.675 631.404C924.187 653.254 920.874 675.647 912.331 695.896C902.82 718.439 888.982 734.379 866.117 743.646C841.142 753.769 814.624 751.107 788.878 746.036C788.623 729.389 788.78 712.746 789.35 696.108C790.056 679.476 791.528 662.803 791.487 646.157C791.444 628.742 788.113 611.499 788.279 594.089C788.528 568.042 790.965 542.12 790.125 516.04C789.453 495.171 787.229 474.386 785.664 453.577C784.463 437.607 783.973 421.561 782.988 405.571C782.531 398.188 781.99 390.812 781.366 383.441C780.981 378.664 780.282 373.617 780.549 368.827C780.956 361.535 783.994 353.594 785.814 346.51C787.382 340.414 788.495 334.218 790.197 328.157C786.221 325.69 782.612 323.279 779.354 319.877C763.059 302.86 756.937 270.082 755.404 246.967C754.855 238.697 755.121 230.357 755.277 222.078C771.01 222.25 786.743 222.295 802.476 222.213C805.568 223.979 810.392 227.781 813.887 228.123C815.182 228.249 816.326 227.792 817.245 226.885C819.458 224.7 820.848 219.817 820.765 216.742C819.078 212.067 767.534 189.16 760.002 184.155L759.702 182.045C757.859 179.825 753.526 178.462 750.937 177.244C743.793 173.883 733.165 162.765 726.04 157.473Z" fill="#D8AE56"/>
<path d="M687.711 138.542C686.96 125.229 693.575 125.319 696.154 116.057C696.725 114.007 696.699 111.638 695.55 109.784C694.195 107.597 691.196 106.167 688.78 105.584C682.314 104.025 679.299 108.659 674.354 111.411C673.403 111.941 673.887 111.863 672.793 111.558C672.6 110.576 672.585 110.384 673.135 109.476C674.545 107.157 680.214 103.037 683.005 102.569C687.212 101.864 691.743 102.777 695.057 105.535C708.021 116.32 688.776 126.677 690.055 134.716C690.138 135.234 690.484 136.634 690.991 136.95C691.885 137.507 697.723 137.863 699.631 138.518C708.328 141.502 718.054 151.992 726.04 157.474C733.165 162.765 743.793 173.884 750.938 177.245C753.526 178.462 757.859 179.825 759.702 182.045L760.002 184.155C767.534 189.16 819.078 212.067 820.765 216.742C820.848 219.817 819.459 224.7 817.245 226.885C816.326 227.792 815.183 228.249 813.887 228.123C810.392 227.781 805.569 223.979 802.477 222.214C786.744 222.295 771.01 222.25 755.277 222.078C755.122 230.357 754.855 238.697 755.404 246.967C756.938 270.082 763.059 302.86 779.354 319.877C782.612 323.279 786.221 325.69 790.197 328.157C788.496 334.218 787.382 340.415 785.815 346.51C783.994 353.594 780.956 361.535 780.549 368.827C780.282 373.617 780.982 378.665 781.366 383.441C781.99 390.812 782.531 398.188 782.988 405.571C783.973 421.561 784.464 437.607 785.665 453.577C787.229 474.386 789.453 495.171 790.125 516.04C790.965 542.121 788.529 568.042 788.279 594.089C788.113 611.499 791.444 628.742 791.487 646.157C791.529 662.803 790.057 679.477 789.351 696.108C788.781 712.747 788.623 729.389 788.878 746.036C789.014 760.19 787.518 814.662 781.195 824.153C776.421 831.321 763.487 835.527 755.482 837.108C734.816 841.189 720.913 836.733 703.918 825.432C703.953 819.423 702.962 813.318 702.468 807.326C701.866 800.009 701.631 792.655 701.347 785.319C700.481 763.043 701.076 740.949 701.352 718.675C701.345 717.674 701.438 716.365 701.065 715.427C700.206 713.258 687.569 707.719 684.894 706.738C684.277 708.091 684.213 709.861 684.009 711.343C683.431 738.197 682.175 765.019 680.241 791.81C679.528 803.161 677.575 814.902 677.965 826.239C667.778 834.635 653.631 839.644 640.408 839.033C624.478 838.298 605.784 830.226 595.032 818.324C593.809 803.938 593.038 789.544 591.909 775.154C591.175 765.809 590.041 756.479 589.523 747.12C588.793 733.938 588.676 720.719 587.889 707.54C586.9 690.989 584.887 674.565 584.264 657.981C583.624 640.918 583.972 623.794 583.585 606.717C583.283 593.373 582.048 580.067 581.791 566.718C581.424 547.633 582.237 528.676 583.207 509.625C584.313 504.651 584.143 491.518 584.528 485.5C585.8 465.606 587.115 445.626 589.32 425.809C590.596 414.345 592.322 402.825 594.228 391.453C595.344 384.793 598.129 374.495 597.662 368.09C597.152 361.08 587.928 338.157 584.859 331.236C587.16 329.414 589.463 327.586 591.623 325.596C610.723 308.011 613.4 275.342 614.52 250.995C614.416 247.646 613.91 243.628 614.609 240.368C615.31 237.109 616.744 235.888 619.491 234.168C618.773 230.782 618.024 227.403 617.244 224.031C607.833 223.454 598.32 223.703 588.891 223.782C583.663 223.826 578.027 224.293 572.874 223.357C570.559 222.936 568.832 222.051 566.924 220.714C561.399 223.594 555.651 226.027 549.941 228.512C548.004 224.621 547.199 220.28 548.575 216.055C553.201 201.85 593.092 193.383 606.285 186.99C607.135 185.581 606.344 184.741 606.795 183.18C612.695 180.091 619.483 178.203 625.668 175.665C626.392 177.005 626.94 178.523 627.556 179.922C636.182 173.166 645.717 167.255 654.75 161.046C665.734 153.496 676.408 145.63 687.711 138.542Z" fill="#161513"/>
<path d="M741.427 235.806L742.072 235.531C741.498 237.199 741.032 238.155 739.787 239.418C739.028 239.971 738.228 240.694 737.362 241.05C736.465 240.067 735.471 239.256 735.36 237.86C736.624 236.426 739.554 236.212 741.427 235.806Z" fill="#D5E7C3"/>
<path d="M626.7 244.796C627.93 243.574 629.277 242.518 630.629 241.437L631.469 243.64C630.571 245.622 629.93 247.645 630.708 249.792C631.228 251.231 632.294 252.32 633.414 253.311L632.84 254.445C629.984 252.57 628.311 247.792 626.7 244.796Z" fill="#C8D2B3"/>
<path d="M741.427 235.808C740.39 234.731 740.154 234.462 738.742 234.028C734.545 234.968 731.754 237.228 728.024 239.047C728.343 237.584 730.179 234.519 731.509 233.756C733.862 232.405 737.447 232.017 740.018 232.914C741.231 233.337 741.594 233.933 742.204 235.001L742.072 235.533L741.427 235.808Z" fill="#E1E9CB"/>
<path d="M637.244 367.057L646.08 366.977C641.842 369.735 639.208 372.513 636.121 376.515C636.29 373.385 636.871 370.174 637.244 367.057Z" fill="#BAC7A8"/>
<path d="M752.09 216.44C752.669 221.92 752.042 228.333 751.612 233.859C750.593 234.699 749.82 234.448 748.541 234.473C747.176 231.24 751.169 220.025 752.09 216.44Z" fill="#D8AE56"/>
<path d="M736.036 244.08C735.255 246.128 735.188 247.992 735.387 250.156C735.407 250.362 735.43 250.568 735.451 250.773L734.819 250.705C733.109 249.356 731.972 248.318 731.314 246.194C730.717 244.268 730.066 242.051 731.252 240.23C731.854 239.305 732.541 239.035 733.563 238.853C734.509 239.767 734.385 239.948 734.53 241.28L735.913 243.748L736.036 244.08Z" fill="#D5E7C3"/>
<path d="M739.787 239.418C741.089 238.738 741.444 238.359 742.931 238.551C743.803 239.791 743.955 240.814 743.708 242.323C743.293 244.855 741.825 248.027 739.65 249.498C738.967 249.959 738.55 249.847 737.764 249.879C736.78 249.192 736.526 248.806 736.116 247.682L736.229 246.749C736.339 245.78 736.257 245.035 736.036 244.079L735.913 243.747C737.807 243.809 740.029 243.925 741.715 242.985C742.241 241.492 740.189 240.896 739.787 239.418Z" fill="#C8D2B3"/>
<path d="M638.018 213.616C642.025 213.396 646.062 213.385 650.076 213.285C649.345 215.667 647.858 217.671 646.674 219.842L639.79 219.827L638.018 213.616Z" fill="#F9EBD8"/>
<path d="M780.487 425.3C779.509 420.405 779.638 415.108 779.329 410.127C778.734 400.569 778.08 390.955 777.066 381.432C776.804 378.977 774.471 369.312 774.752 367.702C774.795 367.455 774.972 367.249 775.082 367.022C776.153 366.998 776.425 366.868 777.399 367.39C778.486 371.708 778.024 377.076 778.344 381.571C779.258 394.453 781.575 412.83 780.865 425.212L780.487 425.3Z" fill="#C8D2B3"/>
<path d="M630.629 241.439C633.087 239.475 636.057 237.346 639.434 237.939C640.792 238.177 641.587 238.614 642.411 239.732C643.857 241.701 643.538 245.3 643.017 247.517C642.403 250.134 640.93 253.029 638.478 254.36C637.174 255.068 635.437 255.35 633.99 254.939C633.387 254.767 633.329 254.708 632.84 254.447L633.414 253.313C634.839 253.357 636.243 253.334 637.52 252.608C639.161 251.675 640.281 250.048 640.738 248.234C641.197 246.418 641.025 244.178 639.843 242.653C639.753 242.538 639.658 242.428 639.558 242.323C639.457 242.218 639.35 242.12 639.239 242.027C639.127 241.933 639.011 241.846 638.89 241.765C638.769 241.684 638.644 241.611 638.515 241.544C638.386 241.476 638.253 241.416 638.118 241.364C637.983 241.311 637.845 241.265 637.704 241.227C637.564 241.189 637.422 241.158 637.278 241.136C637.134 241.113 636.99 241.098 636.845 241.091C634.628 240.967 633.088 242.351 631.469 243.642L630.629 241.439Z" fill="#BAC7A8"/>
<path d="M631.469 243.642C633.088 242.351 634.627 240.967 636.845 241.091C636.99 241.098 637.134 241.113 637.278 241.136C637.422 241.158 637.564 241.189 637.704 241.227C637.845 241.265 637.983 241.31 638.118 241.364C638.253 241.416 638.386 241.476 638.515 241.544C638.644 241.61 638.769 241.684 638.89 241.765C639.011 241.846 639.127 241.933 639.239 242.026C639.35 242.12 639.457 242.218 639.558 242.323C639.658 242.428 639.753 242.538 639.843 242.653C641.025 244.178 641.197 246.418 640.738 248.234C640.281 250.048 639.161 251.675 637.52 252.608C636.243 253.334 634.839 253.357 633.414 253.313C632.294 252.322 631.228 251.233 630.708 249.795C629.93 247.647 630.571 245.624 631.469 243.642Z" fill="#161513"/>
<path d="M636.242 243.144C637.086 243.505 637.821 243.772 638.422 244.509C638.507 244.614 638.585 244.724 638.658 244.839C638.73 244.953 638.796 245.071 638.856 245.193C638.916 245.315 638.968 245.439 639.014 245.567C639.06 245.694 639.098 245.824 639.129 245.956C639.161 246.088 639.185 246.221 639.201 246.355C639.218 246.49 639.228 246.625 639.23 246.76C639.232 246.895 639.227 247.03 639.214 247.165C639.201 247.3 639.18 247.434 639.153 247.567C638.713 249.673 637.236 251.005 635.623 252.269C634.837 251.722 633.951 251.153 633.374 250.375C632.602 249.337 632.18 247.957 632.522 246.68C633.051 244.701 634.566 243.996 636.242 243.144Z" fill="#C8D2B3"/>
<path d="M595.559 341.116C595.977 341.501 596.027 341.51 596.394 342.062C598.622 345.405 604.402 361.765 603.712 365.327L602.189 366.325C601.768 366.117 601.732 366.111 601.296 365.832C599.215 364.507 593.796 346.978 593.091 343.752C593.497 342.471 594.538 341.954 595.559 341.116Z" fill="#BAC7A8"/>
<path d="M780.768 339.572C781.766 340.052 782.598 340.757 783.468 341.433C784.511 344.024 779.188 360.353 778.258 364.482C776.921 364.308 775.421 364.349 774.417 363.355C773.58 356.862 778.012 345.508 780.768 339.572Z" fill="#D8AE56"/>
<path d="M756.65 198.776C763.582 202.008 770.139 205.867 777.236 208.764L777.288 209.279C770.033 209.219 762.781 209.045 755.531 208.76C755.813 205.41 756.135 202.098 756.65 198.776Z" fill="#D8AE56"/>
<path d="M609.817 201.051C610.403 201.05 610.006 201.023 610.977 201.333C612.249 203.981 612.81 207.155 613.528 210.006C607.183 210.085 600.838 210.127 594.492 210.13C593.1 210.138 591.209 210.381 589.957 209.818L609.817 201.051Z" fill="#F9EBD8"/>
<path d="M601.017 368.24C601.845 368.336 602.65 368.48 603.471 368.628L603.761 369.335C602.262 380.467 600.137 391.522 598.476 402.633C597.64 408.226 596.856 421.989 594.907 426.395C593.869 426.454 592.993 426.76 592.144 426.118L592.669 425.166L592.161 425.422C593.784 406.395 597.62 387.044 601.017 368.24Z" fill="#BAC7A8"/>
<path d="M755.52 212.337C771.732 212.129 782.332 209.814 796.66 219.092C784.041 220.137 768.255 219.869 755.516 219.037L755.52 212.337Z" fill="#C8D2B3"/>
<path d="M758.519 283.943C758.671 284.504 758.826 285.064 758.983 285.623C763.54 301.777 771.262 320.863 786.69 329.473C786.241 332.144 785.605 334.764 784.98 337.399L784.386 338.223C782.51 337.867 780.545 335.592 779.205 334.247C768.187 323.184 758.566 299.675 758.519 283.943Z" fill="#D8AE56"/>
<path d="M586.699 212.998C595.838 212.75 605.041 212.945 614.188 212.896L616.089 220.836L601.055 220.939C594.395 221.028 579.098 222.143 573.295 220.515C572.294 220.234 572.147 220.232 571.603 219.313C571.838 218.81 571.821 218.763 572.268 218.295C574.498 215.957 583.494 213.197 586.699 212.998Z" fill="#F9EBD8"/>
<path d="M781.08 817.542C780.357 819.236 779.541 820.897 778.763 822.567C773.077 829.105 764.258 832.329 755.994 834.104C737.938 837.98 722.345 834.025 707.088 824.072L706.299 818.209C709.808 819.764 712.723 822.41 716.086 824.217C722.064 827.429 730.8 829.04 737.54 829.693C752.556 831.146 769.348 827.242 781.08 817.542Z" fill="#F9EBD8"/>
<path d="M721.281 157.58C728.062 162.743 734.734 168.044 741.296 173.482C740.475 176.999 739.765 180.601 738.698 184.049C727.6 179.169 716.728 173.71 705.803 168.451C711.261 165.607 716.238 161.13 721.281 157.58Z" fill="#D8AE56"/>
<path d="M780.035 744.398C782.036 744.769 784.06 745.233 786.082 745.455C786.237 768.242 785.334 791.007 781.245 813.472C779.785 815.175 778.207 816.503 776.462 817.89C776.805 793.394 779.908 768.939 780.035 744.398Z" fill="#F9EBD8"/>
<path d="M590.74 441.285L597.246 439.608C595.574 462.212 593.728 485.136 593.483 507.798C591.04 507.627 588.57 507.118 586.149 506.744C587.608 485.006 588.102 462.902 590.74 441.285Z" fill="#BAC7A8"/>
<path d="M597.113 811.607C608.197 819.207 618.19 825.971 631.586 829.015C647.743 832.686 661.703 828.135 675.345 819.451C675.367 821.449 675.144 823.4 674.937 825.383C666.597 831.236 655.058 835.864 644.778 836.251C627.661 836.895 609.809 828.582 597.465 817.091L597.113 811.607Z" fill="#F9EBD8"/>
<path d="M742.768 365.562L749.29 365.545C749.662 369.338 750.331 373.169 751.07 376.91C754.89 396.267 760.112 413.254 777.202 424.698C777.408 428.385 777.577 432.074 777.708 435.765C776.525 435.185 775.393 434.557 774.33 433.775C753.343 418.351 746.351 389.879 742.768 365.562Z" fill="#D8AE56"/>
<path d="M759.66 187.573C766.906 190.73 773.992 194.636 781.043 198.221C793.604 204.496 806.053 210.987 818.39 217.693C817.505 220.045 816.511 222.103 815.25 224.277C814.665 224.724 814.912 224.628 814.245 224.806C813.319 225.055 811.524 223.852 810.668 223.359C799.74 217.05 788.63 211.374 777.373 205.685C770.828 202.376 763.999 199.277 757.738 195.461L759.66 187.573Z" fill="#D8AE56"/>
<path d="M650.076 213.286C669.306 212.632 688.522 212.511 707.756 212.228C715.711 212.11 723.774 211.282 731.715 211.49C731.192 213.66 730.698 215.84 730.126 217.997C702.379 219.07 674.438 219.94 646.674 219.843C647.858 217.671 649.345 215.668 650.076 213.286Z" fill="#C8D2B3"/>
<path d="M696.747 365.609L705.952 365.468L706.747 400.707C706.879 408.288 705.316 414.04 699.941 419.592L694.144 424.496C694.211 416.569 694.873 408.582 695.283 400.662C695.878 388.982 696.366 377.298 696.747 365.609Z" fill="#D5E7C3"/>
<path d="M633.862 367.248C634.19 367.468 634.209 367.403 634.324 367.811C634.765 369.38 633.763 372.544 633.438 374.146C630.763 387.32 626.754 400.506 620.834 412.6C614.302 425.939 606.046 433.451 591.842 438.269L591.687 438.215C590.613 436.827 591.535 431.935 591.682 430.048C595.643 429.131 599.167 427.605 602.486 425.264C619.133 413.527 623.372 386.231 626.535 367.528L633.862 367.248Z" fill="#909D7A"/>
<path d="M607.077 189.847C608.026 189.805 607.54 189.701 608.489 190.323C609.554 192.613 609.762 195.178 610.141 197.657C605.789 199.42 601.628 201.634 597.355 203.579C582.496 210.344 567.837 217.629 552.81 223.999C551.675 224.318 552.241 224.327 551.113 223.972C550.835 223.583 550.731 223.502 550.602 222.969C550.037 220.644 551.27 217.447 552.31 215.41C553.068 213.925 553.995 212.254 555.323 211.198C564.383 203.997 594.684 194.081 607.077 189.847Z" fill="#F9EBD8"/>
<path d="M618.966 236.86L619.861 237.411C622.97 245.971 622.501 265.961 621.712 275.49C619.641 300.489 611.573 323.779 592.068 340.395L588.305 332.372C611.225 313.855 616.413 282.24 617.191 254.293C617.333 249.18 615.873 241.136 618.966 236.86Z" fill="#909D7A"/>
<path d="M618.939 367.764C620.532 367.642 622.002 367.546 623.591 367.738C623.652 368.391 623.677 368.443 623.625 369.207C623.39 372.563 622.297 376.286 621.63 379.604C618.569 394.813 613.711 412.368 601.401 422.766C600.465 423.38 599.766 423.866 598.664 424.14C598.373 418.502 600.157 411.622 601.014 405.985C602.989 393.36 604.892 380.723 606.725 368.077C610.797 367.997 614.868 367.892 618.939 367.764Z" fill="#909D7A"/>
<path d="M743.893 177.256C748.424 178.642 752.737 181.632 756.763 184.103C754.601 194.503 751.889 204.741 749.414 215.064C748.076 220.646 747.155 227.012 745.066 232.325L742.446 230.566C742.351 230.516 742.259 230.457 742.159 230.417C737.761 228.677 734.273 229.462 730.051 231.082C731.891 225.01 733.169 218.663 734.705 212.496C737.607 200.708 740.67 188.961 743.893 177.256Z" fill="#D8AE56"/>
<path d="M751.954 365.54C758.513 365.631 765.115 366.019 771.659 366.457C775.172 384.475 776.294 403.142 777.105 421.447C776.544 421.076 776.004 420.704 775.465 420.302C759.545 408.421 754.612 384.308 751.954 365.54Z" fill="#D8AE56"/>
<path d="M704.455 716.227C706.973 717.249 709.492 718.393 712.102 719.16C713.047 735.913 712.224 752.904 712.355 769.691C712.484 786.247 713.547 802.773 713.682 819.313C710.955 817.841 708.323 816.187 705.673 814.581C703.378 781.748 703.512 749.102 704.455 716.227Z" fill="#F9EBD8"/>
<path d="M674.964 700.524C676.927 701.845 678.835 703.357 681.13 704.013C681.563 714.263 680.808 724.734 680.458 734.993C679.533 762.182 677.519 789.176 675.398 816.284C672.118 818.112 668.795 819.857 665.427 821.519C666.515 798.742 670.816 776.454 672.966 753.827C674.639 736.214 674.378 718.212 674.964 700.524Z" fill="#F9EBD8"/>
<path d="M685.864 505.108C687.029 514.833 686.054 524.363 685.455 534.099C684.849 543.999 684.355 553.906 683.975 563.817C683.138 586.193 683.191 608.566 682.544 630.942C681.843 655.189 680.425 679.768 681.13 704.014C678.835 703.358 676.927 701.847 674.964 700.526C675.138 674.971 676.511 649.452 677.439 623.921C678.167 603.899 678.174 583.814 679.435 563.82C680.664 544.33 683.218 524.464 685.864 505.108Z" fill="#D8AE56"/>
<path d="M623.253 179.986L624.27 180.093C626.794 184.539 628.195 190.062 629.729 194.925C633.272 206.159 636.265 217.554 639.879 228.768C639.053 229.353 638.236 229.933 637.542 230.676C635.143 233.247 631.69 235.079 629.535 237.734C628.673 238.793 627.74 239.759 626.797 240.747C626.122 241.395 625.633 241.786 624.765 242.145C622.813 238.475 620.161 224.859 619.023 220.167C616.165 208.378 613.064 196.653 610.273 184.848C614.534 182.989 618.855 181.476 623.253 179.986Z" fill="#F9EBD8"/>
<path d="M693.18 533.564C707.528 565.154 704.14 597.489 706.438 630.985C707.329 643.978 709.642 656.848 710.641 669.838C711.899 686.212 711.675 702.742 712.101 719.157C709.491 718.39 706.973 717.246 704.455 716.223C704.12 673.248 702.341 630.332 699.118 587.476C697.753 569.738 697.119 550.93 693.18 533.564Z" fill="#D8AE56"/>
<path d="M632.45 194.253C638.687 190.677 645.588 188.14 652.023 184.921C663.131 179.364 674.071 172.907 685.822 168.771C694.372 165.762 696.832 167.505 704.611 171.234C698.15 177.137 690.47 181.919 683.459 187.147C674.422 193.887 665.542 201.602 657.35 209.339C656.535 210.109 656.098 210.183 655.036 210.4C649.146 210.441 643.261 210.792 637.365 210.824C635.631 205.339 634.13 199.759 632.45 194.253Z" fill="#F9EBD8"/>
<path d="M780.487 425.301L780.865 425.213C782.039 437.834 782.454 450.529 783.472 463.167C785.239 485.135 787.463 507.177 787.508 529.233C787.552 551.141 784.933 573.031 785.124 594.911C785.281 612.959 788.612 630.798 788.439 648.882C788.29 664.471 787.013 680.023 786.428 695.596C785.892 712.213 785.777 728.832 786.082 745.454C784.06 745.232 782.036 744.768 780.035 744.398C779.82 727.06 779.953 709.724 780.436 692.392C780.83 678.757 781.644 665.144 781.886 651.5C782.248 631.115 781.581 610.722 782.01 590.332C782.461 568.922 784.056 547.566 783.631 526.141C783.336 511.264 782.127 496.44 781.507 481.579C781.07 471.055 781.18 460.521 780.84 449.998C780.676 444.901 779.24 430.516 779.925 426.565C780.03 425.96 780.198 425.766 780.487 425.301Z" fill="#D8AE56"/>
<path d="M717.337 221.514C721.283 221.227 725.267 221.27 729.222 221.218C727.598 226.273 726.402 231.427 725.635 236.681C703.792 240.191 674.85 239.57 652.441 239.313L645.377 239.058C644.051 233.616 642.436 228.298 640.747 222.96C649.778 222.352 659.001 222.549 668.058 222.438C684.488 222.361 700.915 222.053 717.337 221.514Z" fill="#909D7A"/>
<path d="M690.956 139.983C703.912 140.639 711.977 149.647 721.281 157.582C716.238 161.132 711.261 165.609 705.803 168.453C703.13 167.347 700.407 166.103 697.654 165.219C694.907 164.336 692.404 164.08 689.572 164.704C676.582 167.568 662.46 176.517 650.379 182.407C644.138 185.451 637.641 187.988 631.497 191.213C630.514 188.337 629.559 185.451 628.631 182.556C641.327 173.979 654.023 165.211 666.525 156.355C674.087 150.998 682.401 143.498 690.956 139.983Z" fill="#F9EBD8"/>
<path d="M600.096 438.207C615.462 429.611 620.319 420.762 627.734 405.324C627.772 413.792 626.284 422.722 625.431 431.173C623.648 448.831 622.821 467.8 617.843 484.882C616.287 490.222 614.052 495.931 609.992 499.869C606.201 503.547 601.267 505.68 596.346 507.376C596.929 493.315 597.636 479.261 598.466 465.213C598.954 456.218 599.231 447.173 600.096 438.207Z" fill="#909D7A"/>
<path d="M704.611 171.231C715.544 176.585 726.539 182.258 737.8 186.881C736.059 194.182 734.536 201.66 732.398 208.85L655.036 210.397C656.098 210.18 656.535 210.106 657.35 209.336C665.542 201.599 674.423 193.884 683.459 187.145C690.47 181.916 698.15 177.134 704.611 171.231Z" fill="#D8AE56"/>
<path d="M689.224 521.055C690.505 525.867 690.745 531.152 691.285 536.108C692.135 543.384 692.916 550.667 693.628 557.958C697.068 594.76 699.342 631.634 700.449 668.581C701.018 680.407 701.393 692.239 701.574 704.078C701.619 708.82 701.934 713.971 701.352 718.677C701.345 717.676 701.438 716.367 701.065 715.428C700.206 713.26 687.569 707.72 684.894 706.74C684.277 708.093 684.213 709.863 684.009 711.345L686.049 610.493C686.562 580.787 686.413 550.641 689.224 521.055Z" fill="#D8AE56"/>
<path d="M586.149 506.743C588.57 507.117 591.04 507.626 593.483 507.798C592.927 529.611 592.731 551.427 592.895 573.247C592.919 585.292 592.572 597.485 593.278 609.511C594.175 624.803 597.436 639.769 598.676 655.016C600.436 676.652 599.844 698.414 600.818 720.086C601.492 735.039 603.314 749.873 604.069 764.795C604.883 780.893 604.506 797.326 603.792 813.429C601.378 811.446 599.091 809.286 596.771 807.193L590.443 703.798C589.569 690.498 587.973 677.251 587.359 663.932C586.39 642.894 586.802 621.786 586.244 600.734C585.947 589.543 584.937 578.376 584.612 567.186C584.032 547.185 584.446 526.699 586.149 506.743Z" fill="#F9EBD8"/>
<path d="M727.126 239.76C726.982 244.054 727.049 248.76 730.284 252.06C731.676 253.48 733.446 254.13 735.42 254.11C738.498 254.078 741.006 252.949 743.021 250.653C745.342 248.01 746.997 243.907 746.771 240.358C746.674 238.844 746.025 237.566 745.262 236.277L745.479 235.976C747.742 236.501 750.002 237.073 752.275 237.543C751.357 265.265 755.701 313.899 775.428 334.691C776.457 335.776 777.538 336.808 778.67 337.786C774.705 345.975 772.482 354.544 771.089 363.514C749.544 362.183 728.154 362.26 706.578 362.43C704.839 362.332 703.882 362.586 702.533 361.436C702.126 360.382 701.974 359.757 702.104 358.627C702.321 356.747 702.426 354.874 702.537 352.986C713.068 352.818 727.536 352.062 735.969 345.189C740.599 333.025 737.028 277.733 736.284 261.936C728.168 262.267 720.012 263.332 711.926 264.132C711.028 263.923 711.451 264.133 710.695 263.428C710.568 258.453 718.034 245.748 720.376 240.466L727.126 239.76Z" fill="#D8AE56"/>
<path d="M645.432 242.277C670.496 242.489 695.375 242.364 720.376 240.467C718.034 245.749 710.568 258.454 710.695 263.429C711.451 264.134 711.028 263.924 711.926 264.133C706.284 265.198 700.093 265.142 694.361 265.323C683.789 265.656 673.151 265.926 662.577 265.647C654.388 265.431 645.982 264.56 637.82 264.937C636.247 284.582 639.057 333.416 647.119 351.076C662.736 354.807 686.454 353.54 702.537 352.986C702.426 354.875 702.321 356.748 702.104 358.627C701.974 359.758 702.126 360.382 702.532 361.436C703.881 362.586 704.839 362.332 706.578 362.431C697.898 363.671 683.38 363.129 674.117 363.336L607.219 365.2C605.343 356.068 601.611 347.364 598.221 338.719C624.641 312.422 624.859 280.79 625.096 246.239C626.252 249.229 627.273 252.284 629.573 254.617C631.533 256.604 633.994 257.839 636.831 257.676C639.292 257.535 641.387 256.235 642.881 254.317C645.742 250.645 645.879 246.662 645.432 242.277Z" fill="#909D7A"/>
<path d="M715.372 721.736C720.274 724.188 725.247 726.487 730.292 728.632C735.336 730.776 740.441 732.763 745.608 734.592C750.775 736.422 755.993 738.09 761.263 739.598C766.532 741.104 771.844 742.447 777.197 743.626C777.417 768.979 773.815 794.199 773.832 819.475C770.802 820.959 767.752 822.272 764.564 823.38C748.517 828.961 731.731 828.622 716.292 821.214C716.271 806.364 715.383 791.517 715.097 776.671C714.833 763.017 715.186 749.327 715.197 735.667C715.407 731.022 715.386 726.384 715.372 721.736Z" fill="#F9EBD8"/>
<path d="M711.926 264.133C720.012 263.332 728.167 262.267 736.284 261.937C737.028 277.733 740.599 333.025 735.968 345.189C727.536 352.063 713.068 352.819 702.537 352.987C686.454 353.54 662.736 354.807 647.119 351.076C639.057 333.416 636.247 284.582 637.82 264.937C645.982 264.56 654.388 265.431 662.577 265.647C673.151 265.926 683.789 265.656 694.361 265.323C700.093 265.142 706.284 265.198 711.926 264.133Z" fill="#161513"/>
<path d="M707.644 267.414C716.214 266.357 724.938 265.723 733.558 265.179C734.081 276.98 738.334 337.475 732.913 343.795C729.007 348.348 712.752 349.527 707.027 349.77C705.645 349.716 704.297 349.934 703.124 349.168C702.346 340.842 703.036 331.961 703.072 323.574C703.129 310.45 702.465 296.545 704.011 283.515C704.662 278.027 706.072 272.699 707.644 267.414Z" fill="#D8AE56"/>
<path d="M640.294 267.575C646.762 267.585 653.252 268.236 659.723 268.429C675.567 268.903 691.862 268.864 707.644 267.413C706.073 272.699 704.662 278.027 704.011 283.515C702.465 296.544 703.129 310.449 703.073 323.573C703.036 331.96 702.346 340.841 703.124 349.168C704.297 349.934 705.645 349.715 707.027 349.77C703.022 350.537 698.491 350.296 694.383 350.418C679.679 350.858 663.417 351.778 648.964 348.701C640.724 323.032 640.595 294.22 640.294 267.575Z" fill="#909D7A"/>
<path d="M708.678 365.374C719.091 365.228 729.504 365.251 739.916 365.443C742.222 390.335 751.223 418.297 771.116 434.667C773.274 436.442 775.472 437.797 777.991 439.004C778.304 453.147 778.176 467.34 778.776 481.469C779.523 499.054 781.025 516.628 780.943 534.24C780.857 552.587 779.66 570.912 779.234 589.251C778.762 609.58 779.39 629.918 779.032 650.244C778.747 666.418 777.729 682.567 777.302 698.734C776.906 713.683 777.131 728.672 777.197 743.625C771.844 742.446 766.533 741.103 761.263 739.596C755.993 738.089 750.775 736.42 745.608 734.591C740.441 732.761 735.336 730.775 730.292 728.63C725.248 726.485 720.274 724.187 715.373 721.735C715.386 726.383 715.407 731.021 715.197 735.665C714.281 719.376 715.228 702.883 714.645 686.558C713.974 667.769 710.685 649.376 709.38 630.693C708.116 612.611 708.842 594.47 707.097 576.419C706.142 566.533 704.489 556.473 701.49 547C698.48 537.489 694.599 528.521 692.719 518.658C687.156 489.476 692.322 458.269 693.833 428.855C702.309 421.091 708.814 416.918 709.405 404.35C710.012 391.474 708.724 378.286 708.678 365.374Z" fill="#D8AE56"/>
<path d="M646.08 366.977C661.966 366.42 677.968 365.635 693.862 365.633C693.539 386.976 692.496 408.578 691.005 429.876C690.248 446.987 688.866 464.047 686.858 481.056C683.373 508.51 678.505 535.71 676.62 563.364C675.536 579.262 675.558 595.241 675.053 611.164L672.558 673.198C672.161 683.974 672.906 696.492 671.817 706.992C672.109 715.513 671.634 724.215 671.319 732.735C671.047 740.107 670.953 747.569 670.155 754.906C667.671 777.75 663.413 800.27 662.814 823.331C659.685 824.693 656.543 825.769 653.198 826.472C636.575 829.965 620.75 823.972 606.904 815.022C606.542 798.644 607.567 782.225 606.91 765.842C606.281 750.16 603.934 734.62 603.437 718.916C602.813 699.17 603.184 679.317 601.907 659.6C600.931 644.541 597.837 629.758 596.517 614.731C595.052 598.033 595.565 580.908 595.432 564.142C595.296 552.118 595.35 540.095 595.593 528.073C595.713 521.181 595.607 514.235 596.347 507.376C601.268 505.68 606.201 503.547 609.992 499.87C614.052 495.931 616.287 490.223 617.843 484.883C622.822 467.801 623.648 448.831 625.431 431.173C626.284 422.723 627.773 413.792 627.734 405.325C629.968 395.595 634.133 386.396 636.121 376.515C639.208 372.514 641.842 369.735 646.08 366.977Z" fill="#F9EBD8"/>
<path d="M691.005 429.876C690.248 446.987 688.866 464.047 686.858 481.056C683.373 508.51 678.505 535.71 676.62 563.364C675.536 579.262 675.558 595.241 675.053 611.164L672.558 673.198C672.161 683.974 672.906 696.493 671.817 706.992C671.558 704.024 671.745 700.918 671.761 697.935C666.719 694.08 661.509 690.233 656.835 685.938C640.518 670.943 627.773 650.987 623.477 629.095C622.06 621.877 621.803 614.527 621.832 607.191C622.024 558.797 646.129 514.097 668.101 472.378C675.525 458.281 682.118 443.127 691.005 429.876Z" fill="#D8AE56"/>
<path d="M325.492 155.688L326.018 155.455C329.435 153.913 334.369 149.556 338.149 151.105C345.612 154.164 362.741 173.196 370.34 179.242C377.966 185.312 387.147 188.9 394.222 195.836C395.201 196.804 396.124 197.822 396.99 198.892C397.856 199.962 398.659 201.077 399.401 202.236C400.143 203.396 400.819 204.593 401.427 205.828C402.036 207.063 402.574 208.328 403.042 209.622C407.352 221.248 407.041 249.145 407.773 263.005L410.896 314.331C412.403 336.328 414.974 358.147 417.207 380.071C417.696 384.861 418.586 403.092 419.877 405.825C420.446 415.49 421.697 425.166 422.689 434.798C423.29 440.639 423.478 446.883 424.683 452.603C438.548 462.194 451.615 472.288 466.359 480.574C495.408 496.899 527.979 507.292 548.659 535.176C554.934 543.636 559.341 552.636 561.255 563.052C565.727 587.371 556.659 611.942 542.841 631.774C518.379 666.88 476.566 699.507 433.789 707.173C427.73 708.26 421.835 708.425 415.705 707.946C414.095 707.821 407.599 706.789 406.536 707.126C406.226 707.224 406.015 707.513 405.756 707.706C407.812 761.901 409.286 815.985 412.839 870.116C398.364 875.526 382.503 876.855 367.257 874.715C362.746 874.082 358.175 872.285 353.641 872.18C347.424 872.036 337.95 874.884 330.84 875.274C323.063 875.701 314.21 875.721 308.175 870.01C305.796 867.758 305.534 863.807 305.184 860.674C304.1 850.991 304.146 841.015 303.761 831.279L301.714 772.096C300.118 722.485 297.975 672.929 297.045 623.297C296.309 622.461 296.408 621.241 296.268 620.146L295.914 789.719C295.945 808.133 295.818 826.545 295.532 844.957C295.35 853.934 295.719 863.701 294.148 872.52C277.207 879.445 258.038 878.794 240.754 873.337C221.428 878.54 204.413 880.924 185.431 872.987C180.134 842.859 182.951 810.707 184.899 780.362C186.407 761.758 187.8 743.146 189.078 724.525C187.938 722.89 180.877 720.647 178.749 718.804C176.268 716.656 173.757 714.565 171.422 712.253C155.314 696.308 146.577 674.651 132.681 656.949C121.596 642.83 108.901 630.008 98.4114 615.425C67.3047 572.175 54.8721 518.173 54.2512 465.511C54.1447 456.479 54.1528 447.35 54.7437 438.333C55.2149 431.144 56.3209 423.8 56.2239 416.606L56.2102 416.015L56.2727 415.701C58.1886 413.337 59.691 410.424 61.5178 407.941C65.6117 402.376 70.2779 397.004 75.0969 392.048C93.8176 372.797 118.036 362.479 144.413 359.338C149.639 358.716 155.219 358.059 160.474 358.222C163.449 358.314 174.518 359.885 176.687 358.695C176.686 347.484 178.1 335.985 178.919 324.783C181.569 288.543 185.476 252.08 193.809 216.642C195.143 210.973 196.491 204.122 200.374 199.595C208.371 190.27 222.969 185.826 232.764 178.459C242.168 171.382 249.369 161.391 259.427 155.157C264.579 157.56 269.897 158.965 275.359 160.452C292.726 163.476 309.172 162.774 325.492 155.688Z" fill="#161513"/>
<path d="M329.799 398.164C331.393 397.914 333.166 397.979 334.787 397.902C335.486 400.21 336.025 402.574 336.612 404.912L331.762 405.689L326.302 406.56L323.817 398.624L329.799 398.164Z" fill="#D5E7C3"/>
<path d="M335.573 408.019C336.142 407.893 336.56 407.969 337.132 408.033C338.878 410.442 339.435 415.449 340.102 418.376C337.295 419.027 334.464 419.595 331.647 420.199L331.121 420.171C329.248 418.24 328.294 411.841 327.457 409.041L335.573 408.019Z" fill="#D5E7C3"/>
<path d="M358.075 395.844C358.943 395.634 359.407 395.563 360.274 395.8C360.582 396.954 360.758 397.262 360.417 398.386C356.289 402.069 346.024 403.094 340.526 404.249L339.68 404.098C338.527 402.304 338.186 399.732 337.676 397.667C344.468 396.969 351.268 396.361 358.075 395.844Z" fill="#D5E7C3"/>
<path d="M261.151 397.897C266.707 398.122 272.302 398.215 277.84 398.716C276.494 401.528 275.942 404.783 275.231 407.813C270.481 407.446 265.705 407.398 260.944 407.276L261.151 397.897Z" fill="#909D7A"/>
<path d="M260.78 409.772C265.312 409.961 269.843 410.188 274.371 410.454L271.063 422.456L260.155 421.966L260.78 409.772Z" fill="#909D7A"/>
<path d="M232.613 397.164C241.244 396.875 249.88 397.258 258.506 397.566L258.159 406.978C249.552 406.62 240.994 405.495 232.477 404.252L232.613 397.164Z" fill="#909D7A"/>
<path d="M360.64 402.224L361.534 402.512C362.703 405.355 363.137 408.52 363.73 411.53C357.035 413.578 350.508 415.994 343.696 417.663L342.822 417.168C341.549 413.972 340.976 410.449 340.252 407.092C347.191 405.934 353.897 404.193 360.64 402.224Z" fill="#D5E7C3"/>
<path d="M232.253 406.873C240.732 408.212 249.417 408.853 257.962 409.663C257.895 413.741 257.76 417.781 257.437 421.848C248.72 420.815 240.168 419.61 231.587 417.744C232.066 414.176 232.078 410.472 232.253 406.873Z" fill="#909D7A"/>
<path d="M277.84 398.717C292.306 399.336 306.774 399.402 321.245 398.916C322.151 401.636 323.094 404.349 323.893 407.103C307.645 408.105 291.5 408.57 275.231 407.814C275.942 404.784 276.494 401.529 277.84 398.717Z" fill="#D5E7C3"/>
<path d="M274.371 410.452C290.753 411.202 308.323 411.825 324.591 409.614L328.052 420.869C309.47 423.209 289.784 423.094 271.063 422.454L274.371 410.452Z" fill="#D5E7C3"/>
<path d="M210.16 366.776C221.46 369.086 241.866 382.202 251.604 388.7C253.873 390.213 257.967 392.345 259.427 394.569C259.545 394.749 259.652 394.937 259.764 395.121C253.828 394.92 247.866 394.635 241.927 394.642C237.251 394.646 231.997 395.26 227.414 394.419C226.417 394.234 225.45 393.948 224.513 393.56C223.577 393.172 222.691 392.69 221.856 392.115C214.124 386.81 211.591 375.414 210.16 366.776Z" fill="#909D7A"/>
<path d="M321.144 160.483C324.526 159.106 327.896 157.704 331.256 156.275C326.746 179.344 322.975 202.555 318.294 225.589C312.815 252.555 306.169 280.991 302.427 308.165C300.881 303.451 299.408 298.696 297.755 294.018C300.759 291.566 300.684 282.558 301.07 278.827C303.091 259.305 306.002 239.969 308.823 220.554C310.841 206.658 312.529 192.576 315.323 178.816C316.575 172.656 319.809 167.067 321.058 160.945C321.089 160.791 321.116 160.637 321.144 160.483Z" fill="#D5E7C3"/>
<path d="M263.6 159.874C267.765 161.366 272.121 162.381 276.434 163.344L275.632 163.913C275.222 170.379 277.654 178.463 278.722 184.903C283.252 212.212 288.625 239.479 291.878 266.97C292.334 270.825 293.627 276.121 293.069 279.911C290.483 273.413 288.501 266.681 285.83 260.203C281.307 249.236 276.089 238.634 272.037 227.458C264.437 206.502 261.643 182.041 263.6 159.874Z" fill="#BAC7A8"/>
<path d="M277.695 396.092C282.145 374.637 287.674 353.323 291.329 331.717C292.188 326.639 294.769 301.218 296.527 298.461C305.808 323.806 306.89 349.129 302.575 375.613C301.446 382.547 300.266 389.84 297.918 396.472C291.171 396.523 284.438 396.309 277.695 396.092Z" fill="#D5E7C3"/>
<path d="M259.172 158.292C259.777 158.41 260.288 158.653 260.855 158.889C261.438 160.145 260.452 176.49 260.567 179.256C260.741 184.607 261.156 189.939 261.813 195.252C262.469 200.565 263.363 205.838 264.495 211.07C269.545 233.984 281.635 254.137 288.735 276.349C285.05 271.593 281.868 266.248 278.435 261.287C272.037 252.032 265.745 243.144 257.092 235.804C251.018 230.651 243.736 226.309 238.565 220.212C229.268 209.254 232.982 193.909 234.034 181.003C242.801 173.908 250.339 165.379 259.172 158.292Z" fill="#BAC7A8"/>
<path d="M191.791 725.117C201.875 729.012 211.569 733.829 222.556 734.707C224.85 734.89 238.24 734.446 238.682 735.288C239.264 736.398 239.099 738.073 239.128 739.311C238.416 758.554 236.931 777.759 236.286 797.013C227.708 794.826 219.183 793.263 210.712 790.55C203.921 788.376 194.236 783.004 187.584 782.22C189.213 763.234 190.462 744.132 191.791 725.117Z" fill="#D8AE56"/>
<path d="M276.434 163.345C291.651 165.782 306.453 165.37 321.144 160.484C321.116 160.638 321.089 160.793 321.058 160.947C319.809 167.068 316.575 172.658 315.324 178.817C312.529 192.578 310.841 206.659 308.823 220.556C306.002 239.97 303.091 259.306 301.07 278.829C300.684 282.559 300.759 291.567 297.755 294.019C296.05 289.369 294.594 284.622 293.069 279.912C293.627 276.122 292.334 270.826 291.879 266.971C288.625 239.48 283.253 212.213 278.723 184.904C277.654 178.464 275.222 170.38 275.633 163.914L276.434 163.345Z" fill="#F9EBD8"/>
<path d="M198.712 208.436C211.368 245.407 207.142 272.873 205.76 310.542C205.35 319.589 205.269 328.637 205.518 337.689C205.766 346.741 206.344 355.771 207.249 364.782C201.966 363.554 196.661 362.208 191.316 361.286C187.519 360.632 183.66 360.422 179.882 359.666L179.317 358.678C181.46 317.978 184.962 277.558 192.5 237.475C194.307 227.864 195.743 217.759 198.712 208.436Z" fill="#BAC7A8"/>
<path d="M266.279 425.339C276.3 425.032 286.386 425.377 296.411 425.486L297.045 623.298C296.309 622.462 296.407 621.242 296.268 620.147C296.176 618.014 296.271 615.874 295.389 613.894C295.082 613.823 293.316 613.516 293.195 613.382C293.094 613.272 290.597 596.249 290.089 593.458C285.514 568.312 280.45 543.232 276.331 518.002C275.488 512.837 273.317 488.732 271.896 486.612C270.857 472.885 269.684 459.169 268.376 445.466C267.721 438.76 266.504 432.077 266.279 425.339Z" fill="#D5E7C3"/>
<path d="M298.609 425.463C308.698 425.047 318.709 424.574 328.741 423.322C332.777 437.522 331.909 447.723 330.548 462.035C328.427 481.114 325.11 501.062 325.226 520.269C328.159 511.053 328.773 500.683 329.858 491.099C330.878 482.098 332.099 473.018 332.55 463.969C332.889 461.579 333.061 459.189 333.234 456.784C334.501 466.421 334.887 476.267 335.416 485.973C336.278 500.981 336.912 516 337.317 531.028C337.762 546.733 338.748 562.472 338.884 578.176C337.839 576.092 335.586 574.062 334.115 572.209C330.308 567.412 326.807 562.191 324.585 556.453C316.257 534.945 318.98 501.568 299.278 486.037C299.255 488.488 299.131 490.918 298.983 493.364C298.014 484.212 298.629 474.491 298.711 465.281C298.845 452.008 298.811 438.735 298.609 425.463Z" fill="#D5E7C3"/>
<path d="M334.999 153.449C336.346 153.624 337.5 153.757 338.674 154.485C343.215 157.305 347.215 161.675 351.116 165.331C357.806 171.6 364.439 177.971 371.603 183.7C372.436 189.249 371.795 195.093 370.434 200.508C365.393 220.567 352.06 225.487 341.301 240.974C331.971 254.404 324.7 269.496 317.607 284.182C313.242 293.335 308.937 302.487 304.063 311.384C308.585 291.045 312.033 270.297 315.944 249.82C318.887 234.414 322.395 219.14 325.232 203.703L330.779 173.032C331.89 166.826 332.492 159.207 334.999 153.449Z" fill="#D5E7C3"/>
<path d="M293.49 703.036L293.387 780.612C293.405 789.434 293.375 798.255 293.296 807.076C293.257 811.151 293.462 815.433 293.077 819.48C292.112 809.426 292.992 798.594 293.19 788.457C277.115 799.676 257.729 800.221 239.052 797.386C239.017 776.406 240.839 755.159 242.138 734.213C257.391 731.986 273.331 726.582 284.082 714.996C287.422 711.396 289.86 707.059 293.147 703.409C293.26 703.284 293.376 703.161 293.49 703.036Z" fill="#D8AE56"/>
<path d="M239.052 797.387C257.729 800.222 277.115 799.677 293.19 788.458C292.992 798.594 292.112 809.427 293.077 819.481C293.568 836.321 292.749 853.315 291.934 870.137C276.29 877.502 259.033 875.223 242.945 871.005C238.308 847.1 238.714 821.628 239.052 797.387Z" fill="#F9EBD8"/>
<path d="M187.584 782.221C194.236 783.004 203.921 788.376 210.713 790.55C219.183 793.264 227.709 794.826 236.286 797.014C236.092 821.642 235.969 846.338 240.182 870.693C222.397 875.101 205.664 878.594 188.098 871.06C186.391 864.022 186.049 856.597 185.688 849.383C184.565 826.967 185.955 804.577 187.584 782.221Z" fill="#F9EBD8"/>
<path d="M195.253 499.623C189.646 499.317 172.599 497.753 169.475 493.239C169.337 493.039 168.912 492.339 168.869 492.018C168.22 487.203 170.349 469.935 170.781 463.809C172.602 438.946 174.649 414.102 176.921 389.277C177.814 379.151 177.861 368.717 179.317 358.679L179.882 359.667C183.66 360.422 187.519 360.632 191.316 361.287C196.661 362.208 201.966 363.555 207.249 364.782C207.974 370.331 210.599 377.081 210.757 382.216C211.032 391.138 209.3 400.801 208.394 409.688C206.414 429.787 203.929 449.823 200.938 469.797C199.407 479.767 198.171 489.948 195.253 499.623Z" fill="#909D7A"/>
<path d="M401.691 215C404.69 227.953 404 242.527 404.65 255.785L408.201 316.097C410.474 351.285 415.579 386.247 418.575 421.361C419.681 429.367 420.525 437.401 421.105 445.463C422.328 448.463 423.611 473.643 424.206 479.207C425.017 486.797 426.294 494.336 427.356 501.894C426.032 502.621 424.668 503.263 423.264 503.819C418.979 505.526 408.493 508.625 404.282 506.135C402.314 504.972 401.693 501.28 401.266 499.207C398.721 486.868 396.932 474.255 394.857 461.82C391.818 443.603 388.606 425.191 386.961 406.792C384.396 378.102 384.804 348.926 385.514 320.156C386.182 293.032 386.886 258.939 393.769 232.975C395.489 226.484 398.006 220.612 401.691 215Z" fill="#D5E7C3"/>
<path d="M414.84 440.589C415.334 435.498 415.552 427.772 416.968 422.975C417.299 421.854 417.587 421.874 418.575 421.362C419.681 429.369 420.525 437.403 421.105 445.465L420.473 446.04C418.13 445.104 416.344 442.537 414.84 440.589Z" fill="#F9EBD8"/>
<path d="M249.445 524.018C254.137 503.742 256.747 482.349 258.074 461.587C258.695 451.876 258.053 433.623 260.307 425.27C261.269 424.64 262.073 424.911 263.195 424.967C265.372 427.866 270.044 503.901 270.343 513.967C270.624 523.408 269.376 534.218 270.359 543.397C270.378 543.568 270.4 543.737 270.421 543.907C275.827 525.856 272.048 505.2 271.896 486.612C273.317 488.733 275.488 512.838 276.331 518.002C280.45 543.232 285.514 568.312 290.089 593.459C290.597 596.25 293.094 613.272 293.195 613.383C293.316 613.517 295.082 613.823 295.389 613.894C294.788 614.097 294.175 614.104 293.859 614.712C293.094 616.185 293.869 694.543 293.49 703.038C293.376 703.162 293.26 703.285 293.147 703.411C289.86 707.06 287.422 711.397 284.082 714.997C273.331 726.584 257.391 731.988 242.138 734.214C243.321 707.158 245.652 680.018 245.651 652.934C245.65 614.357 243.167 576.127 245.809 537.54C246.286 530.576 246.128 521.641 247.881 515.072C248.659 495.484 251.932 475.846 255.581 456.609C256.269 461.688 255.235 467.702 254.725 472.798C253.49 484.785 252.003 496.742 250.263 508.667C249.952 510.955 250.132 514.317 249.401 516.398L249.445 524.018Z" fill="#909D7A"/>
<path d="M343.266 420.465C350.244 418.705 357.028 416.539 363.857 414.278C368.458 424.879 372.915 435.442 376.413 446.472C393.087 499.055 395.693 556.089 398.652 610.826C399.734 630.833 400.419 650.826 401.268 670.841C401.75 682.191 402.548 693.563 402.795 704.918C371.387 692.583 372.023 664.816 366.115 636.577C362.05 617.146 355.632 598.686 342.46 583.423L342.121 589.383C341.155 580.754 341.561 571.754 341.217 563.056C340.052 533.552 339.475 504.063 337.561 474.591C336.436 457.265 335.674 439.915 331.267 423.027C334.366 422.363 337.465 421.645 340.587 421.096C345.271 438.258 346.939 455.845 348.698 473.481C351.117 498.545 353.002 523.649 354.352 548.793C355.178 562.875 355.361 577.737 357.652 591.651C358.703 575.877 357.259 559.483 356.478 543.707C355.403 521.055 353.767 498.444 351.569 475.873C350.471 464.635 349.463 453.324 347.693 442.172C346.533 434.867 344.726 427.709 343.266 420.465Z" fill="#D5E7C3"/>
<path d="M374.931 185.423C386.835 191.456 395.879 199.071 401.054 211.514C400.123 212.803 399.243 214.124 398.413 215.48C397.584 216.835 396.807 218.22 396.084 219.635C395.359 221.049 394.69 222.49 394.076 223.956C393.462 225.422 392.904 226.908 392.404 228.417C384.209 253.034 383.497 292.582 382.819 318.907C382.554 329.229 382.715 339.706 381.458 349.958C379.974 362.054 376.83 377.054 368.487 386.478C366.328 388.917 363.728 390.988 360.639 392.103C353.604 394.644 330.7 395.334 322.148 395.894C315.148 396.507 307.924 396.408 300.89 396.548C307.358 368.456 310.239 343.928 304.182 315.349C309.53 308.317 313.233 299.414 317.148 291.511C324.646 276.374 331.761 261.073 340.698 246.712C348.691 233.867 362.155 225.745 368.231 213.961C372.902 204.903 374.206 195.438 374.931 185.423Z" fill="#D5E7C3"/>
<path d="M210.16 366.776C208.831 359.824 208.679 352.242 208.379 345.17C207.866 330.918 208.013 316.673 208.819 302.435C209.76 284.739 211.223 267.41 209.722 249.701C208.882 239.768 207.908 228.365 204.985 218.857C203.746 214.827 199.929 207.439 201.128 203.494C202.933 197.557 225.432 185.742 231.475 182.608C229.763 189.078 229.276 195.981 229.684 202.648C231.02 224.459 246.735 228.768 260.188 242.365C269.661 251.938 285.096 274.248 291.54 286.453C293.588 290.331 295.093 294.323 296.527 298.46C294.769 301.217 292.188 326.638 291.329 331.716C287.674 353.322 282.145 374.637 277.695 396.091C271.749 396.046 265.715 395.397 259.764 395.12C259.652 394.936 259.545 394.749 259.427 394.569C257.967 392.344 253.873 390.212 251.604 388.699C241.866 382.201 221.46 369.086 210.16 366.776Z" fill="#BAC7A8"/>
<path d="M342.121 589.382L342.46 583.422C355.632 598.684 362.05 617.145 366.115 636.576C372.023 664.815 371.387 692.582 402.795 704.917C403.876 720.117 403.998 735.459 404.53 750.692C405.9 789.846 406.858 829.12 410.171 868.169C392.12 874.517 373.248 873.804 354.97 869.155C354.29 861.027 352.83 852.909 351.728 844.824C350.092 833.312 348.882 821.756 348.099 810.154C345.406 772.099 345.328 733.586 344.498 695.446C343.729 660.132 342.163 624.695 342.121 589.382Z" fill="#F9EBD8"/>
<path d="M230.086 420.259C238.896 422.562 248.481 423.749 257.564 424.337C256.873 441.872 252.228 459.116 249.552 476.431C246.017 500.27 243.707 524.228 242.62 548.303C240.871 583.141 243.052 617.678 243.102 652.487C243.129 670.738 241.797 689.025 240.719 707.234C240.322 714.147 239.969 721.063 239.66 727.98C239.507 731.645 239.743 735.711 239.128 739.312C239.099 738.073 239.264 736.399 238.682 735.289C238.24 734.447 224.85 734.89 222.556 734.708C211.569 733.83 201.875 729.012 191.791 725.118C195.106 688.857 197.427 652.332 199.622 615.988C202.941 561.014 204.598 468.028 230.086 420.259Z" fill="#909D7A"/>
<path d="M298.983 493.364C299.131 490.918 299.255 488.488 299.278 486.037C318.98 501.568 316.257 534.945 324.585 556.453C326.807 562.191 330.307 567.412 334.115 572.208C335.586 574.062 337.839 576.091 338.884 578.176C339.767 603.278 340.407 628.386 340.804 653.501L342.739 724.367C343.353 752.886 343.374 781.579 345.261 810.046C346.581 829.937 350.093 849.47 352.149 869.256C341.587 871.801 329.298 874.436 318.456 872.089C313.816 871.086 310.68 869.272 308.102 865.289C305.145 820.575 304.491 775.59 302.917 730.805C299.633 651.69 298.322 572.543 298.983 493.364Z" fill="#F9EBD8"/>
<path d="M382.235 358.872C382.845 372.487 382.64 386.141 383.634 399.738C385.059 419.225 388.291 438.464 391.357 457.741C394.026 474.52 396.506 491.735 400.534 508.236C404.018 509.525 407.493 509.716 411.171 509.552C416.277 509.324 425.357 508.176 428.85 504.074C429.469 503.346 429.871 502.609 429.964 501.636C430.384 497.245 428.016 487.325 427.426 482.458C426.225 472.55 425.436 462.555 424.683 452.603C438.547 462.194 451.615 472.288 466.358 480.574C495.408 496.899 527.978 507.292 548.659 535.176C554.933 543.636 559.34 552.636 561.255 563.052C565.727 587.371 556.658 611.942 542.841 631.774C518.379 666.88 476.566 699.507 433.789 707.173C427.73 708.26 421.835 708.425 415.705 707.946C414.095 707.821 407.599 706.789 406.536 707.126C406.226 707.224 406.015 707.513 405.756 707.706C404.654 703.78 405.171 694.614 404.961 690.001C403.975 669.795 403.143 649.583 402.465 629.365C401.017 591.866 398.556 553.715 393.924 516.463C390.942 492.479 386.06 467.743 378.715 444.684C375.47 434.495 370.748 424.912 367.382 414.846C365.258 408.496 364.132 401.338 362.854 394.753C375.801 385.551 379.252 373.806 382.235 358.872Z" fill="#D5E7C3"/>
<path d="M56.2727 415.703C58.1886 413.338 59.691 410.425 61.5178 407.942C65.6117 402.377 70.2779 397.005 75.0969 392.049C93.8176 372.798 118.036 362.48 144.413 359.339C149.639 358.717 155.219 358.06 160.474 358.224C163.449 358.315 174.518 359.886 176.687 358.696L168.882 454.739C167.926 467.438 166.13 480.496 165.981 493.214C171.635 500.123 181.679 500.976 190.056 501.838C192.136 502.053 195.033 502.24 196.845 500.975C202.869 496.767 211.462 401.071 213.377 386.215C216.732 391.464 220.176 395.706 226.626 397.089C227.649 397.309 228.696 397.439 229.734 397.568C229.656 403.625 230.013 410.329 228.66 416.244C227.451 421.53 224.555 426.584 222.413 431.551C220.292 436.469 218.571 441.587 217.014 446.71C214.511 454.904 212.362 463.19 210.567 471.567C208.773 479.945 207.34 488.384 206.268 496.884C202.733 523.614 201.124 550.554 199.371 577.444C197.503 609.521 195.374 641.58 192.985 673.623C192.148 686.195 191.235 698.761 190.248 711.322C189.951 715.157 190.24 720.937 189.078 724.526C187.938 722.891 180.877 720.648 178.749 718.805C176.268 716.657 173.757 714.566 171.422 712.254C155.314 696.309 146.577 674.652 132.681 656.95C121.596 642.831 108.901 630.009 98.4114 615.426C67.3047 572.176 54.8721 518.174 54.2512 465.512C54.1447 456.48 54.1528 447.351 54.7437 438.334C55.2149 431.145 56.3209 423.801 56.2239 416.607L56.2102 416.016L56.2727 415.703Z" fill="#909D7A"/>
</g>
<defs>
<clipPath id="clip0_179_2728">
<rect width="960" height="960" fill="white"/>
</clipPath>
</defs>
</svg>
