<svg width="1024" height="1024" viewBox="0 0 1024 1024" fill="none" xmlns="http://www.w3.org/2000/svg">
<g clip-path="url(#clip0_157_1370)">
<path d="M0 0H1024V1024H0V0Z" fill="#F9EBD8"/>
<path d="M95.8235 747.266C99.5665 747.313 101.901 748.426 105.043 750.296C110.068 753.287 114.893 756.861 119.421 760.565C126.054 765.992 132.197 772.147 138.521 777.94C144.226 783.166 150.785 788.363 155.705 794.306C156.831 795.666 157.768 797.211 158.138 798.957C158.623 801.252 157.559 802.747 156.402 804.617C154.699 805.811 152.998 806.696 150.851 806.551C149.007 806.426 147.247 805.739 145.697 804.756C137.832 799.766 121.825 783.474 115.069 776.108C109.32 769.84 99.2307 758.776 96.2251 751.17C95.7257 749.906 95.7649 748.6 95.8235 747.266Z" fill="black"/>
<path d="M148.736 797.459C150.488 797.466 152.543 797.446 154.029 798.544C155.132 799.358 155.188 799.662 155.445 800.921C155.001 802.473 154.262 803.016 153.063 803.979C151.459 804.065 149.688 804.235 148.229 803.405C146.933 802.669 146.863 802.169 146.549 800.841C146.942 799.276 147.651 798.57 148.736 797.459Z" fill="#F9EBD8"/>
<path d="M98.5893 749.915C106.999 752.12 147.623 787.347 152.365 794.978C150.95 795.289 149.512 795.179 148.068 795.17C145.887 796.599 145.092 798.247 143.975 800.53C132.665 790.477 103.615 763.526 98.5893 749.915Z" fill="#F9EBD8"/>
<path d="M234.717 817.099C238.798 816.701 242.702 816.848 246.669 817.973C252.318 819.576 257.793 822.821 260.659 828.069C270.121 829.437 275.226 828.77 284.693 828.077C293.148 827.457 301.824 827.972 310.305 827.944C333.282 827.868 354.975 827.224 377.674 831.644C381.789 832.446 387.638 833.202 390.886 835.994L390.879 836.74C384.411 840.629 313.498 837.75 299.142 839.393C297.19 839.617 294.997 839.828 293.716 841.42C297.095 846.59 317.511 856.529 323.773 859.477C334.535 864.534 345.596 869.244 356.589 873.787C360.895 875.566 365.574 876.905 369.745 878.946C370.91 879.516 371.92 879.972 372.703 881.041C370.643 882.991 363.434 881.429 360.733 880.886C341.151 876.95 323.213 868.84 305.386 860.044C294.127 854.488 277.303 841.638 265.385 840.762C256.675 840.122 250.402 846.812 242.284 848.544C235.612 849.967 228.286 848.742 222.548 844.95C218.071 841.991 216.48 837.32 215.372 832.342C215.981 830.228 216.696 828.314 217.954 826.488C221.927 820.72 228.192 818.472 234.717 817.099Z" fill="black"/>
<path d="M233.882 819.597C259.77 816.955 257.707 836.359 261.286 837.487C262.822 837.97 264.882 836.961 266.465 837.752C266.308 837.788 266.155 837.844 265.995 837.858C259.18 838.449 254.616 840.288 248.701 843.714C247.62 844.273 246.516 844.78 245.389 845.237C240.025 847.354 232.846 846.892 227.612 844.59C224.032 843.016 220.699 840.263 219.296 836.517C218.347 833.983 218.374 831.252 219.562 828.802C222.202 823.354 228.534 821.304 233.882 819.597Z" fill="#F9EBD8"/>
<path d="M238.155 825.2C241.919 824.864 247.051 824.617 250.346 826.659C251.738 827.522 252.81 828.789 253.051 830.463C253.294 832.148 252.645 833.84 251.663 835.181C248.536 839.453 243.034 840.458 238.153 841.237C234.148 841.437 228.888 841.306 225.53 838.909C224.207 837.965 223.227 836.602 223.04 834.96C222.847 833.263 223.536 831.601 224.608 830.312C227.932 826.316 233.321 825.651 238.155 825.2Z" fill="black"/>
<path d="M237.416 827.686C240.727 827.365 244.949 826.917 247.98 828.523C249.493 829.325 249.88 830.216 250.344 831.8C250.195 832.602 250.078 833.307 249.611 833.994C247.354 837.318 242.8 838.168 239.124 838.871C235.963 839.203 231.725 839.333 228.856 837.796C227.504 837.071 226.566 836.194 226.23 834.635C225.968 833.421 226.482 832.327 227.226 831.383C229.521 828.471 234.006 828.064 237.416 827.686Z" fill="#F4E6D3"/>
<path d="M299.293 830.245C327.617 829.828 356.801 828.343 384.447 835.67C364.171 837.227 343.66 836.491 323.333 836.559C316.234 836.582 309.037 836.378 301.955 836.882C299.004 837.092 294.164 837.299 291.681 838.991C290.606 839.723 290.272 840.059 290.068 841.338C293.896 847.824 316.821 858.937 324.278 862.475C336.99 868.207 349.986 873.287 362.683 879.037C338.673 874.024 315.83 863.385 294.469 851.541C289.601 848.841 285.152 845.384 280.251 842.76C276.822 840.924 271.36 840.33 268.476 838.007C267.711 837.39 267.893 835.296 266.922 834.124C265.847 834.363 264.716 834.674 263.619 834.753C262.324 834.845 261.64 834.703 260.666 833.877C260.571 832.889 260.871 832.468 261.268 831.583C263.448 830.507 268.647 831.834 271.296 831.839C275.667 831.848 280.19 831.016 284.555 830.653C289.457 830.245 294.377 830.266 299.293 830.245Z" fill="#F9EBD8"/>
<path d="M506.676 813.418C507.985 810.291 509.348 808.297 512.566 806.981C521.316 803.403 533.926 806.043 542.267 809.75C549.781 813.089 555.905 818.36 558.761 826.303C563.228 838.727 561.292 883.071 561.087 897.995C564.881 901.983 569.406 905.939 569.137 911.95C568.952 916.091 566.638 919.501 563.615 922.178C551.597 932.816 531.647 935.07 516.322 933.857C505.382 932.991 491.977 929.905 484.402 921.277C482.204 918.774 480.55 915.693 480.772 912.275C481.101 907.221 484.919 903.458 488.589 900.413C488.616 892.135 488.504 883.858 488.251 875.583C487.836 862.024 485.279 837.592 490.353 825.501C495.436 821.759 499.983 817.235 505.066 813.607L506.676 813.418Z" fill="black"/>
<path d="M511.967 809.673C518.752 807.235 528.784 806.35 535.424 809.624C536.862 810.332 538.229 811.411 538.765 812.982C539.281 814.494 538.951 816.087 538.177 817.438C536.458 820.439 533.003 822.108 529.758 822.87C524.498 824.107 517.581 823.752 512.915 820.842C512.169 820.377 511.482 819.863 510.837 819.265C510.116 818.094 509.186 816.646 509.077 815.232C508.937 813.429 509.694 812.389 510.679 810.963L511.967 809.673Z" fill="#BAC7A8"/>
<path d="M510.679 810.963L511.967 809.673C513.483 810.86 514.963 812.045 516.383 813.347C514.732 814.029 514.204 814.742 513.332 816.254L511.199 817.596C511.05 816.852 510.966 816.335 511.108 815.575C511.508 813.434 511.852 812.988 510.679 810.963Z" fill="#909D7A"/>
<path d="M516.383 813.347C522.614 811.961 529.656 811.979 535.283 815.431C535.709 815.693 535.804 815.817 536.118 816.131L536.008 816.829C531.651 817.797 526.115 812.062 513.332 816.254C514.204 814.742 514.732 814.029 516.383 813.347Z" fill="black"/>
<path d="M560.82 901.642C562.151 902.71 563.245 903.879 564.304 905.222C565.957 907.32 567.119 909.932 566.663 912.657C565.964 916.843 562.379 920.149 559.091 922.509C546.183 931.775 525.376 933.561 510.146 930.962C499.706 929.181 490.274 925.296 483.992 916.458C483.662 915.475 483.425 914.573 483.358 913.531C483.086 909.333 485.843 906.359 488.37 903.37C488.463 907.77 488.691 911.7 491.531 915.284C496.204 921.182 505.308 923.669 512.466 924.535C525.457 926.108 543.963 925.932 554.694 917.158C560.016 912.806 560.301 908.033 560.82 901.642Z" fill="#C8D2B3"/>
<path d="M506.676 813.418C507.079 817.142 507.545 819.507 510.555 822C515.35 825.971 522.602 826.347 528.565 825.657C532.885 825.158 537.123 823.671 539.852 820.115C541.929 817.409 541.532 815.018 541.144 811.872C545.384 814.101 551.398 816.744 553.116 821.628C553.79 823.542 553.592 825.455 552.605 827.221C549.661 832.484 541.352 835.514 535.748 836.885C524.813 839.559 510.213 838.797 500.468 832.694C497.701 830.96 495.907 828.96 494.312 826.152C496.76 823.615 505.113 817.017 505.716 814.298L505.066 813.607L506.676 813.418Z" fill="#BAC7A8"/>
<path d="M551.421 831.951C553.074 830.056 554.552 828.226 555.877 826.073C557.232 830.806 557.988 835.264 558.376 840.162C558.44 842.49 558.706 844.988 558.514 847.298C558.562 849.284 559.061 852.418 558.108 854.165C558.516 856.188 559.09 858.191 558.796 860.259L557.83 861.394L558.439 861.97C558.645 863.444 558.998 864.396 558.139 865.765C557.883 866.174 557.284 866.787 556.941 867.155C557.768 867.103 557.795 866.96 558.514 867.458C559.334 871.411 558.672 875.81 558.447 879.827C558.531 881.989 558.686 883.927 557.838 885.965L558.208 886.624C558.552 888.669 558.482 890.236 557.984 892.245L557.496 892.716L558.318 892.611C558.492 895.014 558.347 896.799 557.666 899.113C558.386 900.31 558.353 900.71 558.404 902.128C557.981 907.099 557.307 911.052 553.314 914.532C551.95 915.72 550.436 916.843 548.868 917.737C544.464 919.752 540.62 920.945 535.84 921.669C533.977 922.059 532.222 922.099 530.324 922.122C528.332 922.429 526.453 922.437 524.441 922.404C522.749 922.497 521.163 922.427 519.476 922.278L515.87 921.95C513.79 922.035 511.997 921.762 509.965 921.332C504.752 920.436 501.003 918.802 496.48 916.099C495.835 915.721 495.813 915.729 495.122 915.209C492.932 913.559 491.778 911.819 491.469 909.109C490.251 903.628 491.244 896.525 491.102 890.838C491.148 888.072 491.151 885.305 491.11 882.537C490.816 879.991 490.765 877.7 490.905 875.149L490.607 871.767L490.629 868.575C490.436 862.205 489.262 854.075 490.749 847.94C489.631 846.434 490.273 843.999 490.503 842.236L490.289 839.994C490.037 838.46 490.483 837.456 491.016 836.041C490.928 835.899 490.821 835.767 490.751 835.615C489.798 833.537 491.534 829.689 492.197 827.61L494.536 831.676C497.681 834.463 500.699 836.371 504.555 838.073C507.629 839.152 510.683 839.811 513.875 840.438L516.801 840.687C518.718 840.875 520.602 841.018 522.529 841.035L525.113 841.016C528.152 841.117 531.241 840.542 534.252 840.159L539.886 838.795C544.228 837.015 547.756 834.883 551.421 831.951Z" fill="#909D7A"/>
<path d="M498.65 887.833L500.532 888.148L500.929 888.343L500.92 890.997C500.2 890.689 499.51 890.35 498.815 889.99L498.65 887.833Z" fill="#BAC7A8"/>
<path d="M520.097 911.198C519.964 910.431 519.909 909.982 520.101 909.207C520.299 908.409 520.502 908.492 521.155 908.093C522.187 909.115 521.89 909.199 521.923 910.578L520.097 911.198Z" fill="#7C8A68"/>
<path d="M513.997 885.205C515.22 885.461 515.471 885.351 516.411 886.245L516.395 888.278C515.415 888.067 514.924 887.851 514.142 887.224L513.997 885.205Z" fill="#7C8A68"/>
<path d="M517.885 904.686L519.237 905.511C519.673 906.94 519.441 907.142 518.919 908.571C518.294 908.067 517.794 907.709 517.413 906.98C517.024 906.236 517.614 905.433 517.885 904.686Z" fill="#7C8A68"/>
<path d="M511.135 876.697C512.359 876.901 512.658 876.845 513.539 877.688L513.414 879.839L511.829 879.41C510.804 878.396 511.144 878.079 511.135 876.697Z" fill="#7C8A68"/>
<path d="M517.312 858.414L518.508 858.075L519.394 858.593L519.673 859.771L519.068 860.6C518.116 860.678 517.926 860.681 516.997 860.304L517.312 858.414Z" fill="#7C8A68"/>
<path d="M519.923 854.35C521.193 855.092 521.556 855.151 522.168 856.461C521.807 857.282 521.733 857.517 521 858.083C520.848 857.965 520.674 857.869 520.544 857.728C519.63 856.736 519.915 855.596 519.923 854.35Z" fill="#7C8A68"/>
<path d="M530.109 873.174C531.29 873.462 531.508 873.385 532.431 874.255L532.49 876.297C531.208 876.093 530.979 876.273 530.027 875.314L530.109 873.174Z" fill="#7C8A68"/>
<path d="M519.938 896.189L521.639 896.58C522.711 897.599 522.394 897.868 522.459 899.283L520.724 898.996C519.676 898.002 519.974 897.555 519.938 896.189Z" fill="#7C8A68"/>
<path d="M540.486 893.54C540.487 892.889 540.603 892.222 540.676 891.575L541.463 891.034L543.163 891.396C542.619 892.816 542.739 893.09 541.405 893.763L540.486 893.54Z" fill="#7C8A68"/>
<path d="M519.867 863.732C519.982 862.427 519.685 862.028 520.725 861.146L522.215 861.342C522.147 862.576 522.39 862.989 521.527 863.929L519.867 863.732Z" fill="#7C8A68"/>
<path d="M539.699 887.461C539.969 888.745 540.37 889.591 539.637 890.824C539.471 891.103 539.242 891.339 539.044 891.597C538.482 890.976 538.122 890.391 537.694 889.677C538.148 888.364 538.547 888.276 539.699 887.461Z" fill="#7C8A68"/>
<path d="M522.359 887.368C523.593 888.072 524.03 888.147 524.654 889.46C524.145 890.524 524.005 890.728 523.053 891.416C522.053 889.676 522.14 889.224 522.359 887.368Z" fill="#7C8A68"/>
<path d="M520.335 901.42C521.342 902.124 522.192 902.399 522.382 903.72C522.452 904.211 522.198 905.17 522.117 905.617L520.665 904.852C519.768 903.462 520.101 903.015 520.335 901.42Z" fill="#7C8A68"/>
<path d="M532.018 889.384C532.98 888.392 533.17 888.386 534.535 888.085C534.892 889.362 535.163 889.429 534.612 890.702C533.149 890.623 533.119 890.391 532.018 889.384Z" fill="#7C8A68"/>
<path d="M550.008 902.577C549.584 902.197 549.344 901.727 549.042 901.248C549.178 900.083 549.109 900.098 549.986 899.336C551.336 899.507 551.159 899.672 552.011 900.631L550.008 902.577Z" fill="#7C8A68"/>
<path d="M526.462 894.36C527.786 893.94 528.15 893.728 529.479 894.041C530.006 895.238 529.83 895.318 529.398 896.515C529.354 896.637 529.288 896.75 529.233 896.868C527.946 896.235 527.328 895.451 526.462 894.36Z" fill="#7C8A68"/>
<path d="M538.036 876.179C539.33 876.373 539.603 876.27 540.495 877.194L540.4 879.321C539.232 879.056 538.934 879.142 538.037 878.288L538.036 876.179Z" fill="#7C8A68"/>
<path d="M530.102 884.667L532.01 885.313C532.685 886.574 532.37 886.818 532.123 888.175L530.826 887.722C529.843 886.534 530.073 886.166 530.102 884.667Z" fill="#7C8A68"/>
<path d="M540.51 908.203L542.526 908.514C543.402 909.514 543.113 910.051 543.088 911.321L541.303 910.914C540.35 909.979 540.589 909.473 540.51 908.203Z" fill="#7C8A68"/>
<path d="M496.228 840.44C496.15 838.966 496.025 838.664 496.773 837.422C498.252 837.468 498.307 837.78 499.423 838.791C498.384 839.426 497.405 840.089 496.228 840.44Z" fill="#7C8A68"/>
<path d="M515.365 863.751C515.065 862.487 514.921 862.395 515.484 861.25L516.466 861.041C517.269 861.814 517.434 861.968 517.383 863.165C517.369 863.499 517.253 863.903 517.169 864.232L515.365 863.751Z" fill="#7C8A68"/>
<path d="M538.922 910.73L540.084 911.373C540.698 912.802 540.322 913.126 539.834 914.559C539.156 914.231 538.727 913.92 538.146 913.455C538.025 912.111 538.248 911.926 538.922 910.73Z" fill="#7C8A68"/>
<path d="M510.614 890.722C511.23 891.872 511.463 892.13 511.382 893.409C510.193 894.098 510.157 893.847 508.869 893.624C508.879 893.535 508.882 893.445 508.897 893.356C509.194 891.639 509.205 891.711 510.614 890.722Z" fill="#7C8A68"/>
<path d="M535.99 855.024C537.101 855.56 537.159 855.331 537.662 856.548L537.073 857.647L535.478 858.003C535.273 857.432 535.362 857.743 535.222 856.934C535.047 855.921 535.422 855.828 535.99 855.024Z" fill="#7C8A68"/>
<path d="M535.027 879.192L537.022 879.507C537.916 880.522 537.62 881.034 537.588 882.322L535.788 881.926C534.8 880.975 535.075 880.494 535.027 879.192Z" fill="#7C8A68"/>
<path d="M503.624 890.726L505.5 891.016L506.062 891.918L505.503 894.146C504.753 893.755 504.098 893.485 503.566 892.799C503.094 892.19 503.493 891.436 503.624 890.726Z" fill="#7C8A68"/>
<path d="M521.851 907.61C522.47 906.156 522.427 905.919 523.781 905.159L524.61 905.581C524.928 906.693 524.951 907.169 524.604 908.275L521.851 907.61Z" fill="#7C8A68"/>
<path d="M531.938 858.304C533.074 858.201 534.101 858.025 535.201 858.422C535.116 859.237 534.935 859.817 534.674 860.586L533.76 861.005C532.485 860.082 532.481 859.809 531.938 858.304Z" fill="#7C8A68"/>
<path d="M497.429 868.203L499.571 867.857C500.587 868.643 500.424 868.787 500.609 870.082L499.485 870.726C498.155 870.119 498.086 869.475 497.429 868.203Z" fill="#7C8A68"/>
<path d="M524.703 860.656L526.514 861.162C527.299 862.284 527.005 863.039 526.95 864.364L525.666 863.965C524.553 862.741 524.773 862.268 524.703 860.656Z" fill="#7C8A68"/>
<path d="M501.046 893.172L502.592 893.64C503.681 894.779 503.464 895.473 503.583 897.011C503.118 896.802 502.257 896.498 501.835 896.159C500.788 895.318 501.07 894.386 501.046 893.172Z" fill="#7C8A68"/>
<path d="M527.194 876.2L529.029 876.504C530.048 877.451 529.819 877.921 529.944 879.237C528.582 879.061 528.166 879.182 527.188 878.247L527.194 876.2Z" fill="#7C8A68"/>
<path d="M535.103 890.71L537.008 891.192C537.907 892.36 537.719 892.445 537.574 893.938L535.894 893.612C534.985 892.507 535.15 892.165 535.103 890.71Z" fill="#7C8A68"/>
<path d="M516.712 876.206L518.339 876.865C519.16 878.049 518.804 878.411 518.592 879.756L516.812 879.265C516.158 878.019 516.46 877.56 516.712 876.206Z" fill="#7C8A68"/>
<path d="M514.546 855.242C515.834 855.148 515.905 854.853 516.939 855.734C516.892 856.792 516.872 857.002 516.322 857.965C515.539 857.828 515.389 857.698 514.78 857.229L514.546 855.242Z" fill="#7C8A68"/>
<path d="M538.179 905.236C539.395 905.423 539.789 905.29 540.732 906.134L540.724 908.22C539.939 908.229 539.257 908.136 538.483 908.022C537.853 907.006 538.104 906.391 538.179 905.236Z" fill="#7C8A68"/>
<path d="M529.578 881.891C529.658 883.248 529.683 883.492 529.062 884.684L528.052 884.881C526.998 883.762 527.181 883.512 527.103 881.949L529.578 881.891Z" fill="#7C8A68"/>
<path d="M543.092 881.672C544.278 881.815 544.533 881.667 545.474 882.472L545.509 884.821L543.728 884.528C542.742 883.495 543.063 883.026 543.092 881.672Z" fill="#7C8A68"/>
<path d="M523.651 881.493C524.117 882.762 524.532 883.169 524.101 884.515L522.38 885.55C522.046 884.756 521.742 884.217 521.865 883.331C521.974 882.54 523.045 881.98 523.651 881.493Z" fill="#7C8A68"/>
<path d="M492.641 840.86C493.91 840.31 494.163 839.978 495.478 840.558C495.617 840.62 495.739 840.715 495.87 840.794L496.056 842.216C495.468 842.52 494.826 842.713 494.203 842.938C492.982 842.311 493.154 842.069 492.641 840.86Z" fill="#7C8A68"/>
<path d="M532.872 910.711L534.343 911.211C535.301 912.379 535.173 912.686 535.256 914.222L533.298 913.798C532.481 912.636 532.784 912.07 532.872 910.711Z" fill="#7C8A68"/>
<path d="M501.869 907.977C501.392 906.7 501.097 906.653 501.574 905.308C502.807 905.195 502.787 905.303 503.808 906.036L503.995 906.994C503.468 907.661 503.361 907.825 502.549 908.167L501.869 907.977Z" fill="#7C8A68"/>
<path d="M532.404 853.418C533.031 852.454 532.854 852.276 534.034 851.996C534.933 852.999 535.016 853.291 535.327 854.615C534.278 854.909 534.09 854.98 532.989 854.705L532.404 853.418Z" fill="#7C8A68"/>
<path d="M500.929 888.343C502.206 888.091 502.178 887.826 503.348 888.551C503.583 889.848 503.422 889.643 502.74 890.666C502.132 890.799 501.542 890.958 500.92 890.997L500.929 888.343Z" fill="#7C8A68"/>
<path d="M533.399 869.658L534.858 870.633C535.176 871.987 534.836 872.459 534.372 873.745L532.88 872.581C532.472 871.229 532.848 870.92 533.399 869.658Z" fill="#7C8A68"/>
<path d="M501.059 873.968C500.684 872.477 500.523 872.455 501.242 871.126L502.159 870.996C503.1 871.901 503.056 872.182 503.094 873.546C503.099 873.748 503.073 873.949 503.062 874.15L501.059 873.968Z" fill="#7C8A68"/>
<path d="M522.836 851.756L524.177 852.303C525.053 853.466 524.847 853.904 524.822 855.327C524.088 855.186 523.398 854.957 522.685 854.738C522.127 853.456 522.493 853.046 522.836 851.756Z" fill="#7C8A68"/>
<path d="M540.374 886.418L541.184 885.211L542.232 885.053L542.894 885.766C542.837 886.982 542.786 887.028 542.018 887.981C540.835 887.504 540.886 887.582 540.374 886.418Z" fill="#7C8A68"/>
<path d="M527.852 904.655L529.274 905.374C529.981 906.724 529.751 906.954 529.448 908.474L527.476 907.423C527.017 906.147 527.407 905.887 527.852 904.655Z" fill="#7C8A68"/>
<path d="M524.66 884.646C525.336 884.812 526.001 885.073 526.661 885.297C527.2 886.523 526.864 887.019 526.592 888.277L525.299 887.883C524.282 886.717 524.6 886.152 524.66 884.646Z" fill="#7C8A68"/>
<path d="M508.895 867.82L511.202 868.459C511.239 869.553 511.108 869.976 510.533 870.905L509.562 870.981C508.61 869.641 508.797 869.404 508.895 867.82Z" fill="#7C8A68"/>
<path d="M540.461 860.665C541.202 860.829 541.899 861.069 542.619 861.307C543.172 862.563 542.842 862.826 542.517 864.111L541.106 863.686C540.211 862.521 540.428 862.098 540.461 860.665Z" fill="#7C8A68"/>
<path d="M549.087 880.622L550.573 881.164C551.525 882.339 551.281 882.852 551.265 884.33L549.474 883.878C548.582 882.689 548.958 882.041 549.087 880.622Z" fill="#7C8A68"/>
<path d="M532.819 875.714L534.253 876.256C535.152 877.453 534.967 877.872 534.964 879.333C534.268 879.174 533.582 878.919 532.902 878.702C532.279 877.471 532.592 877.015 532.819 875.714Z" fill="#7C8A68"/>
<path d="M542.568 905.965C543.878 905.556 544.256 905.228 545.568 905.728C545.84 906.703 545.85 907.229 545.646 908.22C544.656 908.124 545.022 908.211 544.109 907.93C543.085 907.614 543.044 906.875 542.568 905.965Z" fill="#7C8A68"/>
<path d="M505.502 870.975C504.881 870.886 504.332 870.678 503.739 870.48L503.264 869.502C503.842 868.241 504.198 868.14 505.388 867.381C505.786 868.837 506.026 869.493 505.502 870.975Z" fill="#7C8A68"/>
<path d="M542.996 857.68C544.355 857.935 544.809 857.754 545.619 858.924L545.09 861.216C544.749 861.097 544.12 860.9 543.834 860.698C542.783 859.955 543.036 858.808 542.996 857.68Z" fill="#7C8A68"/>
<path d="M509.035 898.009C510.14 897.254 510.105 897.103 511.405 897.304C511.79 898.653 511.639 899.123 511.007 900.41L509.427 899.59L509.035 898.009Z" fill="#7C8A68"/>
<path d="M532.782 863.715L534.568 864.293C535.47 865.479 535.321 865.785 535.337 867.303L533.585 866.802C532.565 865.579 532.773 865.26 532.782 863.715Z" fill="#7C8A68"/>
<path d="M535.538 885.037L537.081 885.429L537.723 886.535L537.265 887.533C536.181 887.905 535.994 887.928 534.872 887.703C535.024 886.798 535.296 885.921 535.538 885.037Z" fill="#7C8A68"/>
<path d="M530.871 866.681L532.382 867.656C532.8 869.038 532.4 869.392 531.847 870.689L530.347 869.694C529.925 868.24 530.26 868.019 530.871 866.681Z" fill="#7C8A68"/>
<path d="M537.692 848.513C538.275 847.22 538.368 846.824 539.506 846.018C540.804 846.501 540.866 846.864 541.648 848.036C539.946 848.644 539.545 848.809 537.692 848.513Z" fill="#7C8A68"/>
<path d="M530.21 907.654L531.608 908.139C532.621 909.255 532.426 909.86 532.529 911.332C531.826 911.166 531.135 910.91 530.448 910.688C529.776 909.478 530.058 908.974 530.21 907.654Z" fill="#7C8A68"/>
<path d="M548.578 907.911C548.554 909.383 548.635 909.635 547.803 910.82L546.814 910.999C545.922 910.04 546.056 909.822 545.966 908.492L548.578 907.911Z" fill="#7C8A68"/>
<path d="M543.853 845.644C544.458 845.84 545.051 846.146 545.634 846.404C546.069 847.704 545.808 847.948 545.353 849.265C544.698 849.054 544.113 848.745 543.495 848.444C543.1 847.173 543.446 846.87 543.853 845.644Z" fill="#7C8A68"/>
<path d="M538.116 863.673L539.901 864.188C540.845 865.305 540.68 865.38 540.615 866.866L538.692 866.714C537.836 865.542 538.061 865.09 538.116 863.673Z" fill="#7C8A68"/>
<path d="M508.588 893.835C508.907 895.213 509.004 895.932 508.684 897.354C508.452 897.269 508.211 897.204 507.987 897.099C506.895 896.588 506.661 896.401 506.218 895.35C507.017 894.302 507.325 894.285 508.588 893.835Z" fill="#7C8A68"/>
<path d="M531.897 890.064C532.556 891.837 532.951 892.098 532.235 893.913C530.908 893.412 530.717 893.416 529.934 892.258C530.354 890.998 530.816 890.866 531.897 890.064Z" fill="#7C8A68"/>
<path d="M498.553 852.318L500.526 852.481C501.725 853.496 501.588 854.1 501.872 855.61C501.453 855.518 500.711 855.373 500.334 855.207C498.949 854.598 498.955 853.619 498.553 852.318Z" fill="#7C8A68"/>
<path d="M538.358 851.694L539.661 852.109C540.731 853.292 540.402 853.796 540.331 855.346C539.015 855.014 538.723 855.224 537.901 854.074L538.358 851.694Z" fill="#7C8A68"/>
<path d="M497.33 875.576C497.708 876.87 498.123 877.458 497.681 878.78C496.569 879.046 496.015 878.839 494.953 878.465L495.374 876.597L497.33 875.576Z" fill="#7C8A68"/>
<path d="M546.341 902.31C547.425 902.286 547.819 902.091 548.757 902.69L549.032 904.436C548.159 904.935 547.715 904.998 546.714 904.965C546.004 903.828 546.169 903.664 546.341 902.31Z" fill="#7C8A68"/>
<path d="M527.128 887.74C528.506 887.979 529.027 887.819 529.918 888.942L529.552 890.991L527.874 890.626C526.991 889.522 527.159 889.177 527.128 887.74Z" fill="#7C8A68"/>
<path d="M513.835 905.058C514.412 906.319 514.584 906.321 514.15 907.613C513.288 908.028 512.423 908.436 511.556 908.839C511.534 908.461 511.479 907.804 511.538 907.444C511.76 906.093 512.801 905.744 513.835 905.058Z" fill="#7C8A68"/>
<path d="M512.279 893.586C512.919 893.693 513.559 893.91 514.185 894.084C514.772 895.313 514.356 895.869 514.04 897.142L512.312 896.707C511.619 895.449 512.008 894.935 512.279 893.586Z" fill="#7C8A68"/>
<path d="M516.798 864.997C517.834 864.316 518.426 864.227 519.618 863.944C519.858 865.35 520.041 865.546 519.371 866.776C518.306 866.87 518.565 867.068 517.91 866.545C517.305 866.061 517.118 865.678 516.798 864.997Z" fill="#7C8A68"/>
<path d="M539.458 869.342L540.68 870.729C540.781 872.082 540.493 872.288 539.776 873.469C539.195 872.993 538.69 872.448 538.164 871.915C538.205 870.565 538.584 870.398 539.458 869.342Z" fill="#7C8A68"/>
<path d="M519.782 853.077C519.403 854.321 519.696 853.742 518.883 854.805L517.817 854.799C517.062 853.795 517.025 853.872 517.163 852.635C518.213 851.962 518.381 852.121 519.642 852.265L519.782 853.077Z" fill="#7C8A68"/>
<path d="M529.826 914.387C531.248 914.159 531.573 913.993 532.862 914.575C533.029 915.819 532.858 915.664 532.187 916.634L530.599 916.978L529.826 914.387Z" fill="#7C8A68"/>
<path d="M535.024 897.065C536.343 896.557 536.341 896.441 537.65 896.92L538.028 897.995L537.501 898.945C536.26 899.227 536.184 899.215 535.007 898.727L535.024 897.065Z" fill="#7C8A68"/>
<path d="M503.51 849.704L504.322 847.845L506.072 847.482C506.518 848.732 506.673 848.849 506.271 850.09C504.909 850.396 504.807 850.271 503.51 849.704Z" fill="#7C8A68"/>
<path d="M538.401 881.7C539.036 881.959 539.598 882.33 540.186 882.679C540.569 883.943 540.315 884.311 539.933 885.597L538.069 884.636C537.533 883.238 537.828 883.112 538.401 881.7Z" fill="#7C8A68"/>
<path d="M519.726 873.245L521.279 873.895C521.928 875.231 521.688 875.347 521.261 876.798C520.579 876.643 519.97 876.381 519.321 876.124C518.956 874.803 519.224 874.546 519.726 873.245Z" fill="#7C8A68"/>
<path d="M522.656 863.741L524.077 864.434C524.825 865.777 524.686 865.945 524.469 867.493C523.737 867.246 523.074 866.905 522.379 866.569C521.892 865.266 522.173 865.07 522.656 863.741Z" fill="#7C8A68"/>
<path d="M535.938 872.64L537.341 873.364C537.964 874.73 537.714 875.121 537.429 876.559C536.704 876.286 536.053 875.918 535.37 875.554C535.021 874.239 535.409 873.862 535.938 872.64Z" fill="#7C8A68"/>
<path d="M504.241 896.19C504.901 896.467 505.478 896.861 506.086 897.236C506.595 898.644 506.429 898.823 506.002 900.285L504.299 899.136C503.643 897.792 503.855 897.663 504.241 896.19Z" fill="#7C8A68"/>
<path d="M513.623 850.862C514.071 852.324 514.406 852.704 513.851 854.169L512.631 855.12L511.566 852.933C511.986 851.623 512.483 851.572 513.623 850.862Z" fill="#7C8A68"/>
<path d="M538.348 857.652C538.948 857.85 539.537 858.173 540.11 858.44C540.661 859.774 540.308 860.276 539.95 861.644L538.046 860.395C537.61 859.091 537.839 858.956 538.348 857.652Z" fill="#7C8A68"/>
<path d="M539.061 898.902L540.343 899.7C540.986 900.954 540.772 901.177 540.488 902.583C539.609 902.36 538.98 902.078 538.202 901.615C537.965 900.237 538.308 900.105 539.061 898.902Z" fill="#7C8A68"/>
<path d="M543.167 910.684L545.018 911.178C545.974 912.333 545.743 912.589 545.683 914.112L543.753 913.829C542.785 912.713 543.121 912.095 543.167 910.684Z" fill="#7C8A68"/>
<path d="M550.866 860.477L553.837 859.592C554.426 860.902 554.386 860.904 553.891 862.294C553.728 862.753 553.539 863.202 553.356 863.654C551.78 862.512 551.633 862.174 550.866 860.477Z" fill="#7C8A68"/>
<path d="M549.918 863.013L551.327 863.408C551.585 864.622 551.39 864.924 550.97 866.114C549.756 866.001 549.716 866.229 548.828 865.293C548.878 864.215 549.247 863.829 549.918 863.013Z" fill="#7C8A68"/>
<path d="M522.963 869.699C523.858 870.222 524.034 870.435 524.609 871.248C524.435 872.562 524.245 872.655 523.334 873.648C522.77 873.418 522.503 873.142 522.06 872.736C522.006 871.325 522.325 870.927 522.963 869.699Z" fill="#7C8A68"/>
<path d="M519.929 852.078L519.282 850.583L519.783 849.761L521.582 849.463L522.199 851.05L521.654 851.836L519.929 852.078Z" fill="#7C8A68"/>
<path d="M549.256 892.479C548.047 892.895 547.817 892.99 546.579 892.737L546.049 891.728L546.527 890.569L547.706 890.182L548.978 890.863L549.256 892.479Z" fill="#7C8A68"/>
<path d="M526.578 911.227C528.033 911.102 528.506 910.864 529.774 911.652C529.879 912.604 529.912 913.031 529.668 913.981L527.852 913.934C527.319 913.13 526.973 912.111 526.578 911.227Z" fill="#7C8A68"/>
<path d="M553.266 865.441L554.346 865.895L553.427 869.167C552.634 868.903 552.041 868.647 551.312 868.264L551.062 866.603L553.266 865.441Z" fill="#7C8A68"/>
<path d="M522.072 910.933C523.566 911.036 523.68 910.989 524.807 911.95C524.703 913.114 524.87 913.001 524.029 913.963L522.68 914.212C522.289 913.107 522.204 912.089 522.072 910.933Z" fill="#7C8A68"/>
<path d="M529.643 860.776L531.531 861.067C532.645 862.01 532.511 862.602 532.768 864.006L530.958 863.953C529.714 863.01 529.903 862.277 529.643 860.776Z" fill="#7C8A68"/>
<path d="M511.734 859.924C512.337 858.665 512.232 858.356 513.521 857.879C514.705 858.676 514.999 859.237 515.603 860.474C513.724 860.944 513.401 860.879 511.734 859.924Z" fill="#7C8A68"/>
<path d="M543.712 863.248C544.391 863.406 544.987 863.685 545.628 863.955C546.023 865.256 545.691 865.542 545.18 866.823C544.575 866.631 543.979 866.307 543.401 866.042C543.004 864.789 543.274 864.51 543.712 863.248Z" fill="#7C8A68"/>
<path d="M519.838 866.657L521.495 867.188C522.433 868.342 522.206 868.761 522.184 870.21C521.235 870.167 520.75 870.04 519.874 869.735C519.369 868.49 519.636 867.938 519.838 866.657Z" fill="#7C8A68"/>
<path d="M541.518 872.207C542.249 872.594 542.553 872.919 543.105 873.516C543.172 874.882 542.889 875.262 542.268 876.506L541.031 875.745C540.454 874.338 541.036 873.615 541.518 872.207Z" fill="#7C8A68"/>
<path d="M505.898 871.202C507.273 871.153 507.5 870.972 508.567 871.804C508.565 873.021 508.519 872.988 507.72 873.92L506.054 874.409L505.898 871.202Z" fill="#7C8A68"/>
<path d="M558.208 886.624C558.552 888.669 558.482 890.236 557.984 892.245C556.738 891.521 556.595 891.637 556.213 890.275C556.848 889.042 557.513 887.825 558.208 886.624Z" fill="#D8AE56"/>
<path d="M543.013 851.866L545.192 851.928C545.305 852.178 545.448 852.418 545.531 852.68C545.886 853.79 545.739 854.021 545.147 854.909L544.07 854.965C542.912 853.765 543.104 853.477 543.013 851.866Z" fill="#7C8A68"/>
<path d="M548.849 862.478C548.236 862.749 547.616 862.993 546.992 863.239L545.981 862.743L545.971 861.615C546.917 860.47 547.157 860.498 548.614 860.098L548.849 862.478Z" fill="#7C8A68"/>
<path d="M498.65 887.833C498.209 886.694 498.078 886.635 498.45 885.492L499.509 884.966L500.588 885.34C501.057 886.649 500.927 886.792 500.532 888.148L498.65 887.833Z" fill="#7C8A68"/>
<path d="M493.564 851.526L495.896 852.152C496.269 853.116 496.605 854.108 497.077 855.028C496.117 854.907 495.18 854.692 494.234 854.494C493.289 853.286 493.489 853.085 493.564 851.526Z" fill="#7C8A68"/>
<path d="M527.129 870.206C527.944 870.291 528.603 870.463 529.386 870.688C530.057 871.939 529.853 872.114 529.566 873.531L527.865 873.136C526.956 872.012 527.143 871.675 527.129 870.206Z" fill="#7C8A68"/>
<path d="M521.469 858.718L523.52 858.144C524.521 858.711 524.557 858.658 524.937 859.732L524.389 860.803C523.784 860.963 523.241 861.126 522.614 861.165L521.469 858.718Z" fill="#7C8A68"/>
<path d="M542.576 901.439C543.328 900.246 543.467 899.766 544.77 899.157C546.045 899.982 545.944 900.268 546.407 901.743C544.615 902.326 544.269 902.147 542.576 901.439Z" fill="#7C8A68"/>
<path d="M535.591 866.635L537.536 867.296C538.36 868.382 538.209 868.543 538.15 869.929C537.238 869.989 536.775 869.929 535.907 869.732C535.174 868.506 535.433 868.024 535.591 866.635Z" fill="#7C8A68"/>
<path d="M517.523 870.093C518.422 870.436 518.551 870.574 519.165 871.26C519.029 872.714 518.595 873.098 517.755 874.26L516.695 873.914C516.382 872.357 516.954 871.551 517.523 870.093Z" fill="#7C8A68"/>
<path d="M546.93 865.63L548.482 866.178C549.119 867.543 548.711 867.898 548.241 869.287C547.566 869.133 546.959 868.875 546.315 868.625C545.917 867.222 546.323 866.915 546.93 865.63Z" fill="#7C8A68"/>
<path d="M549.918 893.006L551.535 893.531L551.865 894.464C551.452 895.237 551.047 896.012 550.606 896.769C550.101 896.368 549.645 895.873 549.182 895.424C549.105 894.173 549.241 894.083 549.918 893.006Z" fill="#7C8A68"/>
<path d="M498.831 895.666C499.466 895.864 500.009 896.178 500.598 896.485C501.13 897.919 500.923 898.329 500.619 899.792L498.679 898.434C498.101 897.088 498.307 897.063 498.831 895.666Z" fill="#7C8A68"/>
<path d="M548.694 868.64L550.274 868.865C551.437 870.071 551.061 870.903 551.042 872.536L549.345 871.914C548.356 870.724 548.649 870.15 548.694 868.64Z" fill="#7C8A68"/>
<path d="M527.199 857.665L528.912 858.203C529.95 859.363 529.799 859.741 529.915 861.251L527.728 860.884C526.78 859.739 527.113 859.113 527.199 857.665Z" fill="#7C8A68"/>
<path d="M511.579 901.035C512.666 900.205 512.777 899.922 514.12 899.943C514.545 901.564 514.245 902.022 513.45 903.515C511.958 902.587 511.975 902.732 511.579 901.035Z" fill="#7C8A68"/>
<path d="M529.7 896.971L531.254 896.353C532.458 896.884 532.434 896.788 532.923 897.999C532.648 898.656 532.524 898.991 532.009 899.502C531.072 899.354 531.329 899.485 530.621 899.098C529.867 898.685 529.911 897.764 529.7 896.971Z" fill="#7C8A68"/>
<path d="M510.758 890.255C511.449 888.998 511.492 888.548 512.831 887.943C514.123 889.055 514.158 889.73 514.456 891.412C513.123 891.279 511.984 890.756 510.758 890.255Z" fill="#7C8A68"/>
<path d="M506.415 846.418C506.569 845.731 506.793 845.29 507.115 844.671L509.025 844.263C509.165 845.715 509.317 845.995 508.607 847.24C507.642 847.438 507.477 847.457 506.479 847.172L506.415 846.418Z" fill="#7C8A68"/>
<path d="M506.194 887.67L508.014 888.098C509.017 889.301 508.809 889.738 508.833 891.265L506.728 890.852C505.771 889.706 506.122 889.095 506.194 887.67Z" fill="#7C8A68"/>
<path d="M535.154 902.201C535.845 902.271 536.541 902.449 537.222 902.585C538.099 903.754 537.866 904.38 537.855 905.813L535.961 905.211C534.989 904.024 535.164 903.763 535.154 902.201Z" fill="#7C8A68"/>
<path d="M495.317 882.202L497.216 882.178L498.064 883.022L498.017 884.193C497.249 884.777 497.322 884.995 496.305 884.859C495.332 884.729 495.713 884.827 494.88 884.486L495.317 882.202Z" fill="#7C8A68"/>
<path d="M509.048 854.201C509.739 854.348 510.421 854.592 511.097 854.798C511.954 855.954 511.848 856.331 511.923 857.793L509.853 857.245C508.946 856.054 509.091 855.66 509.048 854.201Z" fill="#7C8A68"/>
<path d="M527.752 863.727C528.457 863.999 528.965 864.338 529.592 864.754C530.008 866.2 529.785 866.336 529.195 867.75L527.487 866.714C526.981 865.293 527.214 865.165 527.752 863.727Z" fill="#7C8A68"/>
<path d="M537.576 848.93C537.887 850.191 537.987 850.397 537.573 851.608L536.492 852.103L535.373 851.657L535.034 850.534L535.744 849.239L537.576 848.93Z" fill="#7C8A68"/>
<path d="M535.05 860.716C535.814 860.843 536.581 861.069 537.331 861.254C538.078 862.434 537.907 862.924 537.868 864.292L535.971 863.875C534.858 862.752 535.111 862.255 535.05 860.716Z" fill="#7C8A68"/>
<path d="M543.903 875.192C544.505 875.487 545.093 875.908 545.663 876.263C545.961 877.705 545.623 878.005 545.013 879.307C544.321 879.036 543.838 878.676 543.235 878.25C543.038 876.837 543.306 876.515 543.903 875.192Z" fill="#7C8A68"/>
<path d="M544.514 868.683C545.398 869.217 545.528 869.411 546.06 870.248C546.092 871.563 545.592 872.062 544.853 873.081L543.476 871.668C543.259 870.136 543.68 869.937 544.514 868.683Z" fill="#7C8A68"/>
<path d="M544.432 892.717C544.937 893.108 545.407 893.637 545.865 894.085C545.957 895.533 545.463 895.956 544.719 897.171C544.1 896.632 543.623 896.068 543.095 895.443C543.171 894.075 543.61 893.779 544.432 892.717Z" fill="#7C8A68"/>
<path d="M547.013 895.664C547.679 895.902 548.133 896.203 548.72 896.589C549.117 897.968 548.831 898.394 548.416 899.738C547.658 899.434 547.016 899.043 546.316 898.628C546.002 897.235 546.396 896.914 547.013 895.664Z" fill="#7C8A68"/>
<path d="M496.418 848.993C497.895 849.111 498.21 848.976 499.225 850.105C499.319 850.21 499.389 850.334 499.472 850.449C498.349 851.797 498.168 851.965 496.369 852.135C495.971 850.868 496.078 850.265 496.418 848.993Z" fill="#7C8A68"/>
<path d="M508.634 847.734L510.814 847.978C511.933 848.854 511.833 849.248 512.177 850.649C511.409 850.878 510.761 850.945 509.967 851.017C508.875 850.083 508.944 849.098 508.634 847.734Z" fill="#7C8A68"/>
<path d="M542.591 888.216C544.025 887.72 544.252 887.442 545.721 887.982C546.049 889.258 545.816 889.14 545.204 890.224C544.633 890.565 544.095 890.937 543.467 891.162L542.591 888.216Z" fill="#7C8A68"/>
<path d="M546.946 871.746L548.505 872.768C549.04 874.18 548.846 874.352 548.404 875.824C547.326 875.624 546.88 875.413 546.057 874.688C545.988 873.332 546.303 872.967 546.946 871.746Z" fill="#7C8A68"/>
<path d="M553.257 883.408C553.743 883.878 554.511 884.276 554.468 885.004C554.413 885.922 553.914 886.558 553.456 887.322L551.769 887.454C551.657 887.072 551.424 886.36 551.418 885.975C551.396 884.654 552.368 884.178 553.257 883.408Z" fill="#7C8A68"/>
<path d="M496.431 842.356C497.791 843.047 498.32 843.488 499.207 844.729C498.15 845.693 498.015 845.834 496.619 846.074L495.845 845.448C495.628 843.938 495.772 843.755 496.431 842.356Z" fill="#7C8A68"/>
<path d="M535.743 842.722L539.009 843.285L538.872 844.045C538.206 845.326 538.156 845.525 536.908 846.213L536.069 845.962C535.264 844.538 535.488 844.285 535.743 842.722Z" fill="#7C8A68"/>
<path d="M515.807 866.725C516.461 867.114 516.806 867.534 517.308 868.095C517.171 869.631 516.565 870.081 515.628 871.275L514.232 870.639C514.032 869.004 514.976 868.112 515.807 866.725Z" fill="#7C8A68"/>
<path d="M493.167 844.854C494.3 845.48 495.54 845.832 495.919 847.212C496.032 847.624 496.049 848.474 496.069 848.919C494.979 849.06 494.466 848.965 493.451 848.548C492.822 847.213 493.068 846.31 493.167 844.854Z" fill="#7C8A68"/>
<path d="M511.371 868.169L511.252 866.811C511.952 865.502 512.337 864.744 513.722 864.034L514.997 864.507C514.764 865.77 514.708 866.483 513.559 867.292C512.962 867.712 512.08 867.989 511.371 868.169Z" fill="#7C8A68"/>
<path d="M512.358 844.068C513.56 844.299 514.114 844.405 514.97 845.305C514.97 846.757 514.45 847.29 513.712 848.517L512.044 847.91C511.492 846.393 511.957 845.606 512.358 844.068Z" fill="#7C8A68"/>
<path d="M518.963 848.17C519.55 847.115 519.196 847.55 520.075 846.757C521.192 845.749 522.144 844.623 523.125 843.485L524.707 845.374C523.27 846.985 522.369 846.07 521.932 848.582L521.523 849.112L518.963 848.17Z" fill="#BAC7A8"/>
<path d="M548.965 845.611L550.648 846.081C550.733 847.438 550.914 847.836 549.841 848.836C549.583 849.076 549.196 849.262 548.884 849.428C548.218 850.618 548.104 851.371 546.803 851.923C546.079 851.531 545.766 851.329 545.195 850.703C546.109 849.458 547.028 848.897 548.329 848.142C548.31 847.255 548.685 846.446 548.965 845.611Z" fill="#7C8A68"/>
<path d="M511.231 860.305L512.153 862.203C510.698 864.503 508.985 865.665 507.897 868.361C506.515 867.833 506.167 867.385 505.336 866.234C506.954 865.047 509.471 863.285 510.085 861.332C510.134 861.175 510.16 861.012 510.197 860.852L511.231 860.305Z" fill="#7C8A68"/>
<path d="M490.607 871.767C492.177 872.998 492.198 873.74 493.247 875.179C493.42 875.416 493.695 875.557 493.918 875.747L495.565 875.169C495.403 874.059 495.537 874.627 495.132 873.47C496.067 873.017 496.515 873.473 497.463 873.796L497.935 874.44C497.787 874.769 497.616 875.362 497.33 875.576L495.374 876.597L494.953 878.465C493.031 878.103 492.718 876.332 490.905 875.149L490.607 871.767Z" fill="#BAC7A8"/>
<path d="M540.082 842.747C541.803 841.226 542.706 838.502 544.91 837.633C544.949 837.972 545.013 838.428 544.993 838.76C544.899 840.329 543.961 840.739 542.867 841.717C542.016 842.947 541.079 844.95 539.618 845.254C539.324 844.847 539.056 844.515 538.872 844.045L539.009 843.285L535.743 842.722L535.956 841.618L534.352 840.642L534.252 840.159L539.886 838.795C539.833 838.969 539.785 839.145 539.726 839.318C539.485 840.027 539.16 840.583 538.774 841.217C539.191 842.066 539.263 842.156 540.082 842.747Z" fill="#BAC7A8"/>
<path d="M522.529 841.035L525.113 841.016C524.236 841.695 523.977 842.137 523.576 843.166L523.125 843.485C522.144 844.623 521.192 845.749 520.075 846.757C519.196 847.55 519.55 847.115 518.963 848.17C518.559 848.632 518.171 849.103 517.774 849.57C517.237 850.202 516.677 850.724 516.057 851.27L515.113 851.328C514.488 850.615 514.36 850.399 514.042 849.45C517.292 846.924 519.779 844.063 522.529 841.035Z" fill="#7C8A68"/>
<path d="M552.558 840.325C552.726 840.149 552.9 839.978 553.062 839.797C553.61 839.187 553.833 838.796 554.242 838.138C554.815 837.215 555.05 837.014 556 836.561L556.942 836.598C557.072 837.678 556.813 838.456 556.076 839.281C555.557 839.862 554.789 840.332 554.146 840.769L553.753 842.082L554.86 842.566C556.174 842.273 556.813 840.663 557.567 839.564L557.831 840.008C557.78 841.773 557.538 843.031 556.289 844.372C555.721 844.983 554.908 845.76 554.068 845.744C552.427 845.917 552.085 845.997 550.525 845.288L550.648 846.081L548.965 845.611C548.302 843.862 548.149 843.718 546.638 842.605L546.616 841.846L547.361 841.407C548.13 842.229 548.632 842.678 549.68 843.101L550.742 842.253C551.272 841.137 551.48 841.11 552.573 840.491L552.558 840.325Z" fill="#BAC7A8"/>
<path d="M552.245 842.676C553.437 843.642 553.789 843.76 554.051 845.316C554.074 845.456 554.062 845.601 554.068 845.744C552.427 845.917 552.085 845.997 550.525 845.288L552.245 842.676Z" fill="#7C8A68"/>
<path d="M555.918 876.58L557.29 876.403C558.12 877.514 558.041 878.583 558.447 879.827C558.531 881.989 558.686 883.927 557.838 885.965C556.958 886.726 556.166 887.45 555.398 888.33L554.897 888.398L553.456 887.322C553.914 886.558 554.413 885.922 554.468 885.004C554.511 884.276 553.743 883.878 553.257 883.408C553.281 883.391 553.308 883.379 553.328 883.359C554.232 882.419 555.23 881.489 555.356 880.14C553.748 879.867 553.093 881.093 551.129 880.887L551.19 879.807C551.355 879.658 551.542 879.529 551.686 879.359C551.828 879.19 551.922 878.986 552.041 878.799C553.325 878.583 552.686 878.624 553.958 878.665L555.482 877.999L555.918 876.58Z" fill="#D8AE56"/>
<path d="M499.423 838.791L500.239 838.052L501.649 838.756L502.815 838.834C503.198 840.012 503.031 839.876 502.582 840.943L503.216 840.547C503.516 839.874 503.817 839.26 504.204 838.629C504.318 838.442 504.438 838.258 504.555 838.073C507.629 839.152 510.683 839.811 513.875 840.438L516.801 840.687C515.116 842.635 514.68 843.648 511.972 843.904C510.685 844.441 510.755 844.402 509.438 843.918L509.025 844.263L507.115 844.671C506.793 845.29 506.569 845.731 506.415 846.418L504.992 846.748L504.425 846.214C504.142 846.345 503.871 846.507 503.575 846.606C502.231 847.059 501.495 846.401 500.331 845.825L499.429 845.688L499.207 844.729C498.32 843.488 497.791 843.047 496.431 842.356L496.056 842.216L495.87 840.794L496.228 840.44C497.405 840.089 498.384 839.426 499.423 838.791Z" fill="#BAC7A8"/>
<path d="M500.331 845.825C501.127 844.685 501.215 844.318 502.498 843.847C503.641 844.583 503.779 844.994 504.425 846.214C504.142 846.345 503.871 846.507 503.575 846.606C502.231 847.059 501.495 846.401 500.331 845.825Z" fill="#7C8A68"/>
<path d="M509.438 843.918C509.452 842.883 509.549 842.63 509.972 841.731C511.12 841.466 511.137 841.579 512.203 842.123L511.972 843.904C510.685 844.441 510.755 844.402 509.438 843.918Z" fill="#7C8A68"/>
<path d="M503.797 840.788L505.554 841.3C506.56 842.45 506.422 842.712 506.516 844.265C505.591 844.292 504.931 844.164 504.045 843.899C503.335 842.7 503.648 842.121 503.797 840.788Z" fill="#7C8A68"/>
<path d="M501.649 838.756L502.815 838.834C503.198 840.012 503.031 839.876 502.582 840.943C500.822 841.362 501.432 842.385 500.043 843.439C498.954 842.914 498.928 843.087 498.311 841.945C498.613 841.091 498.783 840.915 499.553 840.373C500.806 839.49 499.97 840.179 501.113 839.22C501.294 839.068 501.471 838.911 501.649 838.756Z" fill="#7C8A68"/>
<path d="M491.11 882.537C492.129 881.904 492.45 880.915 492.948 879.872C493.304 879.127 493.464 879.22 494.184 878.885L495.866 879.735L494.976 881.842L495.317 882.202L494.88 884.486L494.392 884.986L495.125 886.305C494.462 888.462 491.975 888.72 491.41 890.923L492.317 891.927C493.48 891.806 492.964 891.984 493.787 891.532C494.421 891.183 494.734 891.146 495.443 891.116L495.731 891.566L495.124 892.738L493.6 893.106C493.271 894.142 493.109 894.727 493.67 895.781C493.81 896.043 494.033 896.25 494.215 896.484C495.036 895.228 495.816 893.533 497.228 892.9C498.351 893.404 498.183 893.525 498.703 894.568C498.13 895.453 498.383 895.362 497.278 895.709C496.504 895.953 496.017 896.143 495.356 896.573L495.079 897.418L495.5 898.7L497.472 898.721C498.476 899.75 498.413 899.829 498.565 901.277L497.976 902.421C496.872 902.153 497.383 902.433 496.575 901.572C495.699 900.639 494.698 899.912 493.667 899.163L493.048 899.513C492.998 900.691 494.241 901.841 495.014 902.717C495.723 903.521 496.536 904.373 497.452 904.936C497.999 905.365 498.762 905.643 498.789 906.389C498.819 907.222 498.485 907.774 498.14 908.503C496.922 907.987 496.43 907.488 495.604 906.464L494.215 905.978L494.167 903.953L492.098 902.757C491.161 904.599 491.678 907.045 491.469 909.109C490.251 903.628 491.244 896.525 491.102 890.838C491.148 888.071 491.151 885.304 491.11 882.537Z" fill="#7C8A68"/>
<path d="M494.392 884.986C493.172 884.52 493.162 884.616 492.601 883.453C493.438 882.106 493.421 882.231 494.976 881.842L495.317 882.202L494.88 884.486L494.392 884.986Z" fill="#BAC7A8"/>
<path d="M558.318 892.611C558.492 895.014 558.347 896.799 557.666 899.113C558.386 900.31 558.353 900.71 558.404 902.128C557.981 907.099 557.307 911.052 553.314 914.532C551.95 915.72 550.436 916.843 548.868 917.737C547.813 916.918 546.642 916.243 546.019 915.044C546.996 914.141 548.012 913.337 548.533 912.079C548.942 911.091 549.198 911.12 550.099 910.523C549.088 909.665 549.248 909.553 549.109 908.21L548.578 907.911C548.72 906.846 549.092 905.766 549.368 904.726L549.032 904.436L548.757 902.69L550.008 902.577L552.011 900.631L552.418 899.543L551.702 898.148C552.448 896.33 553.651 895.685 555.418 894.917C555.593 894.902 555.77 894.904 555.942 894.872C557.399 894.596 557.567 893.777 558.318 892.611Z" fill="#D8AE56"/>
<path d="M552.418 899.543L554.021 899.871L554.314 900.708C553.488 901.477 552.698 902.172 551.777 902.83L551.533 904.582L554.455 905.838C553.207 908.316 551.342 907.836 550.099 910.523C549.088 909.665 549.248 909.553 549.109 908.21L548.578 907.911C548.72 906.846 549.092 905.766 549.368 904.726L549.032 904.436L548.757 902.69L550.008 902.577L552.011 900.631L552.418 899.543Z" fill="#BAC7A8"/>
<path d="M549.368 904.726L551.718 905.584C551.471 906.382 551.408 907.435 550.642 907.827C549.861 908.227 550.141 908.092 549.109 908.21L548.578 907.911C548.72 906.846 549.092 905.766 549.368 904.726Z" fill="#7C8A68"/>
<path d="M491.469 909.109C491.678 907.045 491.161 904.599 492.098 902.757L494.167 903.953L494.215 905.978L495.604 906.464C496.43 907.488 496.922 907.987 498.14 908.503L498.89 909.941C499.143 908.805 498.917 908.668 499.93 907.983L501.681 908.362L501.869 907.977L502.549 908.167L503.898 908.579C503.971 908.762 504.026 908.954 504.118 909.128C504.771 910.377 506.816 912.509 508.159 912.994C508.329 913.055 508.511 913.071 508.687 913.109C509.712 912.178 509.764 911.889 510.174 910.547C511.999 911.445 511.824 912.703 513.503 913.75C514.608 913.089 515.182 912.335 515.98 911.349L516.516 911.41C516.604 911.679 516.681 911.953 516.78 912.218C517.148 913.199 517.41 913.505 518.177 914.161C519.2 914.599 519.558 915.228 520.22 916.061C520.723 916.694 520.565 916.48 521.384 917.115C522.167 916.179 522.352 915.363 522.68 914.212L524.029 913.963C524.423 915.533 525.027 916.029 526.222 916.997C527.534 916.043 527.58 915.462 527.852 913.934L529.668 913.981L529.826 914.387L530.599 916.978L532.187 916.634L533.325 918.941L534.442 919.125C535.814 917.839 534.618 919.104 535.637 917.581C536.316 916.567 538.73 914.693 539.807 914.567C539.349 917.266 536.169 918.784 535.84 921.669C533.977 922.059 532.222 922.099 530.324 922.122C528.332 922.429 526.453 922.437 524.441 922.404C522.749 922.497 521.163 922.427 519.476 922.278L515.87 921.95C513.79 922.035 511.997 921.762 509.965 921.332C504.752 920.436 501.003 918.802 496.48 916.099C495.835 915.721 495.813 915.729 495.122 915.209C492.932 913.559 491.778 911.819 491.469 909.109Z" fill="#BAC7A8"/>
<path d="M501.58 910.717L503.845 911.25C504.496 912.422 504.314 912.51 504.012 913.842L502.495 913.786C501.435 912.664 501.651 912.219 501.58 910.717Z" fill="#7C8A68"/>
<path d="M498.89 909.941C499.143 908.805 498.917 908.668 499.93 907.983L501.681 908.362C501.529 909.655 501.761 909.972 500.778 910.9C500.171 910.786 499.577 910.71 498.999 910.486L498.89 909.941Z" fill="#7C8A68"/>
<path d="M509.965 921.332C510.28 919.648 511.241 918.71 512.323 917.463C513.628 917.025 513.679 917.113 514.993 917.575C515.687 918.527 516.244 919.397 516.736 920.468L515.87 921.95C513.79 922.035 511.997 921.762 509.965 921.332Z" fill="#D8AE56"/>
<path d="M521.776 917.918C522.718 916.991 522.627 916.88 523.927 916.884C524.56 917.56 525.113 918.184 525.678 918.911C526.229 919.62 526.901 919.961 527.658 920.411C526.476 920.976 525.354 921.43 524.441 922.404C522.749 922.497 521.163 922.427 519.476 922.278L519.992 920.348C520.963 919.541 521.465 919.168 521.776 917.918Z" fill="#909D7A"/>
<path d="M491.469 909.109C491.678 907.045 491.161 904.599 492.098 902.757L494.167 903.953L494.215 905.978C494.54 907.347 495.03 907.821 495.973 908.802L496.086 909.742C495.9 909.919 495.711 910.091 495.53 910.272C494.971 910.831 494.705 911.181 494.373 911.872L495.101 912.731C497.119 912.097 495.695 911.108 498.644 910.743C498.818 911.694 499.126 912.004 498.566 912.849C497.899 913.856 498.24 913.36 497.415 914.269C496.795 914.953 496.661 915.222 496.48 916.099C495.835 915.721 495.813 915.729 495.122 915.209C492.932 913.559 491.778 911.819 491.469 909.109Z" fill="#909D7A"/>
<path d="M510.099 409.475C505.556 404.606 499.725 400.83 494.92 396.189C480.237 382.011 469.237 362.376 463.863 342.768C463.47 341.33 463.115 339.883 462.799 338.425C462.483 336.968 462.206 335.503 461.967 334.031C461.729 332.56 461.53 331.083 461.37 329.6C461.21 328.118 461.09 326.632 461.009 325.143C460.928 323.655 460.887 322.165 460.886 320.673C460.884 319.183 460.922 317.693 461 316.203C461.077 314.715 461.194 313.229 461.351 311.746C461.508 310.264 461.704 308.786 461.939 307.313C468.684 263.677 511.072 250.586 545.224 232.841C567.583 221.224 588.899 208.725 606.472 190.383C621.733 174.455 634.353 153.881 640.644 132.781C643.546 123.044 645.408 112.2 650.566 103.362C656.279 93.5719 665.547 89.213 676.19 86.4873C676.919 94.7355 678.037 102.967 679.033 111.187C680.087 119.893 680.541 129.67 683.755 137.881C676.707 148.278 673.715 156.921 673.645 169.534C662.144 181.294 652.843 197.717 653.035 214.598C653.071 217.707 653.448 220.846 653.991 223.904C650.11 233.192 646.356 242.572 641.884 251.595C633.043 269.432 622.683 286.407 612.888 303.711C605.929 316.004 599.525 329.012 591.457 340.622C586.836 347.271 580.782 352.7 575.491 358.783C564.732 371.154 556.544 384.547 549.445 399.287C536.695 403.394 523.215 406.733 510.099 409.475Z" fill="#BAC7A8"/>
<path d="M678.318 85.559C715.629 77.1662 758.335 86.3297 790.416 106.607C794.882 109.43 802.028 113.374 805.217 117.586L806.666 118.744C817.691 125.207 829.878 138.306 838.514 147.827C850.379 160.907 861.403 174.224 871.573 188.676C887.227 210.92 900.693 234.942 913.486 258.905C936.569 302.143 957.746 346.622 970.178 394.234C983.9 446.783 988.739 502.226 969.479 554.104C964.17 568.404 957.033 581.865 949.334 594.998C932.489 623.73 905.499 655.186 872.11 663.851C854.832 668.335 839.626 663.464 824.637 654.447C804.165 642.132 786.677 620.281 772.715 601.08C769.384 596.499 763.955 585.951 759.629 583.146C736.85 591.793 700.526 610.583 683.929 628.175C693.103 634.708 704.585 639.809 715.358 642.981C725.975 646.108 737.161 647.896 748.008 650.088C753.178 651.133 758.996 651.884 763.863 653.95C765.332 654.574 766.397 655.665 767.518 656.769C783.76 657.938 800.139 660.701 816.183 663.447C832.005 666.156 847.86 668.752 863.444 672.652C887.1 678.572 929.729 693.178 945.561 711.443C949.417 715.892 952.319 721.54 951.698 727.577C950.753 736.753 942.683 744.14 935.773 749.435C895.554 780.249 835.78 783.798 787.156 778.654C776.444 777.521 765.77 775.937 755.094 774.498C748.352 773.59 741.462 772.412 734.647 772.376C740.889 778.588 755.4 795.073 755.278 803.755C755.197 809.562 751.459 814.747 747.356 818.559C742.063 823.479 735.492 826.586 729.058 829.715C752.884 833.299 777.005 844.632 791.602 864.423C800.523 876.517 806.707 892.277 804.308 907.499C803.097 915.186 799.47 921.966 793.041 926.553C781.715 934.633 764.857 933.951 751.873 931.528C740.108 929.333 729.087 925.136 718.133 920.452C691.989 934.439 666.634 940.315 637.468 931.449C626.223 928.031 610.352 920.903 604.708 909.77C602.145 904.712 604.127 898.787 605.912 893.79C612.483 875.395 633.426 838.801 651.082 830.118C644.284 824.915 638.04 818.429 636.988 809.486C636.343 803.995 638.302 799.145 641.68 794.892C653.201 780.385 687.593 769.316 706.006 767.63C714.617 766.842 722.357 767.372 730.566 770.142C733.723 761.013 737.001 751.894 739.893 742.678C745.879 723.599 751.297 704.252 756.607 684.973C758.859 676.798 761.917 668.167 763.491 659.867C763.746 658.518 763.91 657.777 763.326 656.549C757.141 652.972 727.722 648.485 718.203 646.104C705.78 642.996 692.488 636.869 681.565 630.145C667.82 644.972 657.225 664.8 648.759 683.092C645.37 690.414 642.536 698.126 638.695 705.216C633.14 715.47 625.443 725.766 616.968 733.735C606.826 743.272 593.873 750.962 582.564 759.111C567.611 769.886 552.674 780.526 537.419 790.871C529.502 796.24 521.703 801.915 513.263 806.454C497.249 800.967 481.775 795.937 464.996 793.258C446.874 790.365 428.457 790.126 410.203 788.557C397.77 787.489 385.523 785.394 373.262 783.106C337.369 776.159 301.825 767.743 266.628 757.858C246.217 752.099 226.288 744.842 205.514 740.402C197.724 738.759 189.91 737.24 182.072 735.846C173.738 734.431 131.294 729.168 127.336 725.714L127.516 724.973C148.086 716.177 168.491 707.385 188.445 697.208C206.516 687.993 223.955 677.616 241.422 667.323C237.738 665.617 233.567 664.645 229.764 663.168C222.038 660.169 210.237 654.54 203.752 649.496C190.065 647.475 176.132 647.461 162.461 645.247C141.981 641.93 121.759 635.567 101.602 630.641C92.2976 628.367 80.964 627.093 72.3189 623.04L72.0917 622.363C75.0756 619.904 90.2806 614.682 95.2266 612.454C112.682 604.592 130.647 596.383 147.31 586.968C142.224 578.068 136.003 569.696 130.531 561.012C116.413 538.606 102.557 515.818 91.2125 491.859C64.781 436.035 40.6621 336.954 62.2902 277.177C72.069 250.149 94.8275 228.121 120.669 216.168C149.839 202.676 181.065 204.157 210.681 214.906C213.833 203.317 218.421 192.054 222.955 180.951C215.492 167.898 190.666 122.336 190.977 108.818L191.439 107.955C193.82 110.463 196.309 120.599 197.83 124.433C201.891 134.664 217.625 170.508 224.108 176.927C224.249 176.801 224.387 176.673 224.53 176.55C225.198 175.978 224.935 176.184 225.794 175.712C226.622 176.656 226.63 176.602 226.533 177.897C226.467 178.77 226.299 179.625 226.146 180.486C228.77 187.897 238.384 196.336 245.415 199.595C246.181 199.952 246.955 200.291 247.737 200.612C244.023 193.781 239.944 187.243 238.329 179.551C242.887 167.112 257.929 152.261 269.942 146.733C279.033 142.549 289.735 141.323 299.233 144.894C308.625 148.425 313.44 155.407 317.343 164.203C323.153 177.299 327.703 191.172 335.95 203.039C338.439 206.677 341.094 210.189 343.916 213.575C346.738 216.961 349.714 220.206 352.844 223.309C359.732 230.13 367.182 236.404 373.429 243.841C381.917 253.947 432.639 329.758 434.383 338.865C435.319 343.746 432.104 349.086 432.108 354.039C432.113 360.532 433.759 366.984 433.796 373.468C433.891 389.939 431.916 406.131 433.081 422.672C458.774 419.134 484.721 414.79 510.099 409.475C523.215 406.733 536.695 403.394 549.445 399.287C556.544 384.547 564.732 371.154 575.491 358.783C580.782 352.7 586.836 347.271 591.457 340.622C599.525 329.012 605.929 316.004 612.888 303.711C622.683 286.407 633.043 269.432 641.884 251.595C646.356 242.572 650.11 233.192 653.991 223.904C653.448 220.846 653.071 217.707 653.035 214.598C652.843 197.717 662.144 181.294 673.645 169.534C673.715 156.921 676.707 148.278 683.755 137.881C680.541 129.67 680.087 119.893 679.033 111.187C678.037 102.967 676.919 94.7351 676.19 86.4869L678.318 85.559Z" fill="black"/>
<path d="M399.982 406.064C400.822 406.084 401.662 406.118 402.502 406.13C403.162 406.139 404.174 406.017 404.798 406.228C406.154 406.686 406.173 407.175 406.642 408.4C405.057 408.455 402.378 408.854 400.989 408.046C400.272 407.629 400.234 406.806 399.982 406.064Z" fill="#F4E6D3"/>
<path d="M429.136 460.296C430.196 461.28 430.776 462.814 431.076 464.2C430.497 465.918 429.954 466.011 428.488 467.001C427.752 466.841 428.048 466.951 427.341 466.599C426.601 466.229 426.731 466.032 426.479 465.288C426.85 463.32 428.011 461.898 429.136 460.296Z" fill="#F4E6D3"/>
<path d="M700.268 836.733L700.861 836.624L700.94 837.06C697.913 839.561 694.811 841.949 692.416 845.093L688.62 842.524L682.456 838.709L700.268 836.733Z" fill="#C8D2B3"/>
<path d="M538.906 472.459L539.237 472.766C539.797 475.853 538.123 481.02 537.542 484.194C533.39 484.043 529.245 483.668 525.103 483.345L524.389 482.878C525.872 480.64 536.084 474.489 538.906 472.459Z" fill="#F4E6D3"/>
<path d="M424.29 431.037C426.695 435.992 429.997 446.108 428.063 451.382C427.601 452.642 426.815 453.571 425.574 454.126C423.536 455.038 421.224 454.292 419.356 453.401C419.686 452.429 419.935 452.201 420.636 451.491C421.295 451.374 421.57 451.177 422.125 450.824C423.424 447.269 425.68 442.184 424.416 438.403C423.712 436.298 422.248 435.701 420.404 434.788C421.808 434.629 422.723 434.926 424.026 435.368L424.531 435.544C424.386 434.032 424.306 432.555 424.29 431.037Z" fill="#F4E6D3"/>
<path d="M419.356 453.401C418.834 452.983 418.325 452.551 417.828 452.104C414.758 449.315 412.522 445.025 412.423 440.832C412.359 438.1 413.182 435.595 415.139 433.653C417.926 430.886 420.64 431.005 424.29 431.037C424.306 432.555 424.386 434.032 424.531 435.544L424.026 435.368C422.723 434.926 421.808 434.629 420.404 434.788C418.989 435.134 417.723 435.256 416.831 436.579C415.579 438.436 415.639 440.917 416.161 443.011C416.897 445.962 418.466 449.325 420.636 451.491C419.935 452.201 419.686 452.429 419.356 453.401Z" fill="#F9EBD8"/>
<path d="M420.404 434.788C422.248 435.701 423.712 436.298 424.416 438.403C425.68 442.184 423.424 447.269 422.125 450.824C421.57 451.177 421.295 451.374 420.636 451.491C418.466 449.325 416.897 445.962 416.161 443.011C415.639 440.917 415.579 438.436 416.831 436.579C417.723 435.256 418.989 435.134 420.404 434.788Z" fill="black"/>
<path d="M418.788 436.745C419.56 436.847 420.472 436.918 421.197 437.204C421.923 437.49 422.661 438.159 422.965 438.867C423.909 441.067 422.641 443.788 421.922 445.92L421.261 446.1C420.073 445.73 419.775 445.573 419.073 444.442C417.762 442.33 418.077 438.973 418.788 436.745Z" fill="#F9EBD8"/>
<path d="M540.187 464.398C540.48 465.287 540.544 465.798 540.408 466.753C539.769 471.239 519.808 481.775 515.239 485.434C515.118 485.531 514.999 485.631 514.878 485.73L513.981 485.593C513.397 485.002 512.849 484.369 512.289 483.755L512.358 482.998C520.914 476.245 530.98 471.486 539.621 464.838L540.187 464.398Z" fill="#F9EBD8"/>
<path d="M685.952 513.842C697.484 515.835 709.038 519.007 720.654 520.316C714.905 522.242 708.669 522.848 703.063 525.022C697.698 520.855 691.29 518.165 685.952 513.842Z" fill="#BAC7A8"/>
<path d="M542.773 429.408C544.601 429.711 546.427 430.036 548.267 430.258C544.471 439.647 543.58 450.187 542.106 460.147C536.534 449.138 539.203 440.353 542.773 429.408Z" fill="#F9EBD8"/>
<path d="M568.892 545.612C568.387 546.127 567.956 546.548 567.383 546.975C565.725 548.209 563.744 548.84 561.678 548.441C559.955 548.109 558.467 547.03 557.514 545.569C556.293 543.698 556.024 541.373 556.613 539.235C557.296 536.754 558.949 534.135 561.276 532.912C562.799 532.112 564.714 531.634 566.368 532.346C567.452 532.813 568.374 533.915 568.678 535.056C569.62 538.597 565.412 542.576 563.837 545.409L564.374 545.898L566.082 545.491L568.048 545.007L568.892 545.612Z" fill="#F4E6D3"/>
<path d="M353.541 364.115C362.342 370.715 368.685 382.537 375.076 391.453C376.31 393.175 377.864 394.555 379.127 396.248C376.485 395.497 373.703 394.527 371.321 393.134C362.449 387.944 356.299 373.702 353.541 364.115Z" fill="#D8AE56"/>
<path d="M520.614 484.944C526.146 485.62 531.659 486.353 537.231 486.592C535.981 491.669 535.633 496.928 534.329 502C530.274 498.531 526.031 495.285 521.879 491.933C520.946 491.18 517.141 488.502 517.038 487.528L520.614 484.944Z" fill="#F4E6D3"/>
<path d="M390.82 327.02C392.791 327.86 394.909 329.022 396.338 330.646C404.696 340.15 396.808 364.204 395.851 375.963L395.744 376.475L395.033 376.89L393.1 376.122C392.787 375.629 392.721 375.603 392.578 374.938C391.877 371.681 394.692 364.874 394.744 360.961C394.902 348.975 393.19 338.692 390.82 327.02Z" fill="#F4E6D3"/>
<path d="M652.591 490.777C660.517 495.146 673.381 502.387 678.554 509.724C668.805 507.747 659.112 505.52 649.477 503.044C650.327 498.859 651.22 494.829 652.591 490.777Z" fill="#F9EBD8"/>
<path d="M387.556 326.275C392.246 337.095 393.525 358.508 390.735 369.848C390.379 371.295 390.275 372.886 388.958 373.67L388.567 372.77C382.3 358.244 381.673 341.032 387.556 326.275Z" fill="#F4E6D3"/>
<path d="M203.752 649.496C219.414 650.097 239.097 654.699 253.744 660.338C249.79 662.61 245.571 665.532 241.422 667.323C237.738 665.617 233.567 664.645 229.764 663.168C222.038 660.169 210.237 654.54 203.752 649.496Z" fill="#D8AE56"/>
<path d="M605.525 475.481C610.697 481.011 617.712 486.254 624.924 488.761C626.959 489.468 630.948 489.715 631.71 491.902L631.253 499.288C620.095 497.042 608.984 493.89 597.736 492.216C599.968 486.468 602.564 480.89 605.525 475.481Z" fill="#F9EBD8"/>
<path d="M371.377 430.515C381.574 429.162 392.259 427.834 402.209 425.212C404.48 433.765 406.332 442.525 409.076 450.933C402.884 449.184 386.699 438.79 379.795 434.893C377.03 433.332 374.069 432.198 371.377 430.515Z" fill="#D8AE56"/>
<path d="M328.45 380.88C329.859 382.265 331.007 384.361 332.161 385.996C336.623 392.316 341.172 400.287 347.086 405.314C356.852 413.615 373.655 412.275 385.601 411.176C389.466 410.821 394.484 409.805 398.208 411.128C398.777 412.132 398.647 412.134 398.579 413.215L396.863 413.682C394.646 414.33 392.421 414.946 390.187 415.53C378.385 418.6 360.387 421.55 349.339 414.743C337.887 407.687 331.639 393.337 328.45 380.88Z" fill="#D8AE56"/>
<path d="M510.932 411.437C523.449 408.854 535.7 405.315 548.114 402.306C545.01 411.403 542.282 420.394 540.118 429.764C530.176 423.899 520.419 418.029 510.932 411.437Z" fill="#BAC7A8"/>
<path d="M410.464 389.293C411.344 389.647 412.262 389.981 413.051 390.516C415.78 392.366 423.01 424.201 424.023 429.165C423.469 429.039 422.912 428.923 422.36 428.791C421.021 428.471 419.731 428.091 418.338 428.171C416.104 428.3 414.144 429.346 412.731 431.079C409.907 434.542 409.814 438.182 410.181 442.382L410.424 444.053C408.521 441.317 402.236 415.465 400.85 410.543C403.168 410.701 407.159 411.517 409.001 410.239C409.502 408.24 408.198 407.112 408.525 405.3C409.827 398.079 412.181 397.43 410.464 389.293Z" fill="#F9EBD8"/>
<path d="M635.953 476.895C641.549 479.199 645.827 484.637 650.865 488.016C646.792 498.561 646.942 510.159 640.711 519.932C639.552 521.749 638.591 522.954 636.429 523.47C635.161 523.134 634.503 522.871 633.681 521.798C632.03 519.647 631.42 516.332 631.331 513.693C631.169 508.841 632.797 504.161 633.425 499.388C634.412 491.881 634.741 484.41 635.953 476.895Z" fill="#F4E6D3"/>
<path d="M402.148 334.96C406.091 338.438 409.6 342.363 412.898 346.448C419.1 354.765 421.145 362.382 419.619 372.662C418.755 378.487 416.585 383.096 413.388 387.99C408.567 384.709 403.845 381.354 398.621 378.735C401.585 368.341 404.5 358.479 403.759 347.52L402.148 334.96Z" fill="#F9EBD8"/>
<path d="M777.023 555.752C788.948 560.559 800.892 565.777 813.291 569.245C794.871 570.397 776.717 575.003 759.227 580.657C759.022 580.266 758.823 579.87 758.596 579.491C757.18 577.121 753.758 571.635 751.028 570.918C760.13 566.754 767.892 559.958 777.023 555.752Z" fill="#BAC7A8"/>
<path d="M390.367 318.446C396.238 322.645 401.502 327.241 406.748 332.182C420.419 345.059 428.574 358.004 429.39 377.183C429.917 389.565 428.72 402.04 429.211 414.46C429.64 425.31 432.645 436.355 434.465 447.092C433.815 447.946 433.2 448.824 432.576 449.697L432.142 449.695L431.917 446.503C430.598 440.398 428.369 434.474 426.749 428.441C423.28 415.524 420.078 402.519 416.728 389.569C421.974 380.557 424.975 371.059 422.981 360.549C420.786 348.982 407.601 334.964 398.339 328.092C395.888 326.273 392.981 324.987 390.435 323.244C389.814 321.747 390.212 320.02 390.367 318.446Z" fill="#F4E6D3"/>
<path d="M442.439 467.825C446.69 469.822 450.752 473.355 454.627 476.074C463.779 482.461 472.886 488.912 481.948 495.426L469.791 503.978L454.77 515.512C450.107 499.898 446.331 483.664 442.439 467.825Z" fill="#E1E9CB"/>
<path d="M718.121 528.415C739.35 531.13 760.546 533.446 781.715 536.671C789.123 537.799 796.864 538.585 804.155 540.261C784.976 547.057 767.823 558.125 750.867 569.138C749.177 560.194 732.512 543.966 725.817 537.1C723.461 534.683 719.415 531.493 718.121 528.415Z" fill="#BAC7A8"/>
<path d="M724.224 858.626C731.521 858.283 738.352 859.2 745.312 861.459C756.974 865.245 768.131 872.936 773.654 884.193C775.332 887.613 776.422 891.603 774.976 895.3C773.404 899.323 770.25 901.187 766.482 902.792C757.857 904.289 751.185 901.637 743.274 898.748C735.885 885.117 725.077 873.567 714.476 862.417C717.763 860.176 720.342 859.198 724.224 858.626Z" fill="#BAC7A8"/>
<path d="M314.866 326.474L315.245 326.816C321.36 332.411 341.152 354.833 347.408 356.979L348.315 356.652C352.395 369.744 358.249 388.397 371.011 395.37C375.882 398.031 396.222 403.166 398.029 407.188C397.021 407.888 395.734 407.521 394.554 407.318C381.893 405.147 356.363 399.35 346.072 392.422C340.386 382.713 336.74 371.624 333.426 360.913C332.754 358.742 331.723 353.126 330.006 352.003L328.799 352.34C327.798 355.511 335.182 374.162 336.851 378.356C337.864 380.9 340.059 384.741 340.293 387.386L342.211 391.024C345.875 397.969 357.9 400.902 364.993 403.039C372.791 405.388 380.646 406.801 388.586 408.51C376.722 409.885 358.529 411.634 348.65 403.53C343.746 399.507 340.522 393.377 337.277 388.026C334.148 384.337 331.459 380.172 328.552 376.298C325.235 371.877 321.667 367.642 318.376 363.203C310.004 351.913 313.016 339.34 314.866 326.474Z" fill="#D8AE56"/>
<path d="M224.577 183.741C231.855 193.419 238.614 199.893 250.111 204.111C256.004 211.39 260.867 219.352 266.163 227.057C273.937 238.196 281.776 249.289 289.679 260.337C296.146 269.294 304.483 277.258 310.376 286.515C312.74 290.227 314.277 294.047 314.85 298.439C314.59 299.299 314.624 299.503 313.957 300.155C311.615 298.329 310.029 294.456 308.185 292.029C303.172 285.363 297.918 278.891 292.423 272.615C287.261 266.81 281.417 261.687 275.621 256.531C262.08 244.485 248.295 233.624 232.365 224.869C226.168 221.463 219.616 218.998 213.387 215.742L213.011 215.542C216.536 204.776 220.199 194.197 224.577 183.741Z" fill="#F9EBD8"/>
<path d="M581.935 445.263C591.404 449.686 601.516 457.917 608.53 465.681C605.398 470.88 602.295 476.072 599.674 481.554C595.748 489.765 573.696 542.039 568.892 545.612L568.048 545.007L566.082 545.491C567.328 544.353 568.599 542.998 569.495 541.57C570.86 539.398 571.511 536.818 570.755 534.301C570.689 534.075 570.612 533.853 570.523 533.635C570.434 533.418 570.335 533.205 570.224 532.997C570.114 532.79 569.993 532.589 569.862 532.393C569.731 532.198 569.59 532.01 569.439 531.829C569.289 531.648 569.13 531.475 568.961 531.311C568.793 531.146 568.617 530.991 568.433 530.844C568.249 530.698 568.058 530.562 567.859 530.435C567.661 530.309 567.457 530.192 567.247 530.086C565.613 529.267 563.746 529.209 562.023 529.782C557.284 531.358 556.639 535.044 554.604 538.976L554.144 539.854C555.199 533.692 556.493 527.581 558.027 521.521C559.562 515.461 561.332 509.471 563.337 503.55C566.245 495.166 569.795 487.028 572.585 478.595C576.22 467.609 578.674 456.352 581.935 445.263Z" fill="#E1E9CB"/>
<path d="M411.259 447.779C412.293 449.179 413.021 450.804 414.092 452.208C415.841 454.503 418.532 457.055 421.554 457.35C425.227 457.708 427.648 455.709 430.327 453.575C430.539 455.535 430.711 457.48 430.802 459.449C429.996 458.686 429.97 457.68 429.184 456.821C427.298 459.486 425.121 462.53 424.622 465.814C425.26 467.161 425.476 467.351 426.7 468.214C427.451 468.353 428.071 468.439 428.821 468.22C437.072 465.813 430.932 456.425 433.657 451.02L434.172 450.95C434.818 451.444 435.153 451.838 435.439 452.61C438.797 461.675 440.472 472.185 442.833 481.617L459.992 551.25C462.093 560.193 464.312 569.107 466.648 577.992C458.044 571.524 449.499 563.259 444.115 553.837C440.929 548.262 439.189 541.668 437.263 535.576C433.257 522.904 429.83 510.141 426.152 497.38C421.371 480.79 415.957 464.402 411.259 447.779Z" fill="#E1E9CB"/>
<path d="M433.645 426.315C438.748 429.294 443.241 434.161 447.999 437.756C455.894 443.723 463.485 450.02 471.293 456.091C476.723 460.314 482.354 464.28 487.699 468.613C496.952 476.115 505.908 483.947 515.284 491.304C521.061 495.837 527.097 502.1 533.519 505.529C532.521 511.281 531.952 517.081 530.64 522.78C521.097 521.974 459.298 471.315 441.303 463.24C440.616 458.794 439.41 454.664 438.091 450.377C438.822 449.262 440.596 447.316 440.191 445.988C439.667 444.273 438.852 444.063 437.434 443.235C434.955 438.239 434.791 431.757 433.645 426.315Z" fill="#F4E6D3"/>
<path d="M522.323 506.506C524.326 506.694 526.585 507.05 528.202 508.339C529.34 509.246 530.369 510.618 530.432 512.116C530.533 514.501 529.106 516.184 527.472 517.684C524.638 517.572 522.478 516.984 520.533 514.769C519.504 513.597 518.819 512.268 519.06 510.654C519.365 508.612 520.691 507.55 522.323 506.506Z" fill="black"/>
<path d="M522.149 508.793C523.079 508.811 524.113 508.779 525.023 508.972C526.414 509.267 526.94 509.976 527.712 511.074C528.047 512.87 527.735 514.067 527.255 515.811C526.333 515.743 525.135 515.713 524.269 515.376C523.118 514.928 522.089 514.168 521.661 512.966C521.117 511.438 521.586 510.22 522.149 508.793Z" fill="#E1E9CB"/>
<path d="M550.857 429.964C559.348 433.306 571.657 440.509 579.359 445.66C576.434 456.618 570.32 465.793 566.701 476.493C562.616 488.575 561.206 501.364 557.402 513.534C556.385 516.789 555.279 520.561 553.699 523.566C552.819 527.466 552.082 532.135 549.055 534.996C547.639 536.335 545.78 537.013 543.833 536.844C541.539 536.645 539.437 535.367 537.96 533.637C534.292 529.343 534.72 523.955 535.041 518.713C534.76 513.685 535.981 508.052 536.743 503.081C538.789 489.729 541.659 476.557 544.044 463.274C545.579 454.726 546.368 446.033 548.307 437.56C548.919 434.886 549.729 432.465 550.857 429.964Z" fill="#E1E9CB"/>
<path d="M535.041 518.713C535.072 518.858 535.106 519.004 535.136 519.15C535.762 522.233 535.286 525.395 536.163 528.402C537.053 525.911 536.636 523.112 537.187 520.531L536.034 519.95L536.69 519.563L536.363 519.482C537.122 519.612 537.861 519.751 538.612 519.925C537.333 523.657 536.505 527.125 538.282 530.861C538.975 532.317 540.247 533.809 541.818 534.352C543.312 534.869 544.806 534.767 546.172 533.968C548.375 532.681 549.698 529.964 550.185 527.55C550.571 525.587 550.869 523.61 551.078 521.62L551.492 521.227C551.601 524.701 550.191 528.268 550.518 531.515C551.286 528.767 552.167 526.104 553.139 523.421L553.699 523.566C552.819 527.466 552.082 532.135 549.055 534.996C547.639 536.335 545.78 537.013 543.833 536.844C541.539 536.645 539.437 535.367 537.96 533.637C534.292 529.343 534.72 523.955 535.041 518.713Z" fill="#F9EBD8"/>
<path d="M538.612 519.925C540.05 517.999 541.987 515.531 544.626 515.344C546.207 515.232 547.631 515.814 548.763 516.906C550.026 518.124 550.521 520.007 551.078 521.62C550.869 523.61 550.571 525.586 550.185 527.55C549.698 529.964 548.375 532.681 546.172 533.968C544.806 534.767 543.312 534.869 541.818 534.352C540.247 533.809 538.975 532.317 538.282 530.861C536.505 527.125 537.333 523.657 538.612 519.925Z" fill="black"/>
<path d="M543.627 517.834C544.665 517.941 545.62 518.097 546.45 518.799C547.749 519.898 548.36 521.578 548.442 523.239C548.633 527.099 546.732 530.698 544.297 533.538C542.721 533.415 541.522 533.433 540.396 532.126C539.151 530.679 538.855 528.639 539.04 526.797C539.412 523.084 540.837 520.242 543.627 517.834Z" fill="#E1E9CB"/>
<path d="M596.619 494.303C607.99 495.783 619.638 499.156 630.89 501.616C629.291 508.359 627.229 515.424 630.646 522.002C631.529 523.702 632.876 525.275 634.82 525.731C636.439 526.11 637.995 525.607 639.364 524.757C645.452 520.976 647.769 511.607 649.331 505.125C661.407 508.593 673.875 510.428 685.952 513.842C691.29 518.165 697.698 520.855 703.063 525.022C694.571 528.269 685.826 530.941 677.257 533.995C665.041 538.349 653.084 543.026 640.517 546.321C620.82 538.653 605.787 523.189 589.699 510.12C591.932 504.816 594.239 499.544 596.619 494.303Z" fill="#E1E9CB"/>
<path d="M148.678 589.189C155.912 597.983 162.397 607.429 169.424 616.403C174.524 622.915 180.113 628.919 185.334 635.302C185.831 635.909 185.934 636.446 186.062 637.194C186.259 638.349 186.541 638.72 187.36 639.558C189.45 639.635 193.744 641.688 195.135 643.356C195.97 644.357 196.102 644.484 196.013 645.769L195.665 646.182C184.082 645.579 172.335 644.73 160.9 642.726C142.915 639.574 125.227 634.227 107.522 629.777C97.5901 627.281 87.3795 625.808 77.7573 622.224C89.2709 618.231 100.519 612.611 111.49 607.318C123.923 601.352 136.319 595.309 148.678 589.189Z" fill="#F9EBD8"/>
<path d="M436.021 424.419C452.787 422.425 469.705 419.283 486.315 416.226C494.432 414.732 502.988 413.636 510.932 411.437C520.419 418.029 530.176 423.899 540.118 429.764C536.504 442.622 534.786 449.201 539.526 462.217C529.466 468.335 519.671 475.01 509.774 481.4C503.909 476.1 497.414 471.315 491.225 466.385C473.119 451.965 454.487 438.361 436.021 424.419Z" fill="#F9EBD8"/>
<path d="M719.871 832.641C730.434 831.617 739.6 833.587 749.565 837.079C769.738 844.148 787.695 858.447 796.884 877.964C801.781 888.364 804.454 902.439 800.217 913.501C797.743 919.962 792.714 924.678 786.431 927.407C766.066 936.254 740.93 927.166 721.647 919.642L720.679 919.146C721.776 917.147 725.91 915.37 727.835 913.96C733.145 910.073 737.95 905.235 742.966 900.961C747.281 902.613 751.705 904.506 756.27 905.321C761.715 906.292 768.028 905.818 772.59 902.397C772.956 902.12 773.307 901.824 773.642 901.51C773.977 901.196 774.295 900.866 774.596 900.519C774.897 900.172 775.179 899.811 775.442 899.434C775.705 899.058 775.949 898.669 776.172 898.268C776.395 897.866 776.596 897.454 776.776 897.032C776.956 896.609 777.114 896.179 777.249 895.74C777.384 895.301 777.496 894.856 777.585 894.406C777.674 893.955 777.74 893.501 777.782 893.044C778.475 886.23 774.447 879.713 770.189 874.725C760.834 863.765 746.234 857.494 731.992 856.497C726.829 856.136 718.581 855.981 714.516 859.606C713.828 860.219 713.659 860.422 712.805 860.645C706.431 856.783 700.446 850.748 694.532 846.093C701.008 837.832 709.848 834.396 719.871 832.641Z" fill="#BAC7A8"/>
<path d="M704.82 769.691C704.982 769.663 705.144 769.625 705.308 769.608C714.685 768.613 725.631 768.925 733.403 774.903C738.89 779.122 752.321 795.551 753.058 801.974C753.565 806.396 751.764 810.592 749.003 813.966C735.382 830.614 708.196 833.439 688.366 835.696C685.581 836.086 682.653 836.674 679.849 836.244C675.442 835.568 671.357 833.459 667.093 832.228C663.201 831.104 659.087 830.677 655.248 829.385C654.231 829.038 653.244 828.621 652.287 828.134C651.33 827.647 650.413 827.094 649.534 826.476C644.205 822.729 640.32 816.113 639.433 809.647C638.754 804.692 640.353 800.209 643.401 796.326C654.396 782.316 687.297 771.658 704.82 769.691Z" fill="#909D7A"/>
<path d="M699.856 787.712C706.738 787.202 716.188 787.474 722.247 791.158C724.22 792.358 725.767 794.135 726.214 796.45C726.727 799.106 725.72 801.743 724.105 803.827C717.171 812.776 701.415 815.362 691.007 816.92C683.898 817.974 671.755 818.545 665.774 813.837C664.277 812.659 663.304 811.057 663.115 809.147C662.81 806.049 664.442 802.964 666.411 800.693C674.147 791.771 688.664 788.627 699.856 787.712Z" fill="black"/>
<path d="M696.652 790.18C703.66 789.442 714.473 789.09 720.711 792.872C722.268 793.816 723.609 795.249 723.907 797.11C724.22 799.068 723.392 800.953 722.237 802.488C716.293 810.38 702.174 812.823 693.113 814.332C686.101 815.308 675.071 816.43 668.724 812.706C667.191 811.806 665.936 810.424 665.679 808.597C665.363 806.351 666.506 804.051 667.857 802.34C673.947 794.626 687.338 791.194 696.652 790.18Z" fill="#909D7A"/>
<path d="M364.381 431.52C366.726 431.051 368.98 430.65 371.377 430.515C374.069 432.198 377.03 433.332 379.795 434.893C386.699 438.79 402.884 449.184 409.076 450.933C418.15 478.355 425.212 506.289 433.721 533.864C406.441 552.067 377.631 565.666 345.364 572.34C344.782 570.08 347.844 564.857 348.818 562.481C353.716 550.534 356.66 538.05 361.433 526.129C364.472 523.789 368.455 521.953 371.78 519.982C379.643 515.321 387.481 510.371 394.454 504.434C400.546 499.246 409.896 486.479 414.764 483.646C415.931 482.966 417.077 482.252 418.233 481.553C416.153 481.786 414.081 482.193 412.017 482.539C407.05 487.625 402.692 493.301 397.605 498.26C387.413 508.194 374.481 516.094 362.003 522.862C362.613 515.781 364.567 508.564 365.53 501.469C367.491 487.021 368.132 472.747 368.059 458.201C377.069 460.319 385.824 463.324 394.598 466.246C398.926 467.687 403.684 468.913 407.747 470.982C409.269 471.756 412.087 473.57 413.737 473.328C413.702 472.916 413.713 472.69 413.516 472.285C411.185 467.488 374.817 457.294 367.669 455.631C366.121 447.757 365.495 439.486 364.381 431.52Z" fill="#E1E9CB"/>
<path d="M195.142 593.582C194.331 592.5 193.763 592.411 192.566 592.006C191.335 591.589 189.542 590.944 188.957 589.773C195.142 587.089 201.845 585.106 208.221 582.875C220.368 578.627 232.497 574.105 244.832 570.442C254.884 567.458 265.149 565.265 275.187 562.217C282.649 559.927 290.05 557.455 297.389 554.8C304.729 552.145 311.999 549.312 319.2 546.299C326.4 543.286 333.522 540.098 340.565 536.734C347.608 533.371 354.564 529.836 361.433 526.129C356.66 538.05 353.716 550.534 348.818 562.481C347.844 564.857 344.782 570.08 345.364 572.34C341.965 572.995 326.643 574.982 324.89 576.823C326.457 578.092 328.775 577.867 330.7 577.678C334.643 577.291 338.67 576.226 342.599 575.585C339.449 581.071 336.814 586.812 333.813 592.376C331.153 597.403 328.255 602.29 325.118 607.036C321.982 611.781 318.623 616.363 315.041 620.781C313.889 622.22 315.318 622.375 313.987 623.612C313.705 623.562 313.425 623.504 313.142 623.461C312.172 623.313 311.663 623.281 310.795 623.785C309.143 625.991 308.063 627.45 307.602 630.263C263.307 623.694 220.712 609.476 179.389 592.564C191.26 589.376 190.345 594.134 195.142 593.582Z" fill="#D8AE56"/>
<path d="M652.609 832.524C657.392 832.196 662.399 833.152 666.951 834.575C694.085 843.053 727.288 874.252 740.532 899.351C727.621 913.574 709.434 923.859 691.276 929.597C672.792 934.305 653.828 934.691 635.662 928.272C626.901 925.176 610.528 917.267 606.617 908.157C604.284 902.723 609.212 892.189 611.373 887.165C618.23 871.224 636.895 838.801 652.609 832.524Z" fill="#E1E9CB"/>
<path d="M664.282 855.621C666.101 855.845 667.957 856.121 669.717 856.65C684.4 861.065 706.705 878.318 713.51 892.222C714.599 894.448 715.335 896.863 714.439 899.288C713.668 901.377 712.497 902.335 710.536 903.271C705.591 904.659 700.574 903.811 695.795 902.204C683.171 897.957 670.454 888.27 664.531 876.158C662.227 871.447 659.025 863.952 660.992 858.772C661.697 856.914 662.593 856.402 664.282 855.621Z" fill="black"/>
<path d="M664.02 857.947C674.31 859.022 685.242 866.839 693.16 873.074C699.376 877.969 711.473 888.139 712.219 896.476C712.396 898.448 711.848 899.271 710.667 900.703C710.503 900.766 710.342 900.837 710.175 900.894C704.215 902.91 697.29 900.557 691.812 898.029C679.938 892.547 669.322 883.055 664.785 870.555C663.408 866.76 662.255 861.709 664.02 857.947Z" fill="#BAC7A8"/>
<path d="M148.678 589.189C160.755 582.564 173.323 576.666 185.572 570.347C210.905 557.148 236.16 543.804 261.339 530.313C281.21 519.498 301.081 508.949 319.146 495.219C328.606 488.03 337.931 480.311 346.806 472.405C351.357 468.351 355.704 462.893 360.891 459.701C363.174 458.296 365.445 458.257 368.059 458.201C368.132 472.747 367.491 487.021 365.53 501.469C364.567 508.564 362.613 515.781 362.003 522.862L361.494 523.18C354.854 527.264 347.741 530.595 340.733 533.993C329.593 539.395 318.258 544.35 306.727 548.859C295.197 553.368 283.507 557.416 271.658 561.004C261.756 563.983 251.55 565.876 241.66 568.915C221.934 574.977 202.539 582.298 183.006 588.972C180.971 589.668 176.654 590.612 175.883 592.708C178.256 595.574 185.436 597.571 189.072 599.088C210.233 607.915 231.765 614.722 253.808 620.928C270.429 625.608 287.279 630.135 304.466 632.17C300.737 639.546 290.401 645.705 283.512 649.685C279.279 652.131 274.973 653.964 271.819 657.787C272.011 659.802 270.163 661.797 269.239 663.628C243.866 653.656 222.869 648.656 195.665 646.182L196.013 645.769C196.102 644.484 195.97 644.357 195.135 643.356C193.744 641.688 189.45 639.635 187.36 639.558C186.541 638.72 186.259 638.349 186.062 637.194C185.934 636.446 185.831 635.909 185.334 635.302C180.113 628.919 174.524 622.915 169.424 616.403C162.397 607.429 155.912 597.983 148.678 589.189Z" fill="#D8AE56"/>
<path d="M304.466 632.17C315.371 634.061 326.301 635.797 337.256 637.378C362.955 640.863 388.915 643.647 414.008 650.433C427.313 653.9 440.335 658.22 453.074 663.394C467.037 669.152 480.463 675.855 494.831 680.622C519.96 688.961 555.544 692.632 582.138 695.757C571.36 705.864 561.145 716.38 550.584 726.678C525.16 722.053 500.193 715.229 474.608 711.568C455.278 708.802 435.738 707.806 416.357 705.496C401.299 703.701 385.942 700.737 371.19 697.218C346.798 691.398 322.884 683.072 299.314 674.565C289.345 670.967 279.332 666.79 269.239 663.628C270.163 661.797 272.011 659.802 271.819 657.787C274.973 653.964 279.279 652.131 283.512 649.685C290.401 645.705 300.737 639.546 304.466 632.17Z" fill="#E1E9CB"/>
<path d="M678.318 85.559C715.629 77.1662 758.335 86.3297 790.416 106.607C794.882 109.43 802.028 113.374 805.217 117.586C804.467 118.366 804.046 119.276 803.716 120.295C801.774 126.276 800.409 132.568 798.819 138.655L787.864 180.142C784.912 191.105 782.091 202.223 777.861 212.782C776.044 217.32 773.739 221.569 771.065 225.658C766.789 232.198 761.604 238 756.763 244.111C752.317 249.724 748.231 255.95 742.917 260.767C739.889 263.512 736.778 265.355 733.04 266.967C738.32 259.301 743.661 253.597 742.259 243.45C740.919 233.744 733.561 225.854 726.01 220.226C712.824 210.397 694.649 203.992 678.102 206.524C668.186 208.042 661.597 212.455 655.687 220.476C655.248 213.256 655.745 206.613 657.871 199.657C662.353 184.999 673.855 169.043 687.622 161.871C703.488 153.605 723.399 153.636 739.93 159.909C745.452 162.004 750.478 165.404 756.12 167.129C756.313 167.188 756.508 167.241 756.702 167.297C748.537 158.39 733.387 154.378 721.692 153.482C704.478 152.164 689.177 155.932 675.944 167.209C676.684 156.729 679.025 148.39 685.028 139.643C686.566 137.403 688.426 135.348 689.883 133.065C690.534 132.046 690.544 132.026 690.277 130.9L689.304 130.958C687.69 132.226 686.556 133.881 685.32 135.501C681.44 121.741 680.244 100.446 678.318 85.559Z" fill="#BAC7A8"/>
<path d="M240.932 179.491C246.704 166.539 260.767 152.501 274.139 147.469C282.767 144.222 292.296 144.25 300.721 148.086C312.935 153.648 317.754 172.073 322.711 183.371C325.334 189.381 328.346 195.188 331.749 200.793C338.035 211.088 345.779 220.088 354.511 228.367C359.499 233.096 364.785 237.587 369.319 242.764C376.444 250.899 382.518 259.965 388.6 268.89C399.962 285.767 410.872 302.932 421.329 320.385C424.939 326.392 429.826 333.027 432.225 339.592C430.918 346.507 429.509 352.666 429.775 359.762C420.879 337.202 407.691 329.21 389.742 314.731C389.489 312.142 389.507 306.022 387.798 304.254C387.694 304.145 387.56 304.07 387.441 303.978L386.721 304.253C385.319 308.909 388.346 314.21 387.426 318.715C386.521 323.147 383.936 327.607 382.775 332.106C377.712 351.712 382.156 367.334 391.442 384.652C391.705 385.147 391.974 385.639 392.25 386.127L391.41 378.214C396.827 380.809 402.221 383.325 406.79 387.305C408.47 392.305 409.55 396.735 407.049 401.751C406.55 402.73 406.021 403.693 405.46 404.639C396.539 402.543 387.784 399.237 379.127 396.248C377.864 394.555 376.31 393.175 375.076 391.453C368.685 382.537 362.342 370.715 353.541 364.115C351.787 360.172 350.6 351.621 347.468 349.077L346.844 349.348C346.363 351.494 347.706 354.548 348.315 356.652L347.408 356.979C341.152 354.833 321.36 332.411 315.245 326.816L314.866 326.474C317.186 310.471 320.836 296.156 310.426 282.17C305.998 276.221 300.662 270.965 296.135 265.081C283.419 248.551 271.495 230.918 259.935 213.565C255.919 207.536 251.335 201.773 247.711 195.502C244.805 190.474 241.994 185.254 240.932 179.491Z" fill="#F9EBD8"/>
<path d="M755.663 249.31C759.291 256.494 762.773 275.294 764.812 283.875C772.059 313.556 778.203 343.463 783.243 373.598C788.41 407.737 792.255 442.025 794.777 476.46L722.857 449.839C708.674 444.454 694.433 439.225 680.135 434.152C673.547 431.783 667.04 429.124 660.36 427.029C660.33 412.096 658.026 397.026 656.164 382.228C660.719 375.673 664.249 368.127 668.528 361.32C682.529 338.931 697.135 316.943 712.346 295.356C718.511 286.591 724.523 277.104 731.51 269.011C743.062 266.473 748.773 258.128 755.663 249.31Z" fill="#BAC7A8"/>
<path d="M766.665 658.766C779.746 659.468 793.204 661.834 806.162 663.889C840.58 669.348 869.18 674.777 901.849 687.671C916.4 693.414 941.799 704.577 947.983 719.693C949.671 723.819 949.571 728.027 947.811 732.115C940.702 748.625 914.305 760.608 898.349 767.068C862.733 778.895 823.622 780.355 786.562 776.241C768.741 774.263 751.11 771.098 733.197 769.99C741.789 746.136 748.853 721.58 755.766 697.187C757.665 690.483 761.316 672.574 763.862 667.639C765.297 664.859 768.267 667.666 770.589 667.051L770.404 666.201C768.632 665.327 766.425 665.38 764.479 665.225C765.096 663.041 765.91 660.905 766.665 658.766Z" fill="#F9EBD8"/>
<path d="M935.117 722.669C935.486 722.73 936.137 722.816 936.467 722.967C937.824 723.586 937.706 725.068 937.954 726.358C937.579 726.285 936.925 726.176 936.591 726.018C935.221 725.37 935.361 723.987 935.117 722.669Z" fill="black"/>
<path d="M817.951 711.179C827.532 710.132 840.23 711.799 848.557 716.925C851.324 718.628 854.64 721.477 855.321 724.836C855.627 726.348 855.245 727.517 854.361 728.74C851.399 732.842 843.79 734.1 839.122 734.801C829.661 736.402 817.499 734.464 809.324 729.314C806.52 727.548 803.666 724.775 803.054 721.377C802.753 719.707 803.156 718.178 804.216 716.865C807.266 713.086 813.368 711.803 817.951 711.179Z" fill="black"/>
<path d="M816.675 713.578C824.996 712.898 833.506 713.546 841.458 716.189C845.067 717.389 851.879 720.346 853.162 724.153C853.529 725.241 853.505 726.12 852.867 727.117C850.777 730.383 844.271 731.703 840.669 732.392C833.578 733.199 826.761 733.123 819.841 731.19C815.255 729.909 807.429 727.026 805.31 722.522C804.788 721.412 804.715 720.303 805.298 719.184C806.977 715.966 813.309 714.293 816.675 713.578Z" fill="#F9EBD8"/>
<path d="M542.773 429.408C549.148 403.285 558.548 382.045 576.201 361.41C583.055 353.397 590.336 346.609 596.168 337.683C603.729 326.11 610.157 313.632 616.932 301.583C625.027 287.188 633.447 273.012 641.144 258.394C644.737 251.569 647.734 244.614 650.698 237.503C653.148 231.626 655.322 225.378 658.87 220.059C660.696 217.32 662.904 215.001 665.719 213.267C675.73 207.099 689.122 207.424 700.112 210.276C713.827 213.835 729.643 222.316 736.95 234.99C739.789 239.915 741.083 246.17 739.582 251.746C739.021 253.83 738.016 255.882 736.839 257.69C733.29 263.144 728.922 268.196 725.113 273.49C715.16 287.281 705.389 301.2 695.798 315.246C681.85 335.925 667.557 356.846 655.735 378.818C655.364 375.722 655.204 367.086 652.808 365.194L651.856 365.402C650.99 368.579 653.937 383.671 654.501 387.97C655.805 397.913 657.103 407.977 657.532 417.999C657.809 424.488 657.474 430.97 657.682 437.453C657.922 444.98 658.822 452.488 657.977 460.008C656.895 469.649 654.266 478.956 650.865 488.016C645.827 484.637 641.549 479.199 635.953 476.895C636.967 469.383 640.713 444.59 636.821 438.997L636.033 438.635C634.32 441.216 636.164 451.467 636.037 455.065C635.599 467.398 632.437 479.406 631.755 491.716C631.752 491.779 631.725 491.84 631.71 491.902C630.948 489.715 626.959 489.468 624.924 488.761C617.712 486.254 610.697 481.011 605.525 475.481C612.269 463.212 620.35 451.928 622.843 437.791C623.099 436.34 623.264 435.358 622.416 434.123L621.557 434.316C619.656 437.617 619.532 442.32 618.216 446.02C615.752 452.954 612.201 459.335 608.53 465.681C601.516 457.917 591.404 449.686 581.935 445.263C583.702 440.322 590.931 425.446 591.166 422.454L590.591 422.268C586.92 425.815 580.062 440.312 579.359 445.66C571.657 440.509 559.348 433.306 550.857 429.964C552.765 425.664 555.001 421.153 556.114 416.565C557.48 410.936 557.939 405.176 559.574 399.571C560.511 396.357 562.83 392.117 563.018 388.862L561.743 388.13C561.735 388.149 561.729 388.169 561.718 388.187C561.615 388.35 561.505 388.509 561.401 388.671C555.66 397.596 556.009 408.266 553.111 418.165C551.898 422.311 549.458 426.116 548.267 430.258C546.427 430.036 544.601 429.711 542.773 429.408Z" fill="#BAC7A8"/>
<path d="M634.943 409.142C636.19 409.568 635.669 409.2 636.492 410.262C636.367 412.215 634.984 413.935 633.974 415.559C633 415.318 633.151 415.26 632.588 414.51C632.775 412.574 634.014 410.816 634.943 409.142Z" fill="black"/>
<path d="M604.059 395.697C604.631 395.894 605.039 396.209 605.535 396.547C605.383 398.779 602.969 400.986 601.523 402.677C600.964 402.967 600.631 402.887 600.016 402.863C600.297 400.015 602.35 397.854 604.059 395.697Z" fill="black"/>
<path d="M455.111 517.44C465.138 511.294 474.904 503.641 484.459 496.749C497.55 505.924 515.661 521.173 530.044 526.913L531.888 526.179C532.483 527.063 532.458 527.107 532.62 528.079C533.185 531.476 534.881 535.31 537.755 537.368C540.083 539.035 543.733 539.884 546.56 539.394C547.903 539.161 549.667 538.565 550.682 537.63C552.117 542.049 553.434 547.855 557.926 550.179C560.285 551.4 563.299 551.482 565.795 550.654C572.424 548.455 576.077 539.761 578.793 533.899C582.131 526.695 585.232 519.372 588.487 512.129C601.73 523.576 614.798 536.052 630.363 544.321C644.824 552.003 661.073 556.264 674.181 566.442C662.468 572.48 656.999 580.582 653.056 593.017C649.561 604.038 648.1 615.468 644.001 626.359C635.26 649.585 616.527 664.986 598.47 680.912C593.832 685.002 589.515 689.698 584.701 693.531C554.94 690.266 517.663 686.457 489.829 676.526C468.763 669.01 449.415 658.07 427.758 651.879C417.275 648.882 406.723 645.88 396.03 643.729C375.386 639.575 354.312 637.388 333.467 634.521C324.812 633.331 316.248 631.421 307.602 630.263C308.063 627.45 309.143 625.991 310.795 623.785C311.663 623.281 312.172 623.313 313.142 623.461C313.425 623.504 313.705 623.562 313.987 623.612C315.318 622.375 313.889 622.22 315.041 620.781C318.623 616.363 321.982 611.781 325.118 607.036C328.255 602.29 331.153 597.403 333.813 592.376C336.814 586.812 339.449 581.071 342.599 575.585C349.637 573.765 356.842 572.496 363.814 570.444C366.963 569.503 370.093 568.499 373.202 567.432C376.311 566.365 379.397 565.236 382.46 564.044C385.524 562.853 388.562 561.6 391.575 560.285C394.588 558.971 397.573 557.597 400.53 556.162C403.487 554.727 406.415 553.234 409.312 551.681C412.209 550.128 415.074 548.517 417.906 546.849C420.738 545.18 423.535 543.455 426.298 541.674C429.06 539.893 431.785 538.056 434.474 536.165C436.046 541.14 437.381 546.58 439.632 551.285C444.814 562.114 455.898 575.077 466.519 580.872C467.545 581.431 468.551 581.792 469.663 582.136L470.463 581.618C470.989 577.131 457.222 525.329 455.111 517.44Z" fill="#E1E9CB"/>
<path d="M643.949 547.924C651.538 546.315 658.918 543.272 666.178 540.589C674.521 537.474 682.908 534.483 691.34 531.618C696.285 529.924 701.723 527.563 706.959 527.13C710.434 526.843 714.641 527.886 718.121 528.415C719.415 531.493 723.461 534.683 725.817 537.1C732.512 543.966 749.177 560.194 750.867 569.138L751.028 570.918C753.758 571.635 757.18 577.121 758.596 579.491C758.823 579.87 759.022 580.266 759.227 580.657C747.583 584.133 735.975 590.7 725.366 596.482C684.124 618.959 670.812 633.662 649.532 675.612C640.563 693.291 636.645 706.8 623.66 723.071C620.161 727.454 615.937 731.416 611.623 734.984C604.475 740.896 596.567 746.16 589.039 751.599C575.234 761.777 561.237 771.683 547.047 781.318C535.95 788.926 525.18 797.668 513.187 803.807C496.632 798.233 480.417 793.203 463.081 790.622C445.522 788.007 427.765 787.606 410.1 786.083C398.663 785.016 387.304 783.396 376.024 781.223C340.777 774.592 305.896 766.397 271.383 756.639C252.212 751.251 233.358 744.66 213.994 739.98C201.152 736.937 188.207 734.428 175.158 732.451C161.112 730.362 146.64 728.792 132.882 725.228C141.083 722.209 149.144 718.364 157.104 714.76C176.007 706.376 194.447 697.075 212.426 686.858C227.101 678.515 241.552 669.458 256.446 661.54C295.273 674.713 333.574 691.536 373.743 700.286C387.557 703.295 401.689 706.126 415.723 707.855C438.761 710.692 461.883 711.836 484.83 715.574C500.571 718.139 516.154 722.079 531.754 725.415C538.147 726.781 544.578 728.418 551.071 729.206C554.655 726.475 557.722 722.916 560.896 719.723C566.417 714.164 572.019 708.688 577.701 703.293C584.458 696.978 591.162 690.552 598.103 684.44C608.074 675.658 618.49 667.055 627.417 657.182C633.281 650.697 638.62 643.209 642.602 635.416C650.265 620.419 650.907 605.301 656.592 590.186C661.227 577.866 666.985 572.276 678.946 566.849C669.002 558.145 655.82 553.334 643.949 547.924Z" fill="#E1E9CB"/>
<path d="M147.31 586.968C142.224 578.068 136.003 569.696 130.531 561.012C116.413 538.606 102.557 515.818 91.2125 491.859C64.781 436.035 40.6621 336.954 62.2902 277.177C72.069 250.149 94.8275 228.121 120.669 216.168C149.839 202.676 181.065 204.157 210.681 214.906C204.239 234.076 196.712 254.658 194.225 274.749C192.761 286.581 194.139 298.957 191.877 310.619C189.389 323.446 182.554 335.101 179.396 347.814C175.413 363.855 174.547 380.755 172.691 397.129C170.633 415.277 168.664 433.299 167.662 451.552C167.324 457.718 166.532 464.358 167.001 470.507L167.799 471.192L168.738 470.95C170.009 468.582 170.381 446.825 170.672 442.253C171.675 426.455 173.565 410.795 175.349 395.074C176.429 385.558 177.23 375.999 178.511 366.509C179.814 356.851 181.56 347.166 184.901 337.984C187.825 329.948 191.918 322.009 193.73 313.64C196.699 299.927 195.051 285.526 197.165 271.608C200.091 252.342 207.689 234.183 213.011 215.542L213.387 215.742C219.616 218.998 226.168 221.463 232.365 224.869C248.295 233.624 262.08 244.485 275.621 256.531C281.417 261.687 287.261 266.81 292.423 272.615C297.918 278.891 303.172 285.362 308.185 292.029C310.029 294.456 311.615 298.329 313.957 300.155C314.624 299.503 314.59 299.299 314.85 298.439C314.786 303.669 314.542 308.839 313.931 314.036C312.568 325.634 307.387 346.04 311.611 356.976C314.527 364.526 321.674 369.491 324.496 376.884C325.951 380.698 326.69 384.839 327.902 388.743C330.502 397.12 335.695 405.512 341.831 411.76C348.972 419.033 357.372 421.38 367.314 421.432C378.321 421.489 389.132 418.527 399.594 415.397L401.689 422.48C371.901 428.396 341.851 432.848 312.106 439.044C264.736 448.911 217.732 461.248 170.824 473.105C153.568 477.468 136.121 481.009 118.946 485.691C115.512 486.628 111.942 487.234 108.554 488.313C106.572 488.944 104.036 490.05 102.712 491.7L103.88 492.059L102.635 491.931L102.919 491.461C104.525 492.321 105.559 491.629 107.253 491.171C128.534 485.422 150.035 480.806 171.405 475.456C219.157 463.502 266.7 451.252 314.85 440.919C331.259 437.397 347.903 434.747 364.381 431.52C365.495 439.486 366.121 447.757 367.669 455.631C366.513 455.657 365.346 455.688 364.2 455.853C363.523 455.947 362.859 456.1 362.208 456.313C360.268 456.968 358.453 458.414 356.871 459.694C352.404 463.309 348.362 467.609 344.098 471.476C337.348 477.597 330.303 483.492 323.209 489.211C316.041 494.99 308.335 500.295 300.641 505.344C291.032 511.648 280.814 517.068 270.729 522.565C256.588 530.361 242.341 537.958 227.988 545.357C201.137 559.346 174.556 573.739 147.31 586.968Z" fill="#D8AE56"/>
<path d="M806.666 118.744C817.691 125.207 829.878 138.306 838.514 147.827C850.379 160.907 861.403 174.224 871.573 188.676C887.227 210.92 900.693 234.942 913.486 258.905C936.569 302.143 957.746 346.622 970.178 394.234C983.9 446.783 988.739 502.226 969.479 554.104C964.17 568.404 957.033 581.865 949.334 594.998C932.489 623.73 905.499 655.186 872.11 663.851C854.832 668.335 839.626 663.464 824.637 654.447C804.165 642.132 786.677 620.281 772.715 601.08C769.384 596.499 763.955 585.951 759.629 583.146C771.923 578.715 784.17 575.701 797.048 573.518C802.5 572.594 814.139 571.926 818.663 570.11L818.827 569.428C817.212 567.92 784.133 556.159 779.058 554.414C786.358 550.373 794.08 546.437 801.868 543.43C803.791 542.688 808.78 541.56 809.88 540.047L809.363 539.266C805.159 537.356 796.717 536.977 791.863 536.206C764.883 531.918 737.912 528.628 710.814 525.229C717.419 524.11 724.072 521.898 730.606 520.316C713.542 515.951 695.787 513.52 678.554 509.724C673.381 502.387 660.517 495.146 652.591 490.777C657.095 478.543 661.04 465.546 660.822 452.373C660.694 444.637 659.857 436.997 660.048 429.24L886.877 512.746C901.003 517.811 914.886 523.7 929.086 528.521C930.494 528.999 931.521 529.455 932.995 529.146L933.278 528.426C932.384 527.4 931.168 526.911 929.926 526.413C911.212 518.892 891.93 512.401 872.961 505.514L797.409 477.545C793.525 439.709 790.414 401.982 784.051 364.444C777.281 324.513 767.198 285.49 758.196 246.051C764.194 238.666 771.071 231.24 775.622 222.864C784.998 205.611 788.887 185.364 793.987 166.535C798.283 150.675 802.953 134.741 806.666 118.744Z" fill="#BAC7A8"/>
</g>
<defs>
<clipPath id="clip0_157_1370">
<rect width="1024" height="1024" fill="white"/>
</clipPath>
</defs>
</svg>
