<svg width="1280" height="195" viewBox="0 0 1280 195" fill="none" xmlns="http://www.w3.org/2000/svg">
<path d="M1 51C1 51 79.329 3 153.535 3C227.742 3 231.865 51 306.071 51C380.277 51 403.639 3 487.465 3C571.29 3 560.297 51 638.626 51C716.955 51 727.948 3 817.271 3C906.594 3 887.355 51 954.69 51C1022.03 51 1026.15 3 1115.47 3C1204.79 3 1279 51 1279 51" stroke="black" stroke-width="5"/>
<path d="M0 192C0 192 78.329 144 152.535 144C226.742 144 230.865 192 305.071 192C379.277 192 402.639 144 486.465 144C570.29 144 559.297 192 637.626 192C715.955 192 726.948 144 816.271 144C905.594 144 886.355 192 953.69 192C1021.03 192 1025.15 144 1114.47 144C1203.79 144 1278 192 1278 192" stroke="black" stroke-width="5"/>
<path d="M2 168C2 168 80.329 121 154.535 121C228.742 121 232.865 168 307.071 168C381.277 168 404.639 121 488.465 121C572.29 121 561.297 168 639.626 168C717.955 168 728.948 121 818.271 121C907.594 121 888.355 168 955.69 168C1023.03 168 1027.15 121 1116.47 121C1205.79 121 1280 168 1280 168" stroke="black" stroke-width="5"/>
<path d="M0 145C0 145 78.329 98 152.535 98C226.742 98 230.865 145 305.071 145C379.277 145 402.639 98 486.465 98C570.29 98 559.297 145 637.626 145C715.955 145 726.948 98 816.271 98C905.594 98 886.355 145 953.69 145C1021.03 145 1025.15 98 1114.47 98C1203.79 98 1278 145 1278 145" stroke="black" stroke-width="5"/>
<path d="M0 75C0 75 78.329 28 152.535 28C226.742 28 230.865 75 305.071 75C379.277 75 402.639 28 486.465 28C570.29 28 559.297 75 637.626 75C715.955 75 726.948 28 816.271 28C905.594 28 886.355 75 953.69 75C1021.03 75 1025.15 28 1114.47 28C1203.79 28 1278 75 1278 75" stroke="black" stroke-width="5"/>
<path d="M0 98C0 98 78.329 51 152.535 51C226.742 51 230.865 98 305.071 98C379.277 98 402.639 51 486.465 51C570.29 51 559.297 98 637.626 98C715.955 98 726.948 51 816.271 51C905.594 51 886.355 98 953.69 98C1021.03 98 1025.15 51 1114.47 51C1203.79 51 1278 98 1278 98" stroke="black" stroke-width="5"/>
<path d="M2 122C2 122 80.329 75 154.535 75C228.742 75 232.865 122 307.071 122C381.277 122 404.639 75 488.465 75C572.29 75 561.297 122 639.626 122C717.955 122 728.948 75 818.271 75C907.594 75 888.355 122 955.69 122C1023.03 122 1027.15 75 1116.47 75C1205.79 75 1280 122 1280 122" stroke="black" stroke-width="5"/>
</svg>
