<svg width="1024" height="1024" viewBox="0 0 1024 1024" fill="none" xmlns="http://www.w3.org/2000/svg">
<g clip-path="url(#clip0_179_2232)">
<path d="M0 0H1024V1024H0V0Z" fill="#F9EBD8"/>
<path d="M209.373 869.546C212.585 870.333 215.923 872.088 219.038 873.25C224.311 875.209 229.675 876.873 235.13 878.243C264.115 885.563 297.735 885.136 327.324 882.635C335.521 881.952 343.674 880.927 351.785 879.559C355.965 878.872 360.271 877.666 364.475 877.301C365.809 877.185 366.104 877.181 367.17 877.9C359.463 880.374 350.117 881.261 342.069 882.328C301.479 887.712 256.861 888.065 217.819 874.456C215.104 873.51 210.689 872.236 209.373 869.546Z" fill="#4F623F"/>
<path d="M116.527 327.381C115.026 343.157 113.949 358.962 113.295 374.795C112.715 389.334 113.109 403.728 110.066 418.042C113.94 422.91 119.514 425.421 125.208 427.551C126.864 448.347 126.797 468.902 127.466 489.703C131.232 493.269 136.042 495.446 140.836 497.291C141.2 512.622 141.43 532.44 153.259 543.724C156.508 546.824 160.573 549.499 165.244 549.389C167.449 549.337 169.611 548.727 171.714 548.115C173.931 563.19 175.742 578.313 177.147 593.485C141.049 593.675 104.824 587.518 75.0072 565.722C54.9444 551.057 42.4118 529.743 38.6093 505.223C35.4671 484.961 39.4984 464.426 46.0491 445.257C58.2927 409.428 74.8591 383.033 97.3421 352.663C103.637 344.16 110.309 335.936 116.527 327.381Z" fill="#C8D2B3"/>
<path d="M653.86 225.043C638.904 179.22 624.604 131.329 596.553 91.5044C592.226 85.396 587.558 79.5606 582.549 73.9981C578.91 69.9741 574.849 66.1469 571.571 61.827L571.962 61.3784L571.394 60.978L570.856 61.26L571.222 60.8945C608.25 92.8607 628.741 144.038 644.361 189.075C646.786 196.009 649.072 202.988 651.219 210.013C652.795 215.145 654.113 220.499 656.238 225.424C693.143 231.016 743.267 238.799 767.838 269.788C775.505 271.95 783.012 275.641 790.304 278.843C831.946 297.13 869.097 325.352 891.685 365.407C892.304 366.509 892.896 367.625 893.461 368.756C894.025 369.887 894.561 371.031 895.07 372.188C895.578 373.345 896.058 374.514 896.509 375.695C896.96 376.876 897.381 378.067 897.773 379.268C898.166 380.47 898.528 381.681 898.861 382.9C899.194 384.119 899.496 385.346 899.769 386.58C900.041 387.814 900.283 389.054 900.495 390.3C900.706 391.546 900.887 392.797 901.037 394.052C901.187 395.307 901.306 396.564 901.395 397.825C901.483 399.086 901.54 400.349 901.567 401.612C901.593 402.876 901.588 404.14 901.552 405.403C901.516 406.666 901.449 407.928 901.352 409.188C901.254 410.448 901.125 411.705 900.965 412.959C900.806 414.212 900.615 415.461 900.394 416.706C900.173 417.951 899.922 419.189 899.64 420.421C899.358 421.653 899.046 422.877 898.704 424.094C895.266 436.135 888.699 445.335 880.61 454.739C882.754 458.807 884.224 462.624 882.725 467.259C881.286 471.71 877.651 475.075 874.321 478.184C891.711 484.703 913.477 496.032 921.629 513.814C924.181 519.381 925.244 525.636 925.145 531.731C925.094 534.925 924.794 538.251 925.371 541.408C926.761 549.02 929.868 556.584 931.754 564.141C932.445 566.909 935.138 581.519 936.869 582.302C938.713 583.137 940.578 583.751 941.374 585.776C942.285 588.091 941.695 590.791 942.432 593.203C943.769 597.58 945.677 601.829 947.137 606.176C947.938 608.561 948.662 610.968 949.308 613.399C949.955 615.83 950.522 618.28 951.011 620.747C951.5 623.214 951.91 625.695 952.239 628.189C952.569 630.682 952.818 633.184 952.987 635.694C954.741 662.862 948.337 689.763 947.337 716.848C946.322 744.325 950.572 772.651 946.693 799.893C942.453 800.331 938.203 800.626 933.943 800.778C931.691 816.349 926.621 831.254 923.734 846.663C922.973 850.725 924.359 855.019 923.456 858.998C923.059 860.751 922.252 862.075 920.837 863.195C918.68 864.902 890.665 871.324 886.644 871.95C882.757 872.555 878.562 872.909 874.644 872.418C869.434 871.766 861.608 868.865 858.378 864.614C857.592 863.581 857.096 862.329 857.336 861.013C857.75 858.746 860.075 857.137 861.943 856.099C870.495 851.35 884.017 850.288 894.093 845.311C896.34 840.164 896.908 835.106 897.499 829.551C892.439 829.284 887.599 829.611 882.571 830.212C874.816 831.139 851.065 836.516 845.793 829.291C844.885 828.047 844.601 826.217 845.024 824.744C845.783 822.109 848.329 820.273 850.686 819.151C858.073 815.637 866.035 815.004 872.841 809.881C870.474 798.79 864.463 769.278 857.297 762.016C857.079 759.862 856.92 757.685 856.62 755.543C853.371 752.373 839.358 739.792 839.321 736.453C839.302 734.727 839.665 733.278 840.952 732.049C841.671 731.361 843.115 730.594 843.644 729.855C845.912 726.689 846.474 705.159 846.726 700.124C847.391 688.068 847.844 676.004 848.087 663.933C848.264 651.744 847.026 634.857 850.175 623.225C843.432 623.47 836.688 623.553 829.942 623.475C831.349 628.592 832.644 633.587 832.903 638.909C833.2 645.002 831.836 650.777 831.077 656.778C829.771 667.092 830.282 676.04 824.889 685.449C819.625 694.632 811.238 700.705 802.584 706.438C802.284 715.307 800.499 724.147 798.364 732.743C797.367 736.754 796.078 740.781 795.429 744.86C794.035 753.618 793.576 762.586 792.295 771.394C788.358 798.475 784.049 825.165 781.734 852.469C775.178 859.14 767.189 864.208 759.357 869.246C756.934 870.78 754.485 872.272 752.01 873.721C749.535 875.17 747.036 876.576 744.512 877.937C741.988 879.299 739.441 880.617 736.872 881.89C734.302 883.163 731.711 884.391 729.098 885.574C726.485 886.757 723.853 887.895 721.201 888.986C718.549 890.077 715.879 891.122 713.19 892.12C710.501 893.119 707.796 894.07 705.075 894.974C702.353 895.878 699.616 896.734 696.865 897.543C694.114 898.352 691.349 899.112 688.571 899.824C685.793 900.537 683.003 901.201 680.202 901.816C677.401 902.431 674.59 902.998 671.769 903.515C668.948 904.032 666.119 904.5 663.282 904.919C660.445 905.338 657.601 905.707 654.751 906.027C651.901 906.346 649.046 906.616 646.187 906.837C643.328 907.057 640.465 907.227 637.6 907.348C634.735 907.469 631.868 907.539 629 907.56C582.728 907.978 530.659 894.24 490.693 870.959C484.425 867.308 478.249 862.816 472.373 858.555C467.336 854.902 462.076 851.138 457.46 846.967C458.537 829.076 459.821 810.381 456.598 792.656C454.198 779.454 449.488 766.722 445.324 754.002L431.615 712.085C428.36 702.342 424.679 692.675 422.124 682.718C419.745 673.449 418.258 664.34 416.814 654.905C415.516 646.42 414.012 639.508 414.661 630.872C354.787 653.971 281.346 652.678 222.569 626.586C212.325 622.039 180.89 604.832 177.494 594.999C177.275 594.365 177.251 594.1 177.147 593.485C175.742 578.313 173.931 563.19 171.714 548.115C169.611 548.727 167.449 549.337 165.244 549.389C160.573 549.499 156.508 546.824 153.259 543.724C141.43 532.44 141.2 512.622 140.836 497.291C136.042 495.446 131.232 493.269 127.466 489.703C126.797 468.902 126.864 448.347 125.208 427.551C119.514 425.421 113.94 422.91 110.066 418.042C113.109 403.728 112.715 389.334 113.295 374.795C113.949 358.962 115.026 343.157 116.527 327.381C117.598 316.036 120.999 300.702 124.266 289.673C126.35 282.636 128.904 275.756 130.915 268.692C127.11 256.048 127.176 244.896 127.984 231.861C128.108 229.859 128.896 225.31 128.129 223.559C127.703 222.586 127.316 222.378 127.326 221.192C127.385 214.231 129.166 206.41 131.012 199.726C134.723 186.286 142.418 176.421 156.293 172.528C161.244 171.138 166.769 170.32 171.317 167.859C174.886 165.928 177.354 163.201 180.111 160.291C180.09 157.849 179.821 155.432 179.588 153.004C176.568 151.712 173.666 150.262 171.302 147.926C168.906 145.558 167.28 142.345 167.326 138.926C167.392 133.982 170.607 129.842 174.102 126.647C183.907 117.683 199.338 113.233 212.461 113.986C218.882 114.354 224.714 116.492 229.004 121.479C233.156 126.306 235.588 132.941 235.045 139.313C234.71 143.253 232.954 146.635 231.488 150.238C227.035 161.177 222.702 169.834 213.603 177.579C231.156 183.133 237.821 189.543 243.776 206.998C245.426 211.833 246.805 216.879 249.244 221.384L249.595 222.024C248.167 223.09 246.666 223.934 245.33 225.136C244.865 226.811 245.297 227.164 245.985 228.713C257.907 220.98 272.785 212.141 285.937 206.967C373.549 172.498 493.424 191.6 582.74 210.599C588.868 211.903 613.86 219.781 617.908 218.412L617.527 217.687C612.391 208.012 605.712 198.815 599.724 189.628C572.477 147.821 549.64 122.114 504.292 99.5933C496.966 95.9554 489.385 92.4105 481.784 89.3958C478.268 88.0013 472.103 86.5914 469.123 84.6696C468.685 84.3874 468.626 84.2598 468.349 83.8971L468.716 83.5225C477.96 85.3787 487.984 90.4899 496.531 94.4218C540.567 114.679 568.508 139.574 595.308 179.834C604.445 193.385 613.354 207.085 622.035 220.934C625.922 221.288 629.982 221.07 633.889 221.08C628.123 207.85 620.278 195.465 612.378 183.419C592.997 153.866 571.52 126.361 543.455 104.479C530.248 94.1813 516.109 85.5655 501.556 77.3464C500.581 76.7956 496.336 74.836 496.689 73.7497C501.703 74.995 515.017 83.5565 519.858 86.5706C566.962 115.897 597.039 153.853 625.429 200.976C629.905 208.407 633.737 216.207 637.633 223.951C643.018 224.256 648.512 224.351 653.86 225.043Z" fill="black"/>
<path d="M168.048 171.274L168.595 171.853C168.879 173.349 168.63 174.771 168.453 176.265L167.894 176.633C167.314 175.515 166.375 174.149 166.431 172.862C166.467 172.042 167.438 171.708 168.048 171.274Z" fill="#F9EBD8"/>
<path d="M162.826 510.115C163.921 510.554 164.033 511.226 164.596 512.218C164.947 511.293 165.128 510.366 165.327 509.4C166.06 512.65 166.737 515.912 167.356 519.185C165.747 516.245 163.926 513.283 162.826 510.115Z" fill="#D5E7C3"/>
<path d="M615.297 561.399C614.34 560.471 613.022 559.458 612.563 558.182C612.311 557.48 612.499 557.555 612.882 556.776L614.124 556.765C615.392 557.478 616.131 558.115 617.115 559.188L616.869 560.193L616.29 559.639C615.579 558.974 615.898 559.182 615.259 558.855C615.417 560.171 615.27 559.545 615.68 560.74L615.297 561.399Z" fill="#F4E6D3"/>
<path d="M587.645 562.563C586.289 561.209 584.823 560.27 584.275 558.416L585.053 558.045C586.97 558.447 588.323 559.273 589.983 560.287C589.217 561.059 588.438 561.818 587.645 562.563Z" fill="#F4E6D3"/>
<path d="M242.995 287.221C243.486 287.721 243.887 287.847 243.863 288.603C243.825 289.816 243.158 290.551 242.871 291.652L242.365 292.08C241.224 290.412 239.571 289.497 237.909 288.42C238.848 288.173 238.472 288.231 239.333 288.141C240.731 287.994 241.718 287.894 242.995 287.221Z" fill="#909D7A"/>
<path d="M604.623 552.515C606.359 552.376 608.63 552.252 610.081 553.44C611.362 554.489 611.447 555.304 611.6 556.869C609.169 556.615 606.54 553.976 604.623 552.515Z" fill="#F9EBD8"/>
<path d="M231.199 285.259C235.035 285.798 239.409 285.72 242.995 287.221C241.718 287.894 240.731 287.994 239.333 288.141C238.472 288.231 238.848 288.173 237.909 288.42C235.639 287.426 233.419 286.356 231.199 285.259Z" fill="#BAC7A8"/>
<path d="M459.459 333.803C461.835 335.728 463.714 340.964 465.149 343.76C463.782 343.403 461.969 342.843 460.988 341.772C459.234 339.853 459.532 336.243 459.459 333.803Z" fill="#C8D2B3"/>
<path d="M593.349 560.076C591.592 558.782 588.577 557.556 588.083 555.303C589.967 554.186 593.522 555.459 595.553 555.977C594.893 557.397 594.302 558.823 593.349 560.076Z" fill="#F9EBD8"/>
<path d="M628.322 559.341C625.565 556.635 620.295 553.625 618.665 550.415L619.392 549.919C623.427 550.081 627.108 552.536 629.872 555.361C629.684 555.34 629.491 555.341 629.306 555.299C626.104 554.568 624.188 550.568 620.576 551.343C623.33 553.6 626.626 555.44 628.626 558.509L628.322 559.341Z" fill="#F9EBD8"/>
<path d="M491.179 856.865C492.741 859.526 493.87 867.034 493.575 870.014L490.348 868.178C490.5 864.399 490.857 860.632 491.179 856.865Z" fill="#F9EBD8"/>
<path d="M739.431 866.097C739.617 869.473 741.259 874.668 740.165 877.802C739.881 878.618 738.395 879.155 737.649 879.576L736.948 879.735L736.543 879.053C737.029 874.722 738.132 870.254 739.431 866.097Z" fill="#F9EBD8"/>
<path d="M633.889 221.08L634.66 222.974C633.809 223.934 632.675 223.881 631.415 223.979C629.639 224.116 624.604 223.846 623.176 222.78C622.611 222.358 622.31 221.555 622.035 220.934C625.922 221.288 629.982 221.07 633.889 221.08Z" fill="#BAC7A8"/>
<path d="M589.983 560.287L592.942 562.658L595.591 565.614C594.626 566.696 593.588 567.763 592.726 568.926C591.565 567.437 590.397 565.954 589.221 564.477L587.645 562.563C588.438 561.818 589.217 561.059 589.983 560.287Z" fill="#E1E9CB"/>
<path d="M595.591 565.614C597.586 568.393 599.164 571.051 600.394 574.27C598.715 574.119 597.249 573.934 595.603 574.365L592.726 568.926C593.588 567.763 594.626 566.696 595.591 565.614Z" fill="#C8D2B3"/>
<path d="M643.525 646.071C649.568 650.759 656.627 654.525 661.596 660.44C658.568 662.616 656.414 654.72 650.598 654.568C647.908 652.259 645.715 648.877 643.525 646.071Z" fill="#4F623F"/>
<path d="M291.529 314.822C291.403 310.192 291.18 305.632 290.625 301.032C290.077 296.491 288.936 291.564 289.139 287.026C291.598 290.28 293.766 307.736 294.156 312.599L293.633 312.99C293.154 310.057 292.535 307.107 292.528 304.129C290.775 307.023 292.833 311.555 291.529 314.822Z" fill="#BAC7A8"/>
<path d="M615.297 561.399L615.68 560.74C615.27 559.545 615.417 560.171 615.259 558.855C615.898 559.182 615.579 558.974 616.29 559.639L616.869 560.193L617.115 559.188C619.592 561.193 621.787 563.849 622.828 566.908C623.564 568.293 624.32 569.66 624.925 571.108C623.6 572.504 622.788 572.571 620.924 572.957L619.248 568.384C618.106 565.98 616.641 563.695 615.297 561.399Z" fill="#E1E9CB"/>
<path d="M576.768 557.285C584.404 560.663 588.863 566.217 592.415 573.57C591.103 574.605 590.012 574.423 588.37 574.562C586.383 567.798 581.404 562.369 576.768 557.285Z" fill="#C8D2B3"/>
<path d="M573.156 575.863C570.047 568.937 566.695 563.851 559.858 560.119C559.769 558.899 559.576 559.381 560.208 558.599C562.753 558.208 565.356 560.135 567.294 561.61C571.7 564.963 574.234 570.934 576.175 575.943L573.156 575.863Z" fill="url(#paint0_linear_179_2232)"/>
<path d="M552.163 579.77C549.042 575.79 543.381 573.735 540.739 569.833L541.33 568.304C542.362 567.518 542.544 567.352 543.922 567.627C547.957 568.432 553.213 575.056 555.579 578.293C554.458 578.847 553.372 579.429 552.163 579.77Z" fill="#F4E6D3"/>
<path d="M610.556 688.415C608.392 683.136 606.165 677.975 605.006 672.37C607.184 676.999 609.861 681.299 611.828 686.05L613.476 689.815L614.338 692.554C615.524 695.781 619.348 703.524 618.321 706.713L617.51 707.182C616.407 706.621 615.874 706.31 615.493 705.069C614.261 701.049 613.827 696.968 612.379 692.913L611.529 690.95C611.376 690.142 610.863 689.194 610.556 688.415Z" fill="#D8AE56"/>
<path d="M784.254 597.916C786.759 597.909 790.127 601.924 791.898 603.606C787.383 604.001 782.598 604.98 778.117 604.116C775.288 603.69 772.581 603.743 769.732 603.811C774.615 601.952 779.456 599.987 784.254 597.916Z" fill="#F9EBD8"/>
<path d="M480.607 545.477L486.15 545.541C485.252 553.178 482.28 564.928 479.433 572.183L480.607 545.477Z" fill="#F9EBD8"/>
<path d="M243.116 281.531C244.84 282.966 248.157 285.122 248.33 287.555C248.4 288.54 247.853 289.719 247.508 290.628C245 297.348 242.718 303.991 240.891 310.934C240.231 313.939 239.34 316.93 238.562 319.909C238.554 316.247 238.822 312.641 239.128 308.993C239.56 305.816 238.846 305.222 237.07 302.583L237.68 302.426L239.097 303.801L239.714 303.632C241.261 301.116 242.963 297.545 243.519 294.636C243.696 293.711 242.851 292.855 242.365 292.08L242.871 291.652C244.507 291.538 245.238 290.962 246.487 290.013C246.284 289.077 246.012 288.232 245.581 287.376C244.494 285.224 243.155 284.623 240.922 283.948C241.972 283.881 242.971 283.845 243.993 283.581L243.116 281.531Z" fill="#BAC7A8"/>
<path d="M745.331 611.704C757.071 606.784 768.267 603.698 780.941 606.369C775.23 608.057 769.581 608.108 763.74 608.945C757.868 609.786 752.584 611.976 747.187 614.343L745.331 611.704Z" fill="#F9EBD8"/>
<path d="M559.663 580.995C555.592 573.961 550.51 569.969 543.952 565.322L544 564.683C545.804 563.822 547.356 563.098 549.39 563.813C555.508 565.964 560.302 574.37 562.994 579.884L559.663 580.995Z" fill="url(#paint1_linear_179_2232)"/>
<path d="M894.744 499.183C897.464 501.193 900.301 503.273 902.652 505.706C905.462 508.023 908.598 510.503 910.661 513.538C907.702 511.357 905.028 509.498 901.461 508.41C895.851 508.266 891.793 509.304 886.698 511.465C889.135 507.218 891.98 503.22 894.744 499.183Z" fill="#F9EBD8"/>
<path d="M745.331 611.704L747.187 614.343C742.887 616.458 739.39 619.871 735.52 622.641C730.691 626.096 725.672 628.513 721.204 632.547C726.854 622.477 734.9 616.352 745.331 611.704Z" fill="#D8AE56"/>
<path d="M596.738 553.759L602.208 553.176C609.351 557.182 613.939 562.117 617.428 569.532C615.872 570.279 614.384 571.068 612.905 571.958C609.327 564.296 604.019 558.048 596.738 553.759Z" fill="#F4E6D3"/>
<path d="M628.322 559.341L628.626 558.509C626.626 555.44 623.33 553.6 620.576 551.343C624.188 550.568 626.104 554.568 629.306 555.299C629.491 555.341 629.684 555.34 629.872 555.361C635.51 558.63 639.018 567.507 640.938 573.407C638.874 573.899 637.675 573.894 635.63 573.2C634.414 568.165 631.133 563.574 628.322 559.341Z" fill="#F4E6D3"/>
<path d="M634.581 549.901C647.442 557.868 651.645 562.395 655.927 577.049L650.332 576.193C647.307 565 642.948 557.778 634.581 549.901Z" fill="#F4E6D3"/>
<path d="M624.652 225.51C628.501 225.536 632.359 225.747 636.206 225.891L641.755 236.048L630.604 235.264L624.652 225.51Z" fill="#D5E7C3"/>
<path d="M623.692 548.693C626.565 548.5 629.626 548.029 632.459 548.625C633.482 549.747 632.594 549.588 632.995 550.613C633.564 552.067 638.359 556.453 639.666 558.105C643.376 562.792 645.517 568.383 647.276 574.037C645.763 574.336 644.668 573.699 643.223 573.211C639.587 562.777 634.653 553.952 624.343 548.999L623.692 548.693Z" fill="#F4E6D3"/>
<path d="M628.543 574.326C625.748 566.616 622.606 561.108 616.237 555.829C615.063 554.856 613.458 553.3 612.124 552.642L612.415 551.455C616.203 551.201 619.798 554.296 622.485 556.675C628.125 561.669 631.642 567.842 633.917 574.978C631.762 575.787 630.566 575.19 628.543 574.326Z" fill="#F4E6D3"/>
<path d="M640.938 573.407C643.981 585.165 644.238 596.316 639.113 607.503C638.896 594.302 639.73 586.248 635.63 573.2C637.675 573.894 638.874 573.899 640.938 573.407Z" fill="#D8AE56"/>
<path d="M595.553 555.977C602.579 559.511 607.3 564.834 610.423 572.023C609.261 573.375 607.402 573.486 605.825 574.143C601.244 569.866 597.768 564.55 593.349 560.076C594.302 558.823 594.893 557.397 595.553 555.977Z" fill="#E1E9CB"/>
<path d="M658.642 578.465L661.815 581.117L663.333 582.547C663.974 581.714 664.126 581.043 664.351 580.025C665.034 586.355 665.543 592.171 664.224 598.455C663.756 600.686 661.169 609.225 659.49 610.314L658.239 609.536C657.767 606.395 659.547 601.736 659.838 598.369C660.42 591.641 659.752 585.101 658.642 578.465Z" fill="#D8AE56"/>
<path d="M592.415 573.57C596.255 581.323 597.241 592.33 594.381 600.56C593.936 601.842 593.382 602.795 592.583 603.881L591.825 604.001C590.378 600.459 591.273 592.461 590.91 588.234C590.512 583.593 589.665 579.036 588.37 574.562C590.012 574.423 591.103 574.605 592.415 573.57Z" fill="#D8AE56"/>
<path d="M566.123 557.766C568.829 557.933 571.558 558.038 574.257 558.285C579.882 562.22 584.061 568.553 586.313 574.984C583.55 574.718 580.873 574.651 578.099 574.687C575.296 568.033 571.792 562.368 566.123 557.766Z" fill="#E1E9CB"/>
<path d="M638.927 226.077C644.03 226.295 649.125 226.641 654.211 227.116C655.33 230.363 656.229 233.714 657.212 237.006C652.879 236.564 648.514 236.314 644.173 235.926C642.449 232.619 640.537 229.45 638.927 226.077Z" fill="#F9EBD8"/>
<path d="M565.852 580.466C563.187 574.518 558.334 565.253 551.91 562.804C551.027 562.467 550.798 562.401 550.025 561.773C550.327 561.626 550.617 561.454 550.93 561.333C553.078 560.502 557.006 560.823 559.021 561.822C565.483 565.023 568.954 571.138 571.252 577.653C569.431 578.56 567.629 579.477 565.852 580.466Z" fill="#F4E6D3"/>
<path d="M610.423 572.023C615.254 582.115 616.213 596.096 612.549 606.718C612.114 607.98 611.712 609.092 610.845 610.128L609.98 610.505L608.983 609.836C609.217 607.17 609.972 604.658 610.294 602.015C611.42 592.788 611.451 582.021 605.825 574.143C607.402 573.486 609.261 573.375 610.423 572.023Z" fill="#D8AE56"/>
<path d="M601.715 572.312C603.455 573.76 604.908 575.749 605.909 577.77C610.281 586.596 610.516 601.259 607.172 610.422C605.954 610.478 604.411 610.733 603.278 610.232C602.191 609.75 604.342 600.538 604.592 598.627C605.818 589.261 604.412 581.245 601.715 572.312Z" fill="#D8AE56"/>
<path d="M624.925 571.108L626.471 574.92L626.743 577.022C629.267 583.693 631.437 596.291 628.914 603.033C627.986 603.922 627.872 603.976 626.511 604.004C625.76 604.02 625.966 603.979 625.114 603.588C624.827 600.776 625.367 597.948 625.309 595.122C625.2 589.846 623.818 583.924 622.661 578.769L621.787 576.014L620.924 572.957C622.788 572.571 623.6 572.504 624.925 571.108Z" fill="#D8AE56"/>
<path d="M667.318 584.913C669.443 585.346 671.399 585.501 673.566 585.51C673.464 587.96 673.428 590.431 673.16 592.869C672.191 598.817 670.922 603.978 668.605 609.545C666.302 610.138 663.951 610.529 661.614 610.964C664.763 604.514 666.566 598.804 667.524 591.672L667.318 584.913Z" fill="#D8AE56"/>
<path d="M628.543 574.326C630.566 575.19 631.762 575.787 633.917 574.978C636.608 585.03 638.122 594.429 636.861 604.807L631.178 604.255C632.276 593.498 631.459 584.745 628.543 574.326Z" fill="#D8AE56"/>
<path d="M262.556 416.827C263.513 419.556 263.957 422.603 264.701 425.418C268.051 438.096 270.783 442.525 279.713 452.12C278.949 452.083 278.186 452.027 277.425 451.951C273.045 451.482 269.062 449.502 266.382 445.949C260.746 438.473 261.539 425.6 262.556 416.827Z" fill="#909D7A"/>
<path d="M650.332 576.193L655.927 577.049C658.091 588.449 658.392 597.796 655.908 609.201L650.536 607.726C653.834 596.696 652.904 587.303 650.332 576.193Z" fill="#D8AE56"/>
<path d="M643.223 573.211C644.668 573.699 645.763 574.336 647.276 574.037C650.833 584.786 651.46 596.187 648.438 607.08C646.372 606.651 644.316 606.146 642.258 605.678C646.129 594.607 645.514 584.584 643.223 573.211Z" fill="#D8AE56"/>
<path d="M215.116 180.031L220.057 181.93C220.567 183.512 220.958 185.093 221.203 186.737C221.754 190.431 223.046 209.868 220.837 212.854L214.81 212.262C216.797 201.108 217.068 191.219 215.116 180.031Z" fill="#F9EBD8"/>
<path d="M573.859 621.719C584.378 629.939 597.249 649.441 603.093 661.835C604.868 664.898 606.594 667.988 608.271 671.105C610.643 675.634 612.804 680.157 614.829 684.852C616.32 688.693 623.352 704.548 622.357 706.999C621.047 706.617 620.738 706.027 620.145 704.846C617.206 698.99 616.023 691.95 613.419 685.842C611.106 681.322 609.078 676.73 606.297 672.462C603.723 669.12 601.893 664.86 600.133 661.039L599.64 660.218C595.868 653.883 593.195 646.825 589.061 640.712C584.486 633.947 578.502 628.357 573.859 621.719Z" fill="#D8AE56"/>
<path d="M657.992 666.875C663.251 669.71 668.077 675.504 672.044 679.957C675.711 684.075 687.219 697.996 686.89 703.557L680.177 704.634C678.383 696.163 672.88 686.349 667.655 679.46C664.6 675.432 661.115 671.746 658.377 667.482L657.992 666.875Z" fill="#D8AE56"/>
<path d="M665.057 684.628C663.504 679.926 661.251 675.337 659.526 670.673C661.984 674.003 664.733 677.397 666.665 681.055C671.739 688.595 675.372 696.383 678.763 704.776L668.251 705.876C667.926 698.53 666.728 691.768 665.057 684.628Z" fill="#D8AE56"/>
<path d="M658.642 578.465C656.375 570.949 653.333 560.478 646.651 555.532C643.87 553.472 640.299 551.946 638.097 549.237L638.469 548.764C638.889 548.814 639.307 548.874 639.724 548.944C640.141 549.015 640.555 549.095 640.968 549.185C641.381 549.276 641.791 549.376 642.199 549.486C642.607 549.597 643.012 549.717 643.415 549.847C643.817 549.977 644.216 550.117 644.611 550.266C645.006 550.415 645.398 550.574 645.786 550.743C646.173 550.912 646.556 551.089 646.935 551.276C647.314 551.463 647.689 551.66 648.058 551.865C648.427 552.07 648.792 552.284 649.151 552.507C649.51 552.73 649.864 552.961 650.211 553.202C650.559 553.442 650.901 553.69 651.237 553.947C651.572 554.204 651.901 554.468 652.224 554.741C652.547 555.014 652.864 555.294 653.173 555.582C653.482 555.87 653.784 556.166 654.079 556.469C654.374 556.772 654.661 557.081 654.941 557.398C655.221 557.715 655.493 558.038 655.757 558.368C660.602 564.466 662.887 572.516 664.351 580.025C664.126 581.043 663.974 581.714 663.333 582.547L661.815 581.117L658.642 578.465Z" fill="#F4E6D3"/>
<path d="M617.428 569.532C620.346 576.16 625.436 595.77 622.893 602.296C622.55 603.175 622.307 603.549 621.446 604.013C620.037 604.772 618.28 605.07 616.756 605.87C616.05 606.24 616.277 606.106 615.283 606.14C615.399 602.973 616.153 599.896 616.562 596.76C617.669 588.272 616.035 579.837 612.905 571.958C614.384 571.068 615.872 570.279 617.428 569.532Z" fill="#D8AE56"/>
<path d="M736.387 799.601L736.822 799.896L736.729 800.975C733.594 805.091 729.445 808.241 724.699 810.327C717.618 813.439 708.447 810.288 701.742 807.605C699.546 806.573 697.506 805.257 695.437 803.994C712.002 804.422 720.32 803.892 736.387 799.601Z" fill="#D8AE56"/>
<path d="M184.492 593.822C188.241 593.517 196.991 591.593 200.254 593.044L200.914 594.694C200.878 600.905 201.277 607.132 201.55 613.336C195.708 609.249 189.9 605.176 184.621 600.363L184.492 593.822Z" fill="#F9EBD8"/>
<path d="M600.394 574.27C604.761 586.316 602.9 598.745 600.513 611.025C596.608 611.272 592.751 611.413 588.838 611.373L589.105 610.665C590.756 606.403 592.918 607.095 594.75 604.054C599.397 596.342 598.54 582.611 595.603 574.365C597.249 573.934 598.715 574.119 600.394 574.27Z" fill="#D8AE56"/>
<path d="M659.906 275.033C663.314 275.531 666.785 275.787 670.213 276.137C671.784 281.209 673.321 287.715 673.088 293.062C672.945 296.34 672.204 297.7 669.824 299.906L664.366 303.603C664.832 293.737 662.577 284.437 659.906 275.033Z" fill="#D8AE56"/>
<path d="M178.362 164.903C178.624 168.293 178.12 172.075 178.076 175.52C177.935 186.682 178.418 197.599 181.303 208.448C180.635 209.34 180.705 209.317 179.608 209.499C177.844 208.63 177.815 208.684 177.023 206.897C174.205 195.547 168.953 182.54 170.722 170.863C173.518 169.039 175.969 167.237 178.362 164.903Z" fill="#F9EBD8"/>
<path d="M667.318 584.913C665.579 573.588 662.484 560.022 652.714 552.788C650.875 551.426 645.744 549.819 644.731 548.169C650.327 547.39 656.522 550.289 660.895 553.609C668.616 559.472 672.229 570.217 673.258 579.508C673.478 581.498 673.522 583.51 673.566 585.51C671.399 585.501 669.443 585.346 667.318 584.913Z" fill="#F9EBD8"/>
<path d="M147.958 446.394L155.706 452.988C158.213 471.981 161.979 490.558 165.327 509.4C165.128 510.366 164.947 511.293 164.596 512.218C164.033 511.226 163.921 510.554 162.826 510.115C159.587 504.246 158.117 491.837 156.621 485.003C153.841 472.109 150.953 459.239 147.958 446.394Z" fill="#C8D2B3"/>
<path d="M647.529 273.661C650.947 274.136 654.424 274.382 657.859 274.723C660.594 282.887 664.149 297.043 662.338 305.359C661.018 305.384 659.198 305.45 658.005 304.818C656.825 304.192 655.935 303.391 655.376 302.16C653.563 298.164 653.034 292.818 651.934 288.531C650.652 283.536 649.033 278.593 647.529 273.661Z" fill="#D8AE56"/>
<path d="M851.681 625.226C853.055 626.234 853.761 627.86 854.589 629.313C854.27 641.399 853.387 653.516 852.751 665.593C851.647 688.462 850.427 711.324 849.092 734.18C848.115 734.125 847.795 733.511 847.088 732.874C845.518 729.337 848.175 710.769 848.459 705.707C849.314 688.751 849.933 671.787 850.317 654.814C850.558 645.006 849.818 634.884 851.681 625.226Z" fill="#F9EBD8"/>
<path d="M877.716 481.9C888.651 484.509 902.404 494.218 910.314 502.108C919.427 511.199 923.301 521.291 923.355 534.109C922.025 532.987 917.138 520.383 915.757 517.828C909.9 506.993 898.845 500.191 889.599 492.556C885.505 489.175 881.742 485.374 877.716 481.9Z" fill="#F9EBD8"/>
<path d="M119.689 320.895C122.834 303.664 126.812 287.7 132.326 271.065C133.188 272.691 134.152 274.315 134.924 275.982C131.844 290.613 130.012 305.572 128.061 320.392C125.064 319.854 122.61 320.283 119.689 320.895Z" fill="#F9EBD8"/>
<path d="M859.624 756.16C862.989 757.209 866.305 759.073 869.629 760.344C876.096 762.817 882.447 763.781 889.272 764.55C889.418 769.017 889.728 773.453 890.083 777.906C882.414 777.299 875.441 774.915 868.903 770.875C865.135 768.547 862.373 766.127 861.384 761.685C860.949 759.731 860.351 758.02 859.624 756.16Z" fill="#F9EBD8"/>
<path d="M631.632 236.913C635.223 237.158 638.815 237.373 642.409 237.556C648.012 249.209 653.253 260.899 657.476 273.128L646.892 271.889C642.494 259.816 637.377 248.4 631.632 236.913Z" fill="#C8D2B3"/>
<path d="M644.835 237.906L657.85 238.916C661.469 250.895 665.386 262.775 669.602 274.557C666.223 273.929 662.777 273.642 659.361 273.275C655.554 261.058 650.156 249.513 644.835 237.906Z" fill="#C8D2B3"/>
<path d="M940.846 596.186C941.441 597.868 942.186 599.596 942.572 601.336C942.291 601.521 942.007 601.699 941.731 601.891C936.88 605.254 933.7 611.284 929.153 615.164C912.013 629.785 886.128 634.671 864.304 631.392C861.867 631.051 859.493 630.46 857.18 629.619C856.044 627.681 854.62 625.664 854.02 623.491L854.641 622.989C867.049 630.321 883.407 629.549 897.006 626.114C912.62 622.169 931.361 612.708 939.753 598.244C940.146 597.569 940.496 596.885 940.846 596.186Z" fill="#F9EBD8"/>
<path d="M249.396 371.971C248.428 378.864 246.897 386.064 244.994 392.754C244.842 398.684 242.063 406.495 240.898 412.518C239.65 418.668 238.696 424.863 238.037 431.103C237.377 437.344 237.014 443.601 236.948 449.876L225.452 447.137C227.626 436.451 231.294 426.592 234.85 416.336L243.26 391.473C244.787 384.912 247.298 378.381 249.396 371.971Z" fill="#909D7A"/>
<path d="M465.417 546.535C469.122 546.313 475.077 544.722 478.19 546.838C478.589 547.986 478.561 548.982 478.579 550.183C478.343 559.173 478.66 568.68 477.438 577.576C474.118 578.707 470.85 580.274 467.612 581.636C465.859 570.27 465.793 558.033 465.417 546.535Z" fill="#F9EBD8"/>
<path d="M578.099 574.687C580.873 574.651 583.55 574.718 586.313 574.984C588.192 582.349 591.308 603.263 588.072 610.012C587.014 612.217 581.543 615.12 579.198 615.526C578.35 615.673 578.316 615.645 577.571 615.638C576.772 614.691 577.079 614.11 577.142 612.924C576.261 607.934 576.537 602.867 576.448 597.817C576.314 590.192 575.314 583.179 573.156 575.863L576.175 575.943C580.283 587.412 581.625 599.886 578.326 611.789C578.848 610.993 579.366 610.187 579.799 609.338C584.987 599.179 581.528 584.829 578.099 574.687Z" fill="#D8AE56"/>
<path d="M688.605 591.973C691.237 592.129 694.121 592.548 696.733 592.201C714.017 597.236 720.318 600.411 735.305 610.431C732.97 612.439 730.632 614.489 728.157 616.323L717.094 613.813C707.746 603.589 706.612 605.424 695.952 599.197C693.466 597.744 689.371 594.908 688.605 591.973Z" fill="#F9EBD8"/>
<path d="M564.533 621.361C567.386 621.339 569.309 622.145 571.614 623.852C575.001 626.36 577.749 629.773 580.41 633.003C592.099 647.19 598.874 663.058 605.529 679.982C609.014 688.846 612.7 697.344 613.952 706.861C612.166 706.919 610.34 706.776 608.552 706.718C605.378 688.224 595.125 662.428 585.058 646.442C582.163 641.858 578.998 637.468 575.564 633.273C572.131 629.077 568.454 625.106 564.533 621.361Z" fill="#D8AE56"/>
<path d="M571.252 577.653C574.713 590.27 574.844 602.472 574.938 615.437C570.915 617.114 564.803 620.01 560.436 618.841L559.672 618.067C562.329 605.108 562.054 600.456 557.158 587.905C555.642 585.1 553.893 582.447 552.163 579.77C553.372 579.429 554.458 578.847 555.579 578.293C556.804 580.287 558.512 582.643 558.879 584.984C562.839 591.986 564.564 599.297 564.926 607.29C565.031 609.604 564.644 612.598 565.471 614.76L565.89 614.737C566.352 612.449 566.629 610.304 566.698 607.971C566.394 597.715 564.126 590.205 559.663 580.995L562.994 579.884C566.633 588.85 569.823 600.078 568.827 609.862C569.153 610.738 569.254 610.963 569.945 611.648C572.371 603.116 568.754 588.622 565.852 580.466C567.629 579.477 569.431 578.56 571.252 577.653Z" fill="#D8AE56"/>
<path d="M936.409 584.672C937.504 585.216 938.296 585.708 939.012 586.733C940.164 588.38 940.376 591.028 939.899 592.925C937.696 601.7 925.336 610.841 918.082 615.315C917.027 615.96 915.957 616.58 914.872 617.173C913.787 617.766 912.689 618.333 911.577 618.872C910.464 619.412 909.339 619.925 908.202 620.41C907.065 620.895 905.916 621.353 904.757 621.782C903.598 622.212 902.428 622.613 901.249 622.986C900.07 623.359 898.883 623.703 897.687 624.018C896.492 624.333 895.289 624.619 894.08 624.876C892.87 625.133 891.655 625.36 890.434 625.558C889.214 625.756 887.99 625.924 886.761 626.062C885.532 626.201 884.3 626.309 883.066 626.388C881.832 626.467 880.597 626.515 879.361 626.534C878.124 626.553 876.888 626.541 875.653 626.5C874.417 626.459 873.183 626.387 871.951 626.286C870.718 626.185 869.489 626.054 868.263 625.893C867.037 625.732 865.816 625.541 864.599 625.321C863.382 625.1 862.172 624.851 860.967 624.572C860.018 623.902 859.428 623.535 858.256 623.377C857.004 623.207 857.554 623.503 856.701 622.688L856.875 622.115C860.257 622.049 863.484 620.417 866.753 620.485C870.532 620.565 874.369 621.708 878.171 621.97C888.15 622.659 899.518 619.266 908.295 614.703C917.767 609.777 928.291 602.176 933.508 592.604C934.84 590.16 935.582 587.32 936.409 584.672Z" fill="#F9EBD8"/>
<path d="M789.761 756.317C790.678 754.806 791.539 753.193 792.551 751.75C792.184 755.041 791.94 758.415 791.329 761.669C791.368 766.544 790.054 772.081 789.279 776.92L784.611 805.814C782.198 821.151 780.925 836.533 779.362 851.964C777.675 853.421 775.871 854.765 774.122 856.148C775.357 825.838 780.869 795.845 782.982 765.606C785.362 762.597 787.55 759.45 789.761 756.317Z" fill="#F9EBD8"/>
<path d="M843.411 513.278L843.685 513.405C844.744 515.758 839.009 551 838.357 556.385C834.433 554.467 830.815 552.191 827.349 549.542C824.592 546.96 821.782 544.307 819.764 541.093C824.623 531.709 830.793 523.136 835.107 513.433C837.925 513.581 840.601 513.499 843.411 513.278Z" fill="#F9EBD8"/>
<path d="M307.068 353.136C308.072 358.651 309.017 364.183 310.246 369.654C315.946 387.411 319.489 406.663 337.614 415.9C348.326 421.36 358.681 421.515 370.231 419.166C371.854 418.836 371.478 418.815 372.533 420.143C372.618 421.633 372.318 422.389 371.283 423.491C368.423 426.534 365.035 428.078 361.062 429.069C360.891 429.098 360.721 429.131 360.55 429.156C349.369 430.764 339.117 427.325 330.239 420.546C315.942 409.63 310.878 389.603 308.652 372.599L307.699 366.61C307.463 362.127 307.124 357.624 307.068 353.136Z" fill="#909D7A"/>
<path d="M675.973 585.771L683.938 587.741C687.358 588.438 691.457 588.907 694.624 590.351C695.302 591.158 695.81 591.684 696.733 592.201C694.121 592.548 691.237 592.129 688.605 591.973C689.371 594.908 693.466 597.744 695.952 599.197C706.612 605.424 707.746 603.589 717.094 613.813C709.198 612.842 701.357 611.818 693.402 611.476C688.575 611.268 675.9 613.167 672.223 611.284C671.48 610.131 671.063 609.719 671.266 608.273C671.657 605.49 673.112 602.369 673.912 599.644C675.256 595.06 675.635 590.52 675.973 585.771Z" fill="#D8AE56"/>
<path d="M896.462 810.944L897.003 811.219C898.705 815.298 897.533 822.827 897.329 827.328C882.261 825.956 861.323 834.837 848.112 828.823C847.354 827.613 846.927 826.68 847.341 825.241C848.748 820.353 860.638 818.262 865.049 816.531C868 815.373 870.826 813.907 873.64 812.454C875.223 813.422 876.717 814.005 878.525 814.444C885.521 816.146 890.485 814.594 896.462 810.944Z" fill="#F9EBD8"/>
<path d="M745.815 617.423C746.026 617.629 746.093 617.944 746.213 618.214L744.122 621.174C744.158 621.471 744.095 621.8 744.232 622.066C745.358 624.258 771.442 636.193 776.642 639.659C779.568 641.609 782.18 643.928 784.311 646.741C788.591 652.394 791.327 659.825 790.257 666.903C789.925 669.094 789.54 671.194 787.69 672.598L786.671 672.407L785.532 670.736L784.769 669.321C773.049 647.741 757.601 634.26 734.08 627.29C738.292 624.415 741.654 620.447 745.815 617.423Z" fill="#D8AE56"/>
<path d="M495.56 445.652C498.388 442.743 501.282 439.876 503.999 436.864C504.323 454.596 498.044 472.147 494.331 489.345C490.405 507.529 487.386 526.954 486.15 545.541L480.607 545.477C482.14 523.726 485.671 502.545 489.582 481.113C491.703 469.491 495.385 457.465 495.56 445.652Z" fill="#C8D2B3"/>
<path d="M585.79 618.344C590.056 619.33 593.895 621.881 597.193 624.683C604.864 631.201 620.242 650.114 626.734 658.581C630.036 662.888 632.752 667.712 636.501 671.652C630.761 654.736 612.436 639.286 600.622 626.104C612.088 634.011 621.656 642.46 631.003 652.825C643.709 668.513 650.051 687.189 654.839 706.5L648.676 706.734C647.165 701.497 645.375 696.358 643.306 691.316C641.237 686.273 638.902 681.357 636.301 676.568C634.834 673.808 631.745 673.484 629.995 671.067C617.092 653.237 604.12 630.735 585.79 618.344Z" fill="#D8AE56"/>
<path d="M864.572 770.301C869.783 773.121 874.071 776.487 879.825 778.403C881.827 779.07 887.27 780.866 889.005 779.999L889.479 779.116L890.169 779.753C891.594 786.639 895.221 792.903 896.651 799.72C897.36 803.1 896.577 806.147 894.758 809.031C894.093 809.649 893.373 810.196 892.6 810.673C891.827 811.15 891.015 811.546 890.164 811.863C886.591 813.173 881.012 814.032 877.485 812.126C876.34 811.506 875.688 810.825 875.194 809.596C873.047 804.246 872.346 797.703 870.923 792.082C869.07 784.766 866.653 777.56 864.572 770.301Z" fill="#F9EBD8"/>
<path d="M419.814 660.781C420.005 660.951 420.215 661.101 420.386 661.29C424.535 665.889 425.557 672.188 428.167 677.578C430.487 682.369 434.495 686.273 436.605 691.184C439.062 696.903 439.955 703.773 441.769 709.788C449.709 736.129 457.847 761.325 458.359 789.106C457.745 788.3 457.875 788.646 457.649 787.711C455.206 777.621 451.874 767.951 448.726 758.072C443.875 742.689 438.884 727.352 433.755 712.059C428.117 695.216 422.182 678.474 419.814 660.781Z" fill="#F9EBD8"/>
<path d="M142.847 497.771C147.94 499.546 152.829 500.946 158.187 501.653C159.058 509.83 162.965 515.378 166.166 522.642C168.344 527.586 169.652 533.013 170.243 538.371C170.528 540.947 170.937 543.632 170.648 546.211C169.066 546.639 167.4 547.102 165.76 547.208C161.425 547.49 157.412 545.075 154.37 542.206C143.637 532.082 143.226 511.649 142.847 497.771Z" fill="#C8D2B3"/>
<path d="M584.302 615.334C585.956 614.4 587.62 613.323 589.602 613.501C591.915 613.71 595.792 616.27 597.973 617.32C614.3 625.183 631.231 634.619 642.918 648.798C652.995 661.022 667.568 689.777 666.038 705.982L665.381 705.965C662.73 702.764 661.141 689.893 659.063 684.442C652.588 667.459 639.937 651.319 626.454 639.306C623.652 636.809 620.531 633.821 617.067 632.279L616.652 632.661L617.424 634.284C621.044 636.392 625.596 639.788 628.104 643.149C643.107 657.793 656.259 676.485 660.6 697.29C661.06 699.497 661.804 702.073 661.918 704.294C661.956 705.041 661.905 705.183 661.797 705.828C660.185 706.413 658.576 706.415 656.883 706.499C651.392 683.058 642.878 663.411 626.962 645.146C623.612 641.945 620.223 638.786 616.796 635.668C606.681 627.688 596.287 620.227 584.302 615.334Z" fill="#D8AE56"/>
<path d="M828.311 663.867C828.709 666.679 828.174 669.777 827.631 672.547C825.16 685.157 815.941 695.014 805.595 701.95C797.881 707.121 768.025 723.844 760.964 722.483L759.967 720.514L756.274 711.868C763.211 708.583 770.955 706.955 778.064 704.022C796.956 696.225 818.013 681.718 828.311 663.867Z" fill="#F9EBD8"/>
<path d="M895.726 847.245C905.181 849.079 911.923 851.279 921.488 847.834C921.584 850.94 922.454 857.717 920.476 860.193C918.167 863.083 893.304 868.153 887.67 869.638C884.093 870.234 880.606 870.598 876.982 870.328C871.938 869.952 863.712 867.957 860.517 863.814C859.606 862.633 859.433 862.14 859.681 860.691C864.129 855.401 886.974 850.947 895.124 847.505L895.726 847.245Z" fill="#F9EBD8"/>
<path d="M794.426 622.655C796.708 622.35 799.121 622.407 801.427 622.318C806.494 627.985 809.804 635.293 809.349 643.019C808.658 654.731 800.112 663.679 791.815 671.009C792.841 667.491 793.059 664.578 792.685 660.967C792.476 659.887 792.234 658.814 791.959 657.749C788.262 643.763 778.112 638.025 766.322 631.353C769.225 630.268 772.321 629.544 775.268 628.549C781.605 626.412 787.805 623.773 794.426 622.655Z" fill="#F9EBD8"/>
<path d="M656.442 227.232C686.362 232.039 716.028 237.129 742.996 251.741C750.47 255.79 758.354 260.802 763.464 267.746C758.782 267.129 754.128 264.382 749.668 262.721C744.919 259.845 738.537 258.629 733.068 258.423C710.371 246.433 684.662 240.588 659.346 237.241L656.442 227.232Z" fill="#F9EBD8"/>
<path d="M252.522 286.743C254.124 286.438 255.429 286.148 256.91 286.866C257 287.208 257.191 287.538 257.18 287.891C257.109 290.238 254.51 293.587 253.498 295.727C251.519 299.911 249.93 304.561 248.59 308.99C241.639 331.961 237.251 355.719 229.612 378.51C227.567 384.612 225.537 390.706 222.467 396.385C217.017 406.468 208.883 414.876 202.746 424.546C200.909 427.441 198.079 436.329 195.287 437.716L193.342 436.989L187.327 434.443C197.634 416.035 215.212 400.889 223.46 381.752C226.669 374.308 228.246 365.125 230.31 357.232C236.115 335.027 241.882 308.126 250.991 287.36L251.92 287.466L252.522 286.743Z" fill="#909D7A"/>
<path d="M285.814 283.697C286.811 283.881 286.93 283.929 287.776 284.6C287.09 290.991 288.126 297.428 288.437 303.822C288.757 310.405 288.355 317.529 287.384 324.062C286.052 333.03 283.549 341.674 281.516 350.488C277.899 366.159 274.25 382.735 272.826 398.757C271.442 414.339 272.48 432.294 282.295 445.296C284.14 447.74 286.917 449.216 288.879 451.552C287.82 452.339 285.551 452.072 284.184 452.105C283.406 452.007 282.607 451.931 281.859 451.678C276.407 449.836 271.975 441.664 269.721 436.651C266.401 429.265 263.307 419.49 263.527 411.321C263.843 399.568 267.944 386.794 270.537 375.366C273.698 361.075 276.547 346.722 279.084 332.307C280.842 321.859 281.784 311.226 283.018 300.704C283.651 295.308 283.905 288.782 285.814 283.697Z" fill="#909D7A"/>
<path d="M444.245 654.493C441.943 651.334 440.275 647.106 439.536 643.272C438.125 635.953 439.849 628.776 444 622.654C458.891 600.692 493.293 588.301 518.255 582.243C527.349 580.036 536.712 578.588 545.916 576.895C548.486 579.224 550.495 581.843 552.468 584.676C539.097 588.197 525.283 589.616 511.831 592.71C489.753 597.788 459.767 610.614 447.997 630.819C443.163 639.117 444.506 645.493 444.245 654.493Z" fill="#F9EBD8"/>
<path d="M871.331 479.877C873.662 480.376 881.519 488.648 883.418 490.835C880.272 505.244 871.805 529.041 863.412 540.871C862.315 541.943 861.225 543.065 859.591 543.166C858.772 543.216 858.01 543.037 857.368 542.534C851.321 537.79 854.044 515.237 853.363 507.737C853.345 507.547 853.324 507.356 853.305 507.166C858.971 500.967 861.75 494.79 862.662 486.468C865.478 484.125 868.256 481.873 871.331 479.877Z" fill="#F9EBD8"/>
<path d="M625.501 706.971C621.86 696.902 618.226 686.718 613.821 676.952C606.532 660.792 589.558 630.102 575.541 619.219C575.4 619.11 575.256 619.004 575.113 618.896L575.382 618.206C575.883 618.035 575.977 617.977 576.583 617.921C579.359 617.669 581.894 618.469 584.111 620.058C602.237 631.314 614.136 652.716 627.032 669.407C629.137 672.131 632.195 673.982 634.018 676.95C639.408 685.727 644.402 696.902 646.938 706.849L640.079 707.002C631.528 680.561 614.783 657.313 597.522 635.896C593.636 631.074 588.634 623.896 583.115 621C583.053 620.967 582.989 620.938 582.926 620.907C585.042 624.435 588.191 627.527 590.831 630.682C596.306 637.223 609.663 653.25 612.805 660.03C614.457 661.898 615.943 663.788 617.407 665.802L619.275 668.893C623.703 675.698 636.996 699.174 637.375 706.404C636.31 707.11 635.961 706.905 634.721 706.893C633.238 705.495 632.722 702.784 631.997 700.89C627.991 690.43 623.056 679.093 617.092 669.58L615.169 666.576C614.188 665.493 613.161 664.454 612.14 663.409L611.967 663.578C612.264 665.746 614.265 668.122 615.4 670.059C621.635 680.704 628.248 695.205 631.995 706.961L625.501 706.971Z" fill="#D8AE56"/>
<path d="M144.146 181.53C145.805 181.426 147.63 181.269 149.261 181.668C152.286 182.406 154.813 185.051 156.34 187.647C161.685 196.731 163.029 217.914 160.428 228.253C156.767 227.696 153.007 227.51 149.316 227.198C141.995 226.162 136.142 224.388 129.431 221.255C129.674 218.952 129.951 216.654 130.262 214.359C131.855 203.036 134.517 188.859 144.146 181.53Z" fill="#F9EBD8"/>
<path d="M837.758 564.37C839.39 578.464 842.007 584.268 851.96 594.424C850.602 596.31 849.18 597.872 847.488 599.464C832.206 602.907 816.602 602.454 801.068 603.385L794.259 603.613C792.031 601.177 789.506 599.024 787.057 596.817C805.386 588.891 824.647 580.044 837.758 564.37Z" fill="#F9EBD8"/>
<path d="M179.411 270.878C180.029 270.611 180.643 270.332 181.263 270.07C190.287 266.254 210.683 254.041 218.254 247.906C221.288 245.448 223.869 242.523 226.491 239.645C225.518 259.302 225.856 262.664 239.455 277.743C240.642 279.037 241.863 280.3 243.116 281.531L243.993 283.581C242.971 283.845 241.972 283.881 240.922 283.948C225.854 286.201 194.17 276.432 179.411 270.878Z" fill="#C8D2B3"/>
<path d="M807.829 474.723C814.781 476.181 821.901 476.951 828.897 478.189C837.009 479.624 853.777 484.619 861.546 483.159L861.975 484.034C859.18 486.208 859.265 493.323 857.598 497.119C855.252 502.46 849.818 508.408 844.242 510.495C840.567 511.87 836.875 511.429 833.401 509.694C820.428 503.215 812.466 487.706 807.829 474.723Z" fill="#F9EBD8"/>
<path d="M290.503 284.444C306.979 298.941 303.697 346.206 306.627 367.937C308.329 385.889 313.427 408.768 328.009 420.773C336.496 427.76 346.947 431.964 358.036 430.805C359.352 430.668 360.642 430.481 361.934 430.195C363.649 429.583 365.423 429.224 367.197 428.824C363.264 431.472 359.158 433.638 354.567 434.898C346.425 437.134 338.423 435.992 331.118 431.818C322.009 426.613 315.615 418.187 310.872 408.997C295.017 378.28 299.011 350.719 296.43 318.012C295.967 312.337 295.241 306.696 294.251 301.089C293.261 295.482 292.012 289.934 290.503 284.444Z" fill="#909D7A"/>
<path d="M219.819 134.579C221.473 134.356 223.379 134.014 224.982 134.674C226.825 135.434 227.672 136.69 228.5 138.419C234.895 151.777 222.611 150.493 220.757 156.071L221.577 156.474C223.896 155.988 226.216 154.324 228.276 153.159C224.137 161.69 219.156 172.719 210.243 177.173C206.615 178.985 204.085 179.074 200.315 177.809C199.656 177.407 199.012 176.984 198.381 176.541C192.864 172.691 191.537 167.731 190.381 161.486C187.898 159.47 182.81 157.111 182.08 154.02L182.734 153.547C186.172 154.279 188.662 153.783 191.907 152.493L192.69 152.173L192.553 153.244L192.814 152.993C192.953 154.164 192.779 155.329 193.688 156.121C195.222 154.773 195.003 152.43 195.873 150.663C199.013 144.284 213.253 136.797 219.819 134.579Z" fill="#F9EBD8"/>
<path d="M206.2 148.49C209.968 149.021 213.545 148.266 217.196 148.661L217.276 149.394C215.18 150.438 212.941 151.247 210.555 151.037C208.485 150.855 207.473 150.068 206.2 148.49Z" fill="black"/>
<path d="M291.529 314.822C292.833 311.555 290.775 307.023 292.528 304.129C292.535 307.107 293.154 310.057 293.633 312.99L294.156 312.599C294.216 312.799 294.281 312.997 294.338 313.197C295.966 318.923 295.46 329.791 295.715 335.969C296.254 349.006 296.218 362.45 298.158 375.369C301.2 395.626 311.033 421.818 329.696 432.707C337.888 437.486 345.434 437.934 354.664 436.544C347.048 441.49 339.821 444.504 330.568 442.535C319.023 440.079 309.734 431.189 303.573 421.502C286.451 394.582 289.202 346.004 291.529 314.822Z" fill="#909D7A"/>
<path d="M181.857 157.94C183.976 158.992 185.673 160.186 187.518 161.642C188.233 163.831 188.938 166.034 189.75 168.189C191.585 173.066 194.873 177.817 199.808 179.902C202.629 181.095 205.249 181.431 208.091 180.27C208.826 179.97 209.526 179.646 210.29 179.425C211.47 179.085 211.511 179.059 212.537 179.635C216.292 186.275 214.163 203.033 213.011 210.39L212.385 211.321C208.397 212.65 188.854 209.553 183.318 208.98C179.239 192.86 178.917 174.286 181.857 157.94Z" fill="#F9EBD8"/>
<path d="M667.982 557.573C703.583 557.863 738.832 568.479 770.81 583.421L767.053 585.944L759.463 590.866C738.982 580.746 697.054 572.185 673.988 570.896C672.452 566.252 670.154 561.942 667.982 557.573Z" fill="#F9EBD8"/>
<path d="M266.019 286.336L266.32 286.74C260.4 298.853 258.03 313.056 254.526 326.037C249.918 343.102 244.301 359.703 238.467 376.377C234.794 386.872 231.411 397.573 226.403 407.524C222.242 415.79 217.186 423.281 211.452 430.515C209.375 433.136 206.706 438.802 203.832 440.182C202.421 440.859 201.363 440.036 200.028 439.505C198.884 438.99 198.689 439.186 198.162 437.979C198.985 428.979 213.797 412.381 219.008 404.923C221.773 401.026 224.156 396.907 226.155 392.567C234.681 373.698 240.102 348.121 245.369 327.874C249.157 313.311 252.692 299.868 260.338 286.712C262.197 286.469 264.144 286.455 266.019 286.336Z" fill="#909D7A"/>
<path d="M221.002 381.215C221.286 382.456 220.646 383.374 220.14 384.507C214.754 396.571 193.069 405.347 190.509 414.44C193.409 412.747 196.268 408.235 198.918 405.845C203.364 401.837 208.364 398.725 213.408 395.547C206.814 405.423 198.879 414.357 191.9 423.973C189.745 427.185 187.787 430.397 185.975 433.815C176.292 428.745 166.749 423.189 159.114 415.261C177.564 398.027 197.405 388.978 221.002 381.215Z" fill="#909D7A"/>
<path d="M175.443 271.89C186.306 275.868 197.509 279.398 208.778 282.025C214.419 283.34 220.486 283.777 225.981 285.562C230.065 286.888 238.515 290.561 240.831 294.252C240.951 295.353 241.25 295.831 240.648 296.799C239.683 296.381 238.742 295.944 237.804 295.468L237.12 295.797C237.283 298.652 240.845 297.892 238.71 301.35C237.472 301.502 236.489 301.123 235.329 300.756L234.95 301.233C235.575 303.593 236.489 305.812 237.399 308.07C228.42 304.814 220.243 296.908 213.604 295.136C209.05 293.92 203.688 294.553 198.978 294.195C181.209 292.844 162.657 291.626 146.592 283.256C152.121 281.924 172.413 275.632 175.443 271.89Z" fill="#C8D2B3"/>
<path d="M799.895 708.025L800.297 708.561C800.594 716.007 797.367 727.991 795.427 735.424C789.541 757.969 779.883 766.782 760.229 778.282L764.868 773.348L770.574 766.681L770.572 766.405C770.631 752.651 765.84 737.909 761.952 724.838C775.374 721.575 788.23 715.278 799.895 708.025Z" fill="#F9EBD8"/>
<path d="M902.498 799.586C912.008 798.683 922.279 800.257 931.801 800.938C929.341 815.249 926.213 830.409 921.745 844.234C921.031 845.395 920.118 845.957 918.878 846.461C912.044 849.239 903.695 847.22 897.156 844.507C899.302 834.933 900.4 824.682 899.873 814.849C899.641 810.522 898.49 806.166 898.978 801.826C900.002 800.468 900.959 800.261 902.498 799.586Z" fill="#F9EBD8"/>
<path d="M674.604 572.907C698.311 573.883 736.016 582.674 757.74 592.193C750.684 597.818 744.051 603.915 736.857 609.377C723.41 599.476 710.812 594.15 694.624 590.351C691.457 588.907 687.358 588.438 683.938 587.741L675.973 585.771C675.66 581.45 675.229 577.194 674.604 572.907Z" fill="#F9EBD8"/>
<path d="M127.329 428.301C130.412 429.161 133.214 429.469 136.397 429.571C138.873 434.917 143.246 439.348 145.204 444.091C148.012 450.896 148.916 459.192 150.445 466.423L157.686 499.652C148.685 498.908 136.349 494.794 129.436 488.758C129.183 480.953 129.418 473.114 129.224 465.299C128.881 452.952 128.25 440.619 127.329 428.301Z" fill="#C8D2B3"/>
<path d="M206.3 116.199C209.481 115.989 212.618 115.902 215.773 116.469C221.171 117.438 225.864 120.164 229.01 124.707C233.173 130.719 233.506 137.119 232.198 144.045C231.656 141.178 231.184 138.156 229.375 135.766C227.96 133.898 226.01 132.694 223.676 132.408C215.763 131.44 205.997 138.999 200.093 143.506C196.02 147.07 192.384 151.127 186.717 151.668C182.379 152.081 177.57 150.974 174.194 148.123C171.653 145.978 169.842 142.821 169.632 139.468C169.408 135.899 171.129 132.663 173.426 130.048C181.375 120.998 194.708 117.076 206.3 116.199Z" fill="#F9EBD8"/>
<path d="M200.003 119.024L200.559 119.381C200.424 120.409 200.324 120.352 199.48 120.891C197.265 122.304 194.53 123.207 192.163 124.378C187.116 126.875 183.033 130.277 178.986 134.144L178.395 133.748C178.28 133 178.065 132.668 178.471 131.969C181.9 126.062 193.77 121.022 200.003 119.024Z" fill="black"/>
<path d="M293.126 284.432C293.661 284.61 293.91 284.677 294.396 284.886C298.667 286.725 301.806 291.01 303.799 295.059C309.972 307.602 314.734 337.916 317.824 352.682C319.205 359.283 320.439 365.988 323.02 372.252C327.75 383.736 335.507 391.505 347.037 396.174C349.997 397.373 357.274 400.069 360.182 398.559C360.803 398.237 360.634 398.266 360.879 397.55C359.642 396.733 357.293 396.864 355.8 396.799C350.215 396.555 345.56 394.291 340.844 391.384C328.398 383.709 323.234 370.657 320.063 356.983C323.25 362.981 326.456 368.401 330.72 373.703C340.524 386.167 351.562 387.814 364.719 394.276C369.118 396.436 372.911 399.296 376.757 402.306C370.588 407.014 363.248 409.323 355.488 408.383C349.276 407.63 344.324 403.965 339.204 400.68C335.839 398.521 332.469 396.435 329.601 393.621C324.89 388.998 321.444 383.172 318.617 377.257C312.963 365.432 310.048 351.905 307.931 339.008C304.959 320.91 305.057 299.295 293.126 284.432Z" fill="#909D7A"/>
<path d="M241.477 227.207L242.747 226.527C243.458 227.155 243.304 226.871 243.645 227.702C248.986 240.716 252.683 253.029 260.925 264.756C263.897 268.984 267.006 273.188 270.615 276.899C272.203 278.531 275.109 280.329 276.037 282.327C275.102 283.694 273.975 284.055 272.411 284.32C267.177 285.205 260.802 284.666 255.568 284.027C253.739 283.804 252.025 284.506 250.322 285.097C242.453 278.312 229.09 265.725 228.051 254.855C227.396 248.001 229.428 240.79 228.594 234.02C230.492 231.232 238.21 228.678 241.477 227.207Z" fill="#C8D2B3"/>
<path d="M228.594 234.02C230.492 231.232 238.21 228.678 241.477 227.207C241.662 228.589 241.839 228.992 240.901 230.161C239.331 232.118 232.833 234.444 230.25 234.387C229.667 234.374 229.15 234.178 228.594 234.02Z" fill="#F9EBD8"/>
<path d="M885.44 491.916C888.004 493.945 890.536 496.014 893.035 498.122C890.552 501.675 888.071 505.13 885.768 508.813C883.56 512.343 881.44 516.555 878.77 519.708C878.154 521.108 877.618 522.55 876.761 523.819C870.848 537.785 866.679 552.409 862.263 566.894C859.582 575.688 857.216 584.61 853.174 592.903C849.773 588.689 845.75 584.941 843.361 579.995C836.145 565.05 842.127 544.176 844.47 528.467C845.285 523.007 845.721 517.566 846.032 512.06L851.104 508.635C852.091 518.685 849.256 530.93 853.168 540.468C854.046 542.607 855.647 544.28 857.827 545.1C859.346 545.671 860.757 545.52 862.172 544.75C870.951 539.97 882.417 502.695 885.44 491.916Z" fill="#F9EBD8"/>
<path d="M147.815 178.759C152.812 175.17 158.029 173.851 163.938 172.597C170.634 185.804 171.775 197.523 176.347 211.014C185.487 210.966 194.377 211.932 203.445 212.953C208.924 213.57 218.49 215.646 223.703 214.75C224.843 210.971 223.708 188.875 222.892 183.958L222.789 183.305L222.721 182.914C240.519 193.114 239.546 204.213 246.488 221.638C241.033 225.316 235.092 227.979 229.106 230.657C229.219 227.055 229.966 221.743 228.368 218.431C226.321 217.573 213.375 219.33 210.164 219.387C200.951 219.549 174.303 218.017 166.751 213.864L165.468 214.054C165.756 222.898 163.485 231.915 159.948 240.003C160.874 231.094 163.633 222.896 163.885 213.839L163.751 213.061C162.079 202.96 162.74 188.036 153.417 181.496C151.736 180.317 149.73 179.487 147.815 178.759Z" fill="#F9EBD8"/>
<path d="M130.549 224.158C139.976 227.96 148.625 229.19 158.647 230.085C158.432 237.366 158.2 246.287 155.898 253.196C154.742 256.665 152.138 257.639 149.126 259.176L148.964 260.028L149.749 260.633C151.667 260.553 153.137 259.684 154.832 258.847C161.385 264.393 167.577 268.436 175.443 271.89C172.413 275.632 152.121 281.924 146.592 283.256C143.643 281.911 141.049 279.723 138.87 277.342C126.09 263.375 129.552 241.392 130.549 224.158Z" fill="#F9EBD8"/>
<path d="M623.842 606.67C640.64 605.238 664.301 617.572 678.797 625.847C685.292 629.555 692.049 634.19 699.011 636.905C711.199 641.659 716.988 635.86 730.252 645.878C744.988 657.007 752.267 672.547 754.802 690.563C751.596 691.47 748.416 692.521 745.23 693.501C742.772 692.768 738.318 684.048 736.452 681.385C730.456 672.829 723.472 664.927 716.117 657.513C709.085 650.426 701.224 643.744 692.776 638.42C674.432 626.859 634.597 610.04 613.046 609.912C616.615 608.328 619.958 607.153 623.842 606.67Z" fill="#D8AE56"/>
<path d="M819.556 544.823C825.572 551.004 831.926 554.227 838.532 559.381C825.617 577.096 806.064 586.281 786.416 594.575C774.082 599.782 761.997 604.23 749.129 607.936C744.274 609.42 739.611 611.885 734.964 613.93C744.524 606.35 753.258 597.556 763.368 590.718C771.856 584.977 780.421 579.122 789.162 573.78C794.88 570.285 801.608 567.584 806.629 563.116C812.207 558.153 816.325 551.478 819.556 544.823Z" fill="#F9EBD8"/>
<path d="M289.467 319.331C290.633 322.75 289.008 335.269 288.785 339.288C287.318 365.702 288.397 404.152 304.549 425.889C313.788 438.323 322.269 443.102 337.394 445.27C331.675 446.858 325.527 449.042 319.553 449.293C317.284 449.388 314.677 448.565 312.468 448.078C304.843 446.396 298.629 444.83 292.713 439.376C282.802 430.24 280.455 417.244 279.88 404.375C279.879 403.482 279.781 403.037 279.364 402.247L278.97 402.414C278.757 402.873 278.643 403.046 278.575 403.61C278.304 405.872 278.808 408.73 279.08 410.983C280.215 420.384 282.096 428.94 288.088 436.52C296.171 446.746 306.769 448.436 318.931 449.941C311.302 450.809 302.842 452.417 295.183 451.618C290.446 451.125 286.904 449.095 283.921 445.39C259.904 415.562 285.993 354.15 289.416 319.876L289.467 319.331Z" fill="#909D7A"/>
<path d="M808.116 456.558C811.523 448.947 816.027 442.637 824.123 439.411C837.937 433.905 854.985 441.303 867.617 447.021C872.764 449.351 878.135 453.154 880.222 458.597C881.362 461.571 881.454 465.33 880.131 468.265C877.004 475.202 868.042 479.886 861.975 484.034L861.546 483.159L861.568 481.489C860.675 480.894 861.246 481.086 860 481.221C851.284 482.17 834.9 477.273 825.47 475.652C820.772 474.844 815.744 474.633 811.139 473.556C809.873 473.26 808.214 472.835 807.251 471.894C806.437 471.099 806.513 470.572 806.533 469.542C809.389 467.53 821.956 469.364 825.623 470.01C835.9 471.82 844.985 475.678 854.925 478.431C843.266 470.429 826.184 466.744 812.151 467.323C810.307 467.399 807.418 468.044 806.618 466.106C806.801 465.294 806.723 464.573 807.452 464.065C811.937 460.937 826.798 463.734 831.917 465.023C838.54 466.69 846.061 469.261 851.853 472.937C854.253 474.459 858.921 479.979 860.797 480.379C860.922 479.019 860.644 478.456 859.761 477.394C852.132 468.217 831.623 461.442 820.111 460.923C815.891 460.733 811.568 461.185 807.361 461.498L806.918 460.762C807.659 458.797 810.116 457.724 811.913 456.91C821.119 452.736 831.386 454.894 840.435 458.354C845.916 460.45 851.436 463.408 855.76 467.427C857.35 468.906 862.296 476.14 863.581 476.398C863.877 475.245 863.854 474.218 863.253 473.164C857.282 462.696 841.974 455.743 830.764 453.353C822.933 451.683 815.264 453.153 808.116 456.558Z" fill="#C8D2B3"/>
<path d="M804.631 622.711L827.784 623.476C832.107 636.482 832.04 650.801 825.803 663.262C817.814 679.224 797.466 692.535 781.599 699.972C775.535 702.815 769.229 704.9 762.886 707.009C760.154 707.853 757.568 708.943 754.941 710.065C751.974 705.075 748.744 700.273 745.515 695.452C756.122 692.587 766.234 688.158 775.979 683.116C789.81 675.959 805.322 665.8 810.151 650.065C813.808 638.151 810.071 633.375 804.929 623.302L804.631 622.711Z" fill="#F9EBD8"/>
<path d="M895.656 510.559C899.39 510.344 902.052 510.501 905.421 512.343C908.937 514.264 911.118 517.706 912.197 521.485C917.057 538.499 904.116 564.552 896.085 579.706C892.851 578.417 889.556 577.273 886.281 576.091C878.905 573.225 871.751 570.397 864.847 566.479C868.196 552.918 873.356 533.901 880.499 521.959C884.369 515.49 888.433 512.406 895.656 510.559Z" fill="#F9EBD8"/>
<path d="M641.872 607.155L642.342 607.249L643.122 607.417C650.71 608.98 664.191 613.25 671.586 616.09C673.977 616.626 676.198 617.495 678.432 618.488C683.859 620.899 688.91 624.046 694.211 626.7C697.699 628.446 707.496 631.447 709.479 634.027C710.8 634.453 711.427 634.402 712.77 634.077C713.83 633.269 714.185 632.818 714.654 631.569C712.89 631.873 711.919 631.788 710.218 631.249L705.822 629.37C703.553 628.678 701.332 627.726 699.115 626.878C690.52 623.594 683.191 617.984 674.381 614.941C672.516 614.297 666.79 613.33 665.844 612.089C667.131 611.747 668.444 611.342 669.771 611.781C670.879 612.148 671.548 613.112 672.846 613.417C676.3 614.227 680.451 613.444 684.002 613.465C689.897 613.526 695.782 613.79 701.658 614.258C709.941 614.938 718.087 616.543 726.282 617.865C721.689 621.695 719.053 625.551 715.429 630.169L714.814 631.346C715.735 632.361 716.627 633.457 717.636 634.381L717.807 633.474C717.964 632.601 717.959 631.88 717.944 631C717.887 627.882 720.805 624.896 722.9 622.828C726.961 618.817 731.599 615.42 737.046 613.631C732.476 617.133 727.127 620.233 723.637 624.897C721.454 627.813 720.511 633.049 718.006 635.248L717.628 636.724C718.157 636.75 718.713 636.973 719.214 636.803C721.455 636.047 726.375 630.411 729.519 628.698C729.749 628.572 729.976 628.441 730.207 628.318C730.346 628.244 730.488 628.176 730.629 628.105C744.887 631.136 754.877 637.162 765.426 647.128C769.865 651.322 774.212 655.933 777.552 661.072C780.509 665.621 782.762 670.849 786.257 675.003C783.521 676.599 780.798 678.226 778.042 679.789C772.68 662.603 764.536 650.569 748.371 642.011C747.566 641.584 746.756 641.233 745.909 640.899C749.44 644.035 753.378 646.531 757.055 649.467C767.581 657.871 772.525 667.976 776.225 680.691C769.916 684.069 763.433 687.074 756.777 689.706C752.954 670.85 746.665 654.973 730.047 643.939C725.574 640.969 720.919 638.87 715.916 636.959C713.691 636.451 711.397 636.159 709.153 635.702C705.508 634.932 701.924 633.603 698.258 632.776C701.114 634.521 704.319 635.659 707.341 637.105L707.016 637.307C697.801 635.378 678.981 623.243 669.575 618.078C665.887 617.009 662.008 614.725 658.354 613.271C652.899 611.1 647.253 609.517 641.872 607.155Z" fill="#D8AE56"/>
<path d="M913.966 518.869C919.444 524.798 932.241 571.349 933.357 581.098C934.055 587.204 932.75 591.347 928.858 596.18C919.199 608.175 901.91 617.72 886.623 619.46C880.356 620.123 874.737 619.968 868.63 618.365C879.822 608.475 888.401 595.714 894.846 582.341C895.571 582.373 896.294 582.416 897.017 582.471C897.499 581.964 897.621 581.872 898.055 581.198C900.19 577.884 901.757 573.518 903.428 569.918C910.764 554.108 918.245 536.509 913.966 518.869Z" fill="#F9EBD8"/>
<path d="M168.135 217.295C188.184 220.286 206.615 222.085 226.9 220.089C227.183 226.543 226.692 233.18 226.491 239.645C223.869 242.523 221.288 245.448 218.254 247.906C210.683 254.041 190.287 266.254 181.263 270.07C180.643 270.332 180.029 270.611 179.411 270.878C170.411 267.614 163.619 263.399 156.252 257.39C161.766 244.736 165.901 230.878 168.135 217.295Z" fill="#F9EBD8"/>
<path d="M278.93 283.803L280.208 284.12C280.738 285.299 279.862 286.882 279.493 288.114C275.766 300.545 274.542 313.275 271.594 325.835C269.832 333.343 266.998 340.643 264.963 348.09C262.731 356.26 261.297 364.823 259.736 373.15C258.189 381.394 257.064 389.739 255.836 398.037C253.114 416.423 250.604 434.08 253.567 452.662C248.635 451.716 243.695 450.814 238.746 449.957C237.649 433.042 242.159 414.964 245.631 398.526C247.663 388.908 249.594 379.241 251.938 369.694C254.173 360.592 274.845 291.814 273.262 287.281C270.384 289.245 268.334 299.62 267.25 303.3C261.726 321.677 257.723 340.567 251.807 358.808L235.659 408.675C231.476 421.196 225.924 433.818 224.093 446.929C218 444.797 211.688 443.057 205.42 441.523C212.742 432.088 220.172 422.702 225.962 412.217C232.251 400.83 236.16 388.261 240.431 376.023C246.138 360.073 251.352 343.963 256.074 327.694C260.006 313.732 262.972 300.029 268.38 286.515C272.836 286.576 275.196 286.416 278.93 283.803Z" fill="#909D7A"/>
<path d="M231.339 343.155C232.323 346.363 223.99 373.635 222.362 378.948C218.173 380.661 213.69 381.828 209.433 383.408C190.134 390.572 172.807 399.251 158.124 414.022L155.148 409.67C153.429 406.916 152.015 403.71 151.337 400.538C149.88 393.728 151.768 387.061 155.506 381.338C169.312 360.202 207.559 348.094 231.339 343.155Z" fill="#C8D2B3"/>
<path d="M455.415 311.818C459.442 314.636 462.484 319.896 466.377 323.172C507.373 357.677 596.563 362.287 647.553 357.897C684.058 354.754 740.787 343.538 765.363 314.349C764.436 317.135 763.484 319.913 762.508 322.683C761.715 324.914 760.958 327.286 759.6 329.246C747.939 346.067 694.186 360.275 673.288 363.514C656.292 366.148 638.862 367.962 621.663 368.42C576.069 369.636 506.671 363.238 468.923 335.326C460.29 328.943 456.958 322.4 455.415 311.818Z" fill="#C8D2B3"/>
<path d="M864.114 568.656C873.625 573.718 883.475 576.919 893.364 581.027L893.026 581.745C891.16 585.64 889.099 589.428 886.842 593.11C884.586 596.793 882.147 600.35 879.525 603.781C875.601 608.96 871.241 614.084 865.451 617.232C853.194 623.897 827.705 620.902 813.869 620.58C806.784 620.415 799.308 619.806 792.295 620.946C786.096 621.954 780.033 624.62 774.127 626.717C770.445 627.858 766.678 628.773 762.951 629.759C757.486 627.56 752.639 624.545 747.755 621.278L749.668 615.894C759.223 610.657 765.175 611.477 775.294 609.855C779.353 609.205 782.884 606.419 786.837 606.059C799.346 604.92 839.185 606.154 848.98 600.745C856.704 596.479 861.638 576.641 864.114 568.656Z" fill="#F9EBD8"/>
<path d="M660.116 239.219C685.546 242.584 715.717 249.098 737.112 263.547C744.496 268.533 752.448 275.688 753.987 284.927C755.046 291.285 752.797 296.499 749.256 301.596C747.639 303.636 745.734 305.455 743.919 307.319C740.694 303.19 737.406 299.314 733.26 296.07C716.812 283.199 691.928 277.509 671.446 274.806C667.417 263.024 663.641 251.162 660.116 239.219Z" fill="#C8D2B3"/>
<path d="M428.984 673.738C432.25 675.83 435.091 678.797 438.014 681.345C451.285 692.913 472.681 702.404 489.174 708.364C543.588 728.029 600.96 732.228 658.35 728.739C670.526 727.999 682.543 726.001 694.689 725.156C695.556 728.829 696.119 732.616 696.793 736.332C684.054 738.576 670.637 739.059 657.723 739.831C598.731 743.357 523.758 739.667 470.282 711.936C454.653 703.831 434.624 691.516 428.984 673.738Z" fill="#F9EBD8"/>
<path d="M551.453 619.709L556.67 619.482C566.01 624.779 571.526 631.388 577.857 639.886C568.069 638.972 558.064 638.377 548.239 638.494C526.93 638.747 505.911 641.43 486.834 651.529C483.827 653.121 479.939 654.876 477.553 657.318C479.334 657.144 494.489 648.92 498.525 647.445C522.083 638.834 554.358 638.694 579.202 641.5C581.44 644.543 583.487 647.664 585.5 650.86C580.031 649.458 574.636 649.446 569.036 649.359C556.473 648.62 543.283 649.906 530.784 651.189C517.519 652.551 500.754 654.995 491.943 666.255C487.137 672.394 487.769 678.744 488.693 685.992C475.272 680.236 462.436 674.007 451.89 663.649C453.005 661.481 454.461 659.413 456.042 657.559C477.05 632.912 520.06 622.099 551.453 619.709Z" fill="#D8AE56"/>
<path d="M552.468 584.676C558.533 595.269 561.16 604.728 557.865 616.786C557.814 616.971 557.757 617.155 557.704 617.34C549.99 618.133 542.194 618.358 534.529 619.545C507.148 623.789 471.797 635.301 454.02 657.285C452.66 658.967 451.547 660.824 450.444 662.68C448.382 660.305 445.38 657.466 444.245 654.493C444.506 645.493 443.163 639.117 447.997 630.819C459.767 610.614 489.753 597.788 511.831 592.71C525.283 589.616 539.097 588.197 552.468 584.676Z" fill="#D8AE56"/>
<path d="M856.575 631.742C859.584 632.61 862.529 633.273 865.617 633.794C862.683 645.651 860.291 673.822 863.472 685.114L864.036 685.192L863.864 685.675C863.542 685.015 864.349 681.53 864.378 680.247C864.754 663.836 864.899 650.398 867.333 633.941C871.322 634.469 875.384 634.409 879.403 634.467C878.391 643.508 877.309 652.588 876.808 661.673C876.527 666.752 876.596 711.391 877.237 712.629C877.671 713.467 877.456 713.214 878.342 713.529C879.771 710.273 879.245 705.182 879.257 701.676C879.302 689.484 878.626 677.283 878.982 665.099C879.279 654.908 880.535 644.64 881.449 634.484L887.46 633.943C887.355 646.237 889.726 658.484 890.722 670.731C891.92 685.474 891.958 700.337 892.666 715.117C893.288 728.081 894.755 741.001 894.46 753.992C874.359 754.619 867.198 747.416 851.416 737.091C851.603 724.675 852.679 712.297 853.269 699.897C854.238 677.172 855.34 654.454 856.575 631.742Z" fill="#F9EBD8"/>
<path d="M513.332 411.899C513.428 414.512 512.282 417.544 511.4 420C504.135 440.237 483.542 454.238 464.853 462.89C395.094 495.184 265.312 496.928 193.016 470.263C170.907 462.108 148.153 450.378 137.847 428.067C136.551 424.023 135.681 419.781 134.661 415.656C142.112 430.684 153.732 439.624 168.283 447.599C236.741 485.124 359.633 484.833 433.146 463.165C461.82 454.714 498.479 439.226 513.332 411.899Z" fill="#C8D2B3"/>
<path d="M490.128 686.338C489.45 682.105 488.683 677.185 489.71 672.968C491.083 667.33 496.366 662.779 501.239 659.973C505.741 657.381 510.805 655.847 515.86 654.761C530.763 651.558 571.451 648.403 585.848 652.31C587.902 655.951 589.772 659.609 591.513 663.41C583.191 661.317 575.29 659.703 566.679 659.275C546.213 658.257 507.745 662.462 492.27 676.402C496.713 673.979 501.153 671.585 505.876 669.741C515.402 666.021 533.282 661.485 543.431 661.468C545.466 661.173 547.508 660.933 549.556 660.75C551.605 660.567 553.657 660.441 555.712 660.371C557.767 660.302 559.823 660.289 561.879 660.332C563.935 660.375 565.988 660.475 568.038 660.632C570.089 660.789 572.133 661.002 574.172 661.271C576.211 661.54 578.241 661.866 580.262 662.247C582.283 662.628 584.291 663.065 586.288 663.557C588.285 664.049 590.266 664.596 592.233 665.197C595.103 671.476 597.602 677.92 600.175 684.325C584.543 669.516 566.096 665.398 545.238 663.169C544.12 663.024 543.687 663.168 542.69 663.68C543.396 664.464 567.011 668.146 570.352 669.068C572.019 669.546 573.666 670.083 575.295 670.679C576.923 671.276 578.528 671.93 580.109 672.641C581.69 673.353 583.244 674.121 584.769 674.945C586.295 675.769 587.789 676.647 589.252 677.578C602.389 686.044 603.584 692.322 606.707 706.79C566.777 705.324 527.898 699.622 490.128 686.338Z" fill="#D8AE56"/>
<path d="M514.533 669.967C523.291 670.679 532.548 673.16 541.128 675.07C553.681 677.864 566.541 680.347 578.651 684.747C584.505 686.874 596.327 691.655 599.149 697.698C594.205 695.037 590.075 691.015 584.922 688.685C570.382 682.111 553.49 679.282 537.943 675.992C531.533 674.635 524.767 672.77 518.227 672.428C517.287 672.379 516.563 672.428 515.683 672.053C514.918 671.727 514.814 670.698 514.533 669.967Z" fill="black"/>
<path d="M609.681 237.219C616.222 236.894 622.812 237.007 629.361 236.988C635.368 248.297 640.448 259.647 644.895 271.657C606.489 268.644 562.491 269.764 525.257 280.096C525.684 277.293 526.935 272.774 526.431 270.059C526.225 268.953 526 268.726 525.162 268.093C523.244 270.048 523.46 277.799 523.015 280.755C516.476 282.575 510.174 284.757 503.882 287.29C493.248 291.706 483.946 296.604 475.081 304.02C472.053 299.488 469.39 294.869 469.097 289.266C468.783 283.253 471.319 277.753 475.349 273.4C501.151 245.536 573.11 238.564 609.681 237.219Z" fill="#C8D2B3"/>
<path d="M316.372 335.121C331.419 334.719 346.499 334.592 361.523 335.665C399.218 338.357 450.414 348.187 480.671 372.088C487.125 377.185 493.369 383.811 494.213 392.394C494.971 400.1 490.967 405.93 486.431 411.652C484.274 409.515 481.979 407.572 479.661 405.613C464.399 393.697 445.811 386.619 427.528 380.722C427.519 376.753 427.585 362.075 425.365 359.765C424.694 360.571 424.468 360.978 424.354 362.076C424.088 364.638 424.779 367.55 424.956 370.154C425.179 373.445 425.124 376.788 425.133 380.087C393.987 370.492 360.767 367.896 328.347 367.996C321.112 355.71 319.054 349.026 316.372 335.121Z" fill="#C8D2B3"/>
<path d="M128.061 320.392C127.05 330.933 126.351 341.494 125.965 352.077C125.849 354.771 125.012 360.272 126.876 362.308C128.894 359.057 128.858 336.531 129.349 331.083C130.069 323.08 131.271 315.183 132.253 307.22C133.404 297.888 133.86 286.639 137.1 277.825C141.583 285.36 131.745 319.776 133.738 330.134L134.497 330.518C136.151 328.399 139.999 288.221 140.72 281.493L144.108 284.465C144.247 298.594 142.011 313.093 140.033 327.065C139.376 331.709 138.248 336.542 137.932 341.194C137.818 342.871 137.917 344.728 138.392 346.338L139.411 344.602L139.396 344.734C143.203 325.383 145.125 305.03 146.531 285.367C162.875 293.666 181.454 294.924 199.459 296.143C203.749 296.433 209.447 295.759 213.507 297.052C218.993 298.8 224.958 303.829 229.742 307.066C231.902 308.528 234.171 308.912 236.681 309.467C238.218 313.597 236.852 321.299 236.391 325.741C203.219 334.115 154.336 346.483 135.764 378C128.852 389.729 129.629 397.779 131.958 410.609C133.012 416.419 134.077 422.124 135.527 427.852C126.712 426.453 119.074 423.967 112.29 417.996C115.683 403.547 114.909 387.621 115.4 372.859C115.974 355.587 117.153 337.993 119.689 320.895C122.61 320.283 125.064 319.854 128.061 320.392Z" fill="#C8D2B3"/>
<path d="M536.922 565.704C538.028 565.571 538.801 565.423 539.856 565.837L539.941 566.998C539.065 568.632 538.361 570.281 537.669 572C540.459 572.725 542.177 573.61 544.317 575.574C511.412 580.022 465.421 591.856 444.083 619.019C438.855 625.676 436.056 633.708 437.192 642.244C438.834 654.576 448.091 664.603 457.676 671.753C508.539 709.695 627.038 714.841 688.401 705.749C690.474 711.119 692.129 716.572 693.777 722.083C689.979 723.066 686.237 723.769 682.355 724.335C679.489 724.782 676.613 725.149 673.726 725.434C611.867 732.16 547.277 727.556 488.632 705.941C471.675 699.691 453.792 691.472 439.704 680.056C427.61 670.256 418.157 657.916 416.541 641.979C415.394 630.67 419.216 620.918 426.38 612.241C449.336 584.44 501.892 569.022 536.922 565.704Z" fill="#F9EBD8"/>
<path d="M763.464 267.746C763.543 267.818 763.63 267.882 763.701 267.962C768.959 273.785 772.235 281.517 772.504 289.367C772.829 298.875 769.013 307.804 762.585 314.707C732.725 346.768 666.646 355.991 624.872 357.343C579.268 358.818 499.402 351.935 464.832 319.187C456.93 311.702 450.252 302.863 450.122 291.508C450.016 282.242 454.399 274.697 460.729 268.271C470.057 258.802 482.187 252.35 494.286 247.156C534.558 229.866 579.045 225.633 622.463 225.364L628.557 235.411C586.071 235.492 506.633 240.029 475.004 271.191C470.284 275.841 466.877 281.929 467 288.712C467.151 297.05 472.405 304.831 478.251 310.414C508.133 338.953 578.558 344.224 618.413 343.501C657.527 342.791 719.548 335.878 747.925 306.121C752.805 301.005 756.633 294.768 756.252 287.426C755.742 277.582 748.628 270.098 741.608 264.036C738.731 262.682 735.755 260.201 733.068 258.423C738.537 258.629 744.919 259.845 749.668 262.721C754.128 264.382 758.782 267.129 763.464 267.746Z" fill="#C8D2B3"/>
<path d="M754.811 745.513C755.716 749.775 756.509 754.128 756.677 758.489C756.849 762.953 756.361 767.247 757.088 771.696L757.698 771.84L757.411 772.294L757.077 771.573L757.86 771.229C758.014 770.415 758.118 769.611 758.214 768.788C762.211 734.671 744.497 703.225 723.95 677.42C701.702 649.479 672.984 631.887 639.543 620.6C629.451 617.194 620.168 614.296 609.539 613.079L609.613 612.842L608.064 612.814C609.384 612.64 610.701 612.553 612.029 612.472C615.99 612.231 619.861 612.12 623.795 612.731C643.125 615.733 676.501 630.647 693.066 641.067C698.193 644.292 702.951 648.139 707.46 652.173C723.196 666.251 733.079 680.038 744.518 697.46C750.18 706.084 755.718 714.628 759.592 724.257C764.498 736.451 767.458 751.395 768.226 764.435C764.953 772.158 757.643 777.794 752.346 784.069C749.736 787.16 747.623 790.735 744.651 793.509C735.131 802.394 708.691 802.551 695.994 802.362C696.222 801.062 696.439 799.76 696.646 798.457C702.491 761.715 702.056 714.883 678.332 684.331C669.93 673.512 658.694 665.708 650.598 654.568C656.414 654.72 658.568 662.616 661.596 660.44C675.616 677.113 691.778 689.931 699.745 710.952C707.25 732.444 712.826 771.165 704.673 792.659C704.073 784.751 704.961 776.673 705.246 768.754C705.739 755.06 705.2 741.67 702.779 728.163C702.231 725.102 701.856 720.836 700.366 718.097C701.739 726.21 703.176 734.406 703.702 742.627C704.908 761.506 703.479 780.598 703.459 799.494C704.663 796.388 705.316 794.864 707.903 792.693L708.422 792.265L708.143 791.954L706.585 792.737C706.17 789.548 708.689 784.859 709.034 781.381C709.558 775.742 709.812 770.091 709.796 764.428C709.78 758.765 709.494 753.116 708.938 747.48C707.304 730.317 703.488 710.083 694.197 695.433C689.905 688.666 684.195 682.455 679.017 676.329C672.27 668.346 664.828 660.041 656.783 653.367C653.136 650.342 649.015 647.855 645.175 645.081C640.596 641.772 636.254 638.158 631.896 634.567C639.759 637.955 648.634 643.429 655.547 648.503C666.49 656.535 683.408 672.188 691.424 683.076C705.453 702.133 715.218 729.984 717.684 753.415C718.637 761.932 719.276 770.473 719.599 779.038C719.767 784.233 719.194 789.813 719.999 794.903C720.95 793.778 721.116 790.744 721.261 789.23C721.991 781.621 721.174 773.989 720.658 766.385C718.872 740.108 711.873 711.727 697.848 689.113C694.067 683.016 689.563 677.586 685.018 672.063C681.96 670.517 665.595 653.968 661.017 650.216C654.118 644.562 646.004 640.264 638.347 635.721C635.767 634.336 632.861 633.393 630.181 632.196C624.606 629.705 619.502 626.809 614.48 623.343C622.832 626.404 631.112 630.454 639.203 634.164C644.642 636.596 650.164 638.982 655.33 641.96C665.768 647.978 677.235 657.386 685.32 666.443C698.206 677.659 705.218 691.421 712.198 706.622C718.72 720.824 724.187 734.045 725.279 749.917C725.5 753.135 725.14 756.839 725.761 759.959C726.752 759.096 726.635 758.303 726.714 757.052C727.908 738 721.112 721.047 713.263 704.205C706.976 690.715 702.245 681.1 691.923 669.936C684.044 661.415 667.95 646.447 658.394 640.803C653.686 638.023 648.516 635.953 643.509 633.773C627.995 627.018 611.888 621.881 596.51 614.911C603.323 614.948 610.011 615.342 616.722 616.606C627.683 618.67 650.624 626.507 660.335 631.817C664.616 634.159 668.462 637.515 672.422 640.36C676.329 643.168 680.481 645.63 684.362 648.475C690.405 652.906 696.082 658.241 701.338 663.582C724.445 687.063 741.837 729.296 741.534 762.233C741.484 767.708 740.815 773.194 739.911 778.588C739.148 783.142 736.909 789.133 737.336 793.526L737.965 793.915C741.587 789.858 740.748 775.891 742.866 770.538C743.194 764.169 743.142 757.9 742.953 751.53C741.805 744.078 741.032 736.722 739.041 729.404C737.757 724.688 735.605 720.209 734.381 715.499L734.149 714.586C731.751 710.325 730.061 705.459 727.958 701.021C724.988 694.755 721.55 688.707 718.774 682.351C716.076 676.84 711.687 672.188 707.889 667.417C703.856 663.392 700.12 659.131 695.806 655.392C691.69 651.889 687.486 648.438 682.963 645.471C676.696 641.362 669.975 637.735 664.389 632.689C675.996 637.735 686.646 645.413 696.605 653.131C701.4 656.918 705.862 660.865 710.032 665.334C716.838 671.39 722.708 679.166 728.061 686.516C740.59 703.719 753.657 723.341 755.296 745.181C750.391 738.997 747.435 731.757 744.302 724.581C737.849 709.796 731.488 694.958 720.242 683.005C724.269 693.331 733.529 700.952 736.738 711.969C741.955 722.959 745.774 737.115 754.811 745.513Z" fill="#D8AE56"/>
<path d="M745.045 747.891C748.824 753.419 748.589 773.359 747.331 779.983C747.096 781.22 746.793 782.443 746.513 783.671L746.409 784.111C746.189 781.424 745.956 778.757 745.976 776.057C747.003 766.483 745.239 757.413 745.045 747.891Z" fill="black"/>
<path d="M618.841 620.463C619.7 620.513 620.542 620.581 621.382 620.782C625.624 621.801 629.88 623.893 634.029 625.308C642.346 628.145 651.205 630.12 658.888 634.528C663.06 636.923 666.437 640.62 670.216 643.574C686.772 656.517 702.678 669.029 713.659 687.43C721.202 700.072 727.39 716.252 730.15 730.768C733.937 750.677 733.156 777.512 728.255 797.006C725.426 795.197 727.79 790.01 728.366 787.247C731.413 772.646 731.247 746.699 728.366 732.064C726.574 722.959 723.307 713.524 719.861 704.903C709.835 679.825 692.466 663.279 671.782 646.962C666.615 642.886 661.832 638.157 655.965 635.093C649.463 631.697 642.314 629.774 635.435 627.313C629.807 625.299 624.328 622.829 618.841 620.463Z" fill="black"/>
<path d="M278.733 297.434C279.895 293.084 281.19 288.869 282.923 284.71C282.752 288.816 281.7 292.862 280.845 296.871C278.515 310.074 277.117 323.429 275.402 336.723C274.465 343.988 273.701 351.671 271.844 358.767L271.797 359.248C269.48 380.754 251.122 428.807 264.966 446.868C268.16 451.036 272.424 452.807 277.518 453.428C281.939 453.968 286.544 453.607 290.994 453.519C309.375 453.157 328.351 451.679 345.31 444.002C352.29 440.842 358.795 435.908 365.412 431.986L367.779 429.548C368.773 428.588 369.751 427.612 370.713 426.619C373.555 423.661 373.885 421.329 373.812 417.325C376.097 416.18 378.023 414.969 380.069 413.449L380.105 413.028C374.94 414.515 370.509 417.501 365.184 418.508C364.507 418.631 363.828 418.738 363.146 418.827C362.464 418.917 361.78 418.99 361.094 419.047C360.409 419.104 359.722 419.145 359.035 419.168C358.348 419.191 357.66 419.198 356.972 419.187C356.284 419.177 355.597 419.15 354.91 419.107C354.223 419.064 353.538 419.004 352.855 418.927C352.172 418.85 351.49 418.757 350.811 418.647C350.132 418.537 349.456 418.411 348.783 418.268C348.11 418.125 347.441 417.966 346.776 417.791C346.111 417.616 345.45 417.424 344.794 417.217C344.138 417.01 343.488 416.786 342.843 416.547C342.198 416.308 341.559 416.054 340.926 415.784C340.293 415.514 339.668 415.229 339.049 414.928C338.43 414.628 337.819 414.313 337.215 413.982C336.612 413.652 336.017 413.307 335.43 412.948C334.843 412.589 334.266 412.216 333.697 411.829C323.746 404.979 317.307 392.747 315.115 381.043C312.905 375.224 311.971 369.068 310.092 363.153C309.377 360.9 309.303 357.961 309.699 355.649C311.564 367.717 316.471 378.563 322.555 389.054C330.105 399.122 337.936 407.543 350.928 409.57C356.373 410.419 366.272 410.817 371.122 407.858C372.821 406.822 374.113 404.974 375.818 404.029C376.907 403.425 378.227 403.51 379.372 403.942C380.496 404.366 381.087 405.305 381.441 406.396C383.058 411.383 380.277 416.764 378.014 420.986C380.755 418.321 383.144 415.931 383.637 411.969C385.522 396.815 353.194 388.914 343.633 383.067C338.119 379.694 333.848 374.633 329.795 369.699C333.817 369.61 337.839 369.596 341.861 369.656C345.884 369.717 349.904 369.852 353.921 370.062C357.938 370.271 361.95 370.555 365.957 370.914C369.964 371.273 373.963 371.707 377.954 372.214C381.945 372.721 385.925 373.302 389.894 373.957C393.863 374.612 397.818 375.341 401.761 376.143C405.703 376.945 409.629 377.82 413.538 378.768C417.447 379.716 421.338 380.736 425.21 381.829C425.086 384.067 424.72 386.061 425.885 388.079L426.61 387.961C427.578 386.177 427.422 384.427 427.42 382.451C448.75 389.659 468.499 397.491 485.421 412.922C483.653 414.793 481.678 416.507 479.796 418.263C470.13 410.763 462.118 403.577 450.129 400.143C453.964 402.225 457.949 403.953 461.662 406.275C467.594 409.985 473.134 414.823 478.654 419.14C476.462 420.749 474.227 422.295 471.949 423.78C447.277 439.697 433.711 438.971 405.359 436.334C396.322 435.493 387.365 435.191 378.43 433.668C377.026 433.429 376.074 433.069 374.898 433.904C378.133 434.285 381.282 435.133 384.505 435.57C391.16 436.472 397.937 436.902 404.623 437.58C413.231 438.454 422.174 439.755 430.828 439.365C435.038 439.176 439.194 438.352 443.331 437.593C414.864 449.572 387.147 445.839 357.333 445.578C369.741 448.571 395.792 447.853 409.536 448.19C364.002 458.828 301.492 462.195 255.666 452.714C253.567 444.908 253.629 435.81 254.006 427.788C254.819 410.471 262.899 353.708 269.833 338.362C273.662 324.871 275.986 311.17 278.733 297.434Z" fill="#909D7A"/>
<path d="M942.572 601.336C947.3 612.963 950.322 624.761 950.939 637.351C952.322 665.536 945.431 693.494 945.067 721.681C944.896 734.981 945.403 748.298 945.713 761.593C945.982 773.171 947.177 786.648 944.262 797.905C928.854 799.001 912.836 795.779 898.364 797.992C893.67 786.356 891.203 776.333 891.325 763.663C894.542 763.376 897.805 762.972 901.033 762.939C901.956 748.14 901.547 733.474 901.661 718.672C901.767 704.967 903.879 650.684 898.163 641.871C897.395 643.015 897.381 644.622 897.423 645.965C897.523 649.138 898.465 652.537 898.783 655.738C899.436 662.294 899.69 668.904 899.855 675.488C900.424 698.238 899.668 721.232 899.42 744.001C899.359 749.599 898.962 755.208 899.033 760.804C894.781 761.294 890.376 761.992 886.094 761.859C876.152 761.549 863.028 757.375 855.229 751.11C852.257 748.723 842.484 739.6 841.857 736.429C841.642 735.338 842.065 733.974 842.909 733.224C843.151 733.01 843.463 732.891 843.74 732.725C844.437 733.12 844.961 733.462 845.586 733.978C856.438 746.18 873.56 755.287 889.906 756.265C891.985 756.39 894.419 756.756 896.104 755.3C897.79 748.872 895.921 734.488 895.521 727.248C894.516 709.052 894.326 690.761 892.962 672.597C891.997 659.736 889.544 646.641 889.483 633.764C894.491 632.761 899.53 631.836 904.48 630.574C904.981 640.9 906.638 651.581 908.296 661.785C909.251 667.662 910.489 673.547 910.87 679.498C911.283 685.931 909.41 705.695 910.828 710.007L911.436 710.278L911.541 710.076L911.05 709.76L910.914 709.064L911.93 709.06C912.605 698.855 913.894 688.528 912.976 678.309C911.531 662.215 907.02 646.252 906.241 630.071L913.285 627.493C915.323 643.922 918.742 660.355 919.686 676.879C920.229 686.389 918.847 710.36 922.017 717.368L922.383 717.444C923.733 713.066 922.446 707.949 922.342 703.45C922.072 691.637 922.492 679.741 921.188 667.977C919.648 654.086 916.408 640.416 915.354 626.454C924.949 621.445 933.017 615.643 939.434 606.824C940.44 605.44 941.947 603.742 942.397 602.071C942.463 601.828 942.513 601.581 942.572 601.336Z" fill="#F9EBD8"/>
<path d="M818.031 499.043C822.771 504.314 827.495 508.647 833.539 512.371C830.725 517.645 827.899 522.892 824.789 527.998C822.237 532.188 819.15 536.346 817.103 540.793C817.648 542.083 818.385 542.839 817.804 544.198C811.633 558.614 801.62 563.916 789.06 571.515C783.461 574.902 778.024 578.518 772.59 582.162C745.201 568.92 721.409 561.324 691.084 557.318C682.153 556.138 672.924 556.442 664.071 554.939C660.378 549.707 655 547.273 648.812 546.165C642.775 545.084 632.83 545.59 626.684 546.313C624.401 546.581 622.149 547.359 619.887 547.536C618.19 547.669 616.337 546.959 614.675 547.339C609.963 548.419 610.736 550.96 604.39 550.359C602.282 550.16 588.853 552.532 586.547 553.219C585.518 553.526 584.774 554.161 583.892 554.715C579.93 557.201 569.531 554.538 564.107 555.447C556.2 556.771 548.507 561.142 540.66 562.98C533.195 564.729 525.296 564.92 517.732 566.325C504.901 568.71 492.501 572.39 480.034 576.179C483.455 565.932 486.118 555.492 488.023 544.859C506.301 543.685 524.948 544.553 543.296 544.011C565.607 543.353 587.82 542.006 610.101 540.782C626.806 539.864 643.556 539.23 660.22 537.68C669.017 536.855 677.791 535.836 686.542 534.623C695.293 533.41 704.014 532.005 712.704 530.408C721.393 528.811 730.043 527.024 738.654 525.045C747.265 523.066 755.828 520.899 764.343 518.542C775.534 515.383 786.821 511.761 797.645 507.49C804.291 504.868 810.725 501.593 817.462 499.237L818.031 499.043Z" fill="#F9EBD8"/>
<path d="M319.308 323.238C368.117 322.044 417.705 326.977 463.224 345.666C481.41 353.133 504.602 365.749 512.429 384.935C515.63 392.78 515.877 401.152 512.462 408.996C503.375 429.873 474.608 445.709 454.281 453.809C379.573 483.575 256.189 484.243 182.125 452.213C163.118 443.994 142.658 431.744 134.837 411.532C131.34 402.496 131.373 391.909 135.364 383.029C146.031 359.293 175.755 347.012 198.628 338.262C210.744 334.002 223.387 330.957 235.867 327.979C234.986 332.26 233.922 336.457 232.79 340.678C208.059 346.881 176.814 355.151 158.724 374.296C152.987 380.368 148.446 388.225 148.841 396.841C149.237 405.481 154.992 414.495 161.285 420.189C200.332 455.518 292.95 461.404 343.549 459.194C384.338 457.413 459.458 444.332 487.459 413.381C492.584 407.716 496.881 400.67 496.295 392.73C495.709 384.798 490.627 378.214 484.892 373.112C446.7 339.136 364.922 330.807 315.992 333.362C315.423 330.508 313.577 326.762 314.725 323.997C316.299 323.014 317.476 323.264 319.308 323.238Z" fill="#C8D2B3"/>
<path d="M603.957 271.729C617.62 271.261 632.08 271.661 645.632 273.471C648.636 281.048 650.726 289.335 652.007 297.356C649.095 297.776 646.169 298.039 643.228 298.144C640.287 298.25 637.35 298.198 634.415 297.989C630.738 297.736 626.957 297.069 623.277 297.321C629.851 300.908 644.976 299.904 652.216 298.895C653.068 301.324 653.697 303.698 655.913 305.256C657.619 306.456 659.962 306.823 661.989 306.456C666.298 305.675 670.922 302.423 673.258 298.743C677.183 292.562 673.567 283.058 671.964 276.491C676.783 277.368 681.596 278.278 686.403 279.221C707.07 283.401 730.228 290.183 742.46 308.638C716.665 329.627 680.423 337.058 648.052 340.077C600.59 344.503 519.379 342.033 481.327 310.494C479.569 308.87 477.899 307.125 476.196 305.442C489.909 294.069 505.74 287.456 522.677 282.481C522.302 286.125 521.466 290.59 522.581 294.117C523.262 296.27 524.76 297.717 526.774 298.654C538.498 304.11 567.001 301.575 581.365 302.624C597.241 303.784 612.574 306.031 628.081 309.603C638.299 311.956 648.687 315.515 659.118 316.587C664.831 317.174 669.945 316.558 675.338 314.561C681.821 312.159 691.843 301.111 694.344 294.743C694.854 293.443 694.794 292.933 694.222 291.698L693.459 291.493C692.147 292.629 692.018 295.124 691.175 296.705C688.749 301.256 684.821 306.074 680.715 309.225C680.078 309.718 679.422 310.183 678.745 310.62C678.068 311.057 677.374 311.464 676.663 311.842C675.952 312.219 675.226 312.566 674.485 312.881C673.744 313.196 672.99 313.479 672.225 313.73C671.46 313.981 670.685 314.198 669.901 314.383C669.118 314.568 668.327 314.718 667.53 314.835C666.733 314.952 665.933 315.035 665.129 315.083C664.326 315.132 663.521 315.146 662.716 315.125C653.378 314.875 643.906 311.777 634.898 309.526C624.079 306.823 613.23 304.326 602.15 302.957C590.285 301.523 578.379 300.7 566.43 300.489C556.324 300.393 545.804 301.126 535.784 299.737C532.282 299.252 527.404 298.604 525.245 295.489C522.667 291.771 524.097 286.023 524.684 281.9C545.877 274.588 581.385 272.402 603.957 271.729Z" fill="#D8AE56"/>
<path d="M203.514 591.596C211.522 590.486 219.632 590.172 227.642 589.034C257.929 584.731 288.444 579.161 318.42 573.063C339.608 568.752 360.558 563.213 381.721 558.75C408.625 553.118 435.762 549.036 463.132 546.505C464.006 558.498 464.128 570.554 465.475 582.513C444.979 592.752 422.859 605.171 415.256 628.251L415.103 628.727C409.764 630.603 404.576 632.785 399.17 634.485C390.979 637.061 382.619 638.847 374.248 640.721C374.257 634.54 374.846 627.609 373.69 621.543L372.878 621.027C370.891 624.881 371.973 636.259 372.005 641.119C311.49 650.23 258.209 644.626 204.12 614.904C203.789 609.971 203.344 605.02 203.429 600.073C203.756 597.293 203.549 594.394 203.514 591.596Z" fill="#F9EBD8"/>
<path d="M158.115 454.92C188.351 475.599 227.398 483.716 263.207 487.831C322.241 494.613 408.266 490.239 463.03 465.812C474.261 460.803 484.348 454.572 493.978 446.931C492.212 463.078 487.78 479.158 485.059 495.205C483.24 505.935 481.11 516.806 480.03 527.635C479.299 534.964 479.43 542.389 478.638 549.674L478.579 550.183C478.561 548.982 478.589 547.986 478.19 546.838C475.077 544.722 469.122 546.313 465.417 546.535C465.073 540.418 465.415 523.354 462.973 518.982L462.257 519.09C461.103 521.275 462.968 542.375 463.132 546.505C435.762 549.036 408.625 553.118 381.721 558.75C360.558 563.213 339.608 568.752 318.42 573.063C288.444 579.161 257.929 584.731 227.642 589.034C219.632 590.172 211.522 590.486 203.514 591.596C203.549 594.394 203.756 597.293 203.429 600.073C202.506 592.174 204.887 548.917 203.898 546.69L202.85 546.621L202.189 547.302C200.781 562.738 200.338 579.2 200.914 594.694L200.254 593.044C196.991 591.593 188.241 593.517 184.492 593.822C184.368 586.023 183.133 577.902 182.417 570.116C180.335 547.478 178.167 524.666 174.37 502.242C173.193 495.292 172.241 487.696 169.573 481.143C168.526 487.924 172.108 501.354 173.267 508.674C174.769 518.165 184.037 594.779 181.965 597.629L180.841 596.923C178.272 592.677 175.783 562.532 174.678 554.848C169.872 521.433 162.174 488.399 158.115 454.92Z" fill="#C8D2B3"/>
<path d="M245.985 228.713C257.907 220.98 272.785 212.141 285.937 206.967C373.549 172.498 493.424 191.6 582.74 210.599C588.868 211.903 613.86 219.781 617.908 218.412C619.019 220.077 620.098 221.763 621.147 223.468C576.961 223.472 529.554 228.437 489.052 247.22C478.591 252.071 468.236 257.888 459.987 266.063C453.353 272.638 448.193 280.85 448.043 290.457C447.929 297.766 451.12 303.706 453.026 310.531C454.013 314.065 454.652 317.68 455.764 321.182C456.812 324.481 458.528 327.99 459.016 331.404C459.461 334.513 458.915 338.127 458.725 341.269C443.635 336.435 428.582 331.823 413.051 328.581C379.992 321.679 346.993 321.313 313.383 321.512C310.702 309.143 308.375 291.65 296.86 284.346C294.583 282.901 291.809 282.01 289.261 281.166C284.307 282.28 282.221 283.394 277.603 280.436C262.944 271.047 252.044 244.822 245.985 228.713Z" fill="#C8D2B3"/>
<path d="M439.868 694.332C443.196 696.283 446.315 699.282 449.495 701.535C456.636 706.597 464.402 711.413 472.274 715.232C524.207 740.426 594.427 744.741 651.434 742.293C666.602 741.641 681.659 739.986 696.794 738.991C698.251 752.914 697.238 772.927 695.801 787.185C695.365 791.508 693.425 799.507 693.533 803.152C693.573 804.524 693.968 805.172 694.999 806.059C700.654 810.927 712.846 814.064 720.261 813.35C731.897 812.229 733.829 805.173 741.093 798.592C742.924 796.933 745.4 795.997 747.039 794.109C749.875 790.841 751.778 786.61 754.586 783.171C763.99 780.053 773.199 773.349 780.627 766.913C778.337 797.365 773.591 827.534 771.574 858.034C766.615 862.225 760.968 865.66 755.508 869.15C751.319 871.874 746.859 874.223 742.505 876.67C741.79 871.101 742.529 861.958 741.163 857.302C740.856 856.258 741.132 856.622 740.179 856.125C737.724 858.122 734.715 877.045 733.689 881.401C718.769 888.853 702.792 893.984 686.642 898.017C632.585 911.512 576.233 906.164 524.786 884.914C515.066 880.899 505.241 876.819 496.208 871.395C494.349 863.005 494.293 854.082 491.746 845.858L490.933 845.55C488.965 848.073 489.134 862.55 488.521 866.751C478.178 860.612 468.928 853.509 459.566 845.986C460.62 831.644 460.367 817.606 460.127 803.25C459.809 784.246 459.68 766.794 455.078 748.099C450.637 730.061 443.615 712.489 439.868 694.332Z" fill="#F9EBD8"/>
<path d="M767.838 269.788C775.505 271.95 783.012 275.641 790.304 278.843C831.946 297.13 869.097 325.352 891.685 365.407C892.304 366.509 892.896 367.625 893.461 368.756C894.025 369.887 894.561 371.031 895.07 372.188C895.578 373.345 896.058 374.514 896.509 375.695C896.96 376.876 897.381 378.067 897.773 379.268C898.166 380.47 898.528 381.681 898.861 382.9C899.194 384.119 899.496 385.346 899.769 386.58C900.041 387.814 900.283 389.054 900.495 390.3C900.706 391.546 900.887 392.797 901.037 394.052C901.187 395.307 901.306 396.564 901.395 397.825C901.483 399.086 901.54 400.349 901.567 401.612C901.593 402.876 901.588 404.14 901.552 405.403C901.516 406.666 901.449 407.928 901.352 409.188C901.254 410.448 901.125 411.705 900.965 412.959C900.806 414.212 900.615 415.461 900.394 416.706C900.173 417.951 899.922 419.189 899.64 420.421C899.358 421.653 899.046 422.877 898.704 424.094C895.266 436.135 888.699 445.335 880.61 454.739C878.449 452.004 876.374 449.771 873.432 447.822C866.166 443.009 848.416 436.772 839.777 435.732C831.413 434.726 823.014 436.155 816.308 441.591C815.911 441.916 815.522 442.25 815.141 442.594C814.76 442.938 814.388 443.291 814.025 443.653C813.662 444.016 813.307 444.387 812.962 444.766C812.617 445.145 812.281 445.533 811.954 445.929C811.628 446.325 811.312 446.729 811.005 447.14C810.698 447.552 810.402 447.971 810.116 448.397C809.83 448.823 809.555 449.256 809.29 449.695C809.025 450.134 808.771 450.58 808.528 451.032C808.285 451.484 808.054 451.942 807.833 452.405C807.612 452.868 807.403 453.337 807.206 453.81C807.008 454.283 806.822 454.761 806.648 455.244C806.474 455.727 806.312 456.213 806.161 456.704C806.01 457.195 805.872 457.689 805.746 458.186C805.62 458.683 805.506 459.183 805.404 459.686C805.303 460.189 805.213 460.694 805.136 461.201C805.059 461.708 804.995 462.217 804.943 462.728C803.759 475.4 810.09 489.423 818.031 499.043L817.462 499.237C810.725 501.593 804.291 504.868 797.645 507.49C786.821 511.761 775.534 515.383 764.343 518.542C755.828 520.899 747.265 523.066 738.654 525.045C730.043 527.024 721.393 528.811 712.704 530.408C704.014 532.005 695.293 533.41 686.542 534.623C677.791 535.836 669.017 536.855 660.22 537.68C643.556 539.23 626.806 539.864 610.101 540.782C587.82 542.006 565.607 543.353 543.296 544.011C524.948 544.553 506.301 543.685 488.023 544.859C490.455 524.175 492.958 503.141 497.73 482.859C523.062 495.971 549.351 504.875 577.571 509.164C639.444 518.568 688.08 505.544 738.365 468.575C737.043 460.257 735.525 434.523 736.728 426.705C737.127 424.117 738.193 421.615 738.875 419.088C744.3 398.984 750.854 379.278 757.647 359.593C761.603 348.129 765.893 336.72 769.367 325.1C769.919 323.253 770.79 320.984 770.379 319.062L769.62 319.358C766.063 327.519 763.727 336.492 760.732 344.902C751.636 370.447 742.812 396.131 736.055 422.398C735.949 417.747 735.97 393.63 733.932 391.492C733.087 392.489 732.971 393.402 732.918 394.688C732.66 400.997 733.513 407.733 733.71 414.078L735.57 467.786C730.539 472.723 723.605 476.506 717.65 480.227C687.268 499.206 658.181 507.787 622.599 510.198C622.251 506.003 623.09 496.468 620.948 493.173L619.821 493.51C618.834 498.709 620.149 505.219 620.648 510.476C578.893 510.649 534.697 501.808 498.12 480.983C501.39 469.113 507.185 447.272 505.586 435.23C507.25 432.514 508.931 429.759 510.344 426.904C516.112 415.255 519.34 398.702 514.959 386.137C507.956 366.055 485.193 353.445 467.013 344.696C464.232 339.91 461.441 335.333 459.975 329.957C486.666 357.18 541.442 366.139 578.119 368.967C614.231 371.751 655.361 370.33 690.671 362.052C702.059 359.382 713.339 355.662 724.308 351.625C736.063 347.299 748.608 342.2 758.181 334C754.231 343.928 740.023 383.582 739.836 392.578L740.469 393.014C741.676 392.008 750.958 360.327 752.347 356.114C756.746 342.774 761.749 329.49 766.807 316.383C769.133 310.356 772.283 304.577 773.674 298.23C776.003 287.605 773.546 278.816 767.838 269.788Z" fill="#C8D2B3"/>
</g>
<defs>
<linearGradient id="paint0_linear_179_2232" x1="570.497" y1="565.757" x2="565.379" y2="568.073" gradientUnits="userSpaceOnUse">
<stop stop-color="#EDE6D4"/>
<stop offset="1" stop-color="#EAECEE"/>
</linearGradient>
<linearGradient id="paint1_linear_179_2232" x1="553.199" y1="577.896" x2="552.33" y2="564.07" gradientUnits="userSpaceOnUse">
<stop stop-color="#EFE2D2"/>
<stop offset="1" stop-color="#F1F0F4"/>
</linearGradient>
<clipPath id="clip0_179_2232">
<rect width="1024" height="1024" fill="white"/>
</clipPath>
</defs>
</svg>
