<svg width="1020" height="1020" viewBox="0 0 1020 1020" fill="none" xmlns="http://www.w3.org/2000/svg">
<g clip-path="url(#clip0_157_872)">
<path d="M0 0H1020V1020H0V0Z" fill="#F9EBD8"/>
<path d="M477.12 234.726C496.423 204.102 528.478 188.531 562.695 180.738C585.273 175.596 609.649 173.756 632.786 173.814C707.375 174.003 851.111 195.786 913.698 235.037C936.399 249.275 954.777 270.932 960.712 297.471C970.517 341.324 953.532 386.752 930.051 423.308C903.904 464.015 875.217 492.924 838.235 523.638C834.363 526.853 830.471 530.104 826.358 533.007C819.305 537.981 811.947 542.445 805.708 548.457C803.994 541.704 801.643 534.98 799.612 528.308C795.155 513.243 790.393 498.276 785.326 483.405L752.563 385.907C748.819 375.049 745.127 364.127 741.213 353.331C738.991 347.203 736.485 341.182 734.519 334.962C745.662 328.05 757.092 318.011 764.731 307.407C771.164 298.477 775.6 288.713 773.668 277.491C771.446 264.576 764.854 251.48 753.927 243.869C734.541 230.366 688.406 232.552 665.685 236.522C662.291 228.674 657.32 209.293 650.273 205.526C636.718 198.277 607.713 205.354 593.216 209.842C573.759 215.867 539.568 230.634 530.317 249.132C529.83 250.107 528.892 251.856 528.904 252.969C528.943 256.709 533.258 262.358 534.813 265.89C536.998 270.857 538.581 276.289 540.4 281.419C532.609 277.361 522.379 273.91 515.434 268.802C509.704 267.446 503.38 263.658 497.892 261.265C488.48 257.163 479.048 253.494 469.245 250.438C472.114 245.457 473.059 239.154 477.168 234.902L477.12 234.726Z" fill="#E1E9CB"/>
<path d="M477.168 234.902C487.014 241.644 495.355 251.312 504.277 259.245C507.744 262.328 512.647 265.19 515.434 268.802C509.704 267.446 503.38 263.658 497.892 261.265C488.48 257.163 479.048 253.494 469.245 250.438C472.114 245.457 473.059 239.154 477.168 234.902Z" fill="#909D7A"/>
<path d="M164.094 492.973C164.022 492.351 164.089 491.699 163.878 491.109C163.009 488.667 151.51 477.04 149.054 474.394C128.921 452.705 109.706 430.511 93.0682 405.982C87.4147 397.647 81.876 389.455 77.4748 380.358C71.146 367.276 66.8549 353.116 65.9473 338.572C64.6753 318.186 69.2092 302.022 76.1809 283.24C91.8171 241.118 116.122 206.292 145.811 172.901C150.978 167.09 156.712 161.86 162.527 156.712C186.763 135.25 213.838 120.878 246.75 118.927C324.528 114.316 401.605 170.669 457.716 218.37C464.16 223.847 470.802 229.104 477.12 234.726L477.168 234.902C473.059 239.154 472.114 245.457 469.245 250.438C479.048 253.494 488.48 257.163 497.892 261.265C503.38 263.658 509.704 267.446 515.434 268.802C522.379 273.91 532.609 277.361 540.4 281.419C538.581 276.289 536.998 270.857 534.813 265.89C533.258 262.358 528.943 256.709 528.904 252.969C528.892 251.856 529.83 250.107 530.317 249.132C539.568 230.634 573.759 215.867 593.216 209.842C607.713 205.354 636.718 198.277 650.273 205.526C657.32 209.293 662.291 228.674 665.685 236.522C688.406 232.552 734.541 230.366 753.927 243.869C764.854 251.48 771.446 264.576 773.668 277.491C775.6 288.713 771.164 298.477 764.731 307.407C757.092 318.011 745.662 328.05 734.519 334.962C736.485 341.182 738.991 347.203 741.213 353.331C745.127 364.127 748.819 375.049 752.563 385.907L785.326 483.405C790.393 498.276 795.155 513.243 799.612 528.308C801.643 534.98 803.994 541.704 805.708 548.457C808.493 560.001 812.657 571.064 815.918 582.45C821.572 602.198 826.815 622.072 832.917 641.69C836.481 653.147 840.643 664.502 844.478 675.878C848.616 688.151 852.983 700.31 857.251 712.533C859.914 720.158 862.241 728.085 865.528 735.461C884.062 738.874 901.113 738.899 915.907 752.849C924.896 761.326 930.398 781.382 930.681 793.418C931.032 808.383 923.705 820.511 913.607 831.01C905.796 839.134 896.661 845.797 887.274 851.97C854.358 873.618 817.93 886.181 779.684 894.687C764.243 898.12 748.754 901.226 732.879 901.519C715.851 901.833 678.898 894.879 666.372 882.577C657.538 873.9 651.539 853.628 651.475 841.586C651.379 823.179 669.533 806.474 681.501 794.393C677.554 782.024 673.519 769.221 668.365 757.31C646.664 765.869 629.075 790.356 612.978 806.784C577.447 843.051 522.303 880.749 471.879 891.141C446.643 896.343 421.072 890.035 399.714 875.812C384.521 865.695 375.244 850.875 371.68 833.103C356.782 838.265 341.976 842.627 326.054 842.913C323.858 842.932 321.662 842.885 319.467 842.771C317.273 842.658 315.084 842.478 312.901 842.232C310.718 841.987 308.544 841.676 306.38 841.299C304.215 840.922 302.064 840.481 299.926 839.974C297.788 839.467 295.668 838.896 293.564 838.262C291.46 837.627 289.378 836.929 287.316 836.169C285.255 835.408 283.219 834.586 281.207 833.703C279.196 832.82 277.213 831.876 275.258 830.873C268.673 827.516 262.423 823.476 255.96 819.882C246.181 814.442 235.176 808.36 227.156 800.494C214.144 787.732 205.164 763.405 202.192 745.714C200.574 736.077 200.222 726.54 200.182 716.801C188.544 701.369 181.209 684.606 174.506 666.578C164.645 640.063 156.963 610.409 157.022 581.976C157.054 566.705 158.968 551.409 160.382 536.219L164.094 492.973Z" fill="#4F623F"/>
<path d="M555.191 394.872C555.962 394.868 556.825 394.807 557.585 394.921C558.837 395.11 558.907 395.08 559.597 396.138C559.405 397.942 558.9 399.644 558.425 401.391L557.969 402.213C556.456 400.483 555.887 397.097 555.191 394.872Z" fill="#909D7A"/>
<path d="M525.766 464.89C529.374 465.696 537.237 466.03 539.467 468.732C540.304 471.268 539.441 473.286 538.767 475.786C535.464 473.455 528.082 467.916 525.766 464.89Z" fill="#909D7A"/>
<path d="M448.6 702.34C453.8 699.929 459.091 697.746 464.381 695.544C463.131 699.017 461.764 702.415 460.325 705.813C456.436 704.487 452.601 703.277 448.6 702.34Z" fill="#BAC7A8"/>
<path d="M467.299 375.642C473.476 378.561 479.534 381.71 485.471 385.091C479.855 384.89 474.25 384.517 468.656 383.97C469.731 381.428 468.088 378.147 467.299 375.642Z" fill="#909D7A"/>
<path d="M647.838 682.356C653.452 681.791 659.163 681.87 664.802 681.765C661.522 684.646 658.094 687.447 655.249 690.77L651.029 691.079C649.857 688.227 648.882 685.26 647.838 682.356Z" fill="#909D7A"/>
<path d="M462.568 301.824C458.889 298.773 455.128 295.769 451.569 292.58C449.407 290.641 447.36 288.973 447.223 285.911L447.792 285.427C452.833 286.808 458.008 290.076 462.787 292.349C462.873 295.369 463.292 298.895 462.568 301.824Z" fill="#BAC7A8"/>
<path d="M240.869 562.807C246.906 566.427 252.925 570.255 258.384 574.713C257.818 575.351 257.185 575.306 256.374 575.5L238.163 573.434L240.869 562.807Z" fill="#F9EBD8"/>
<path d="M536.57 261.858C537.116 262.025 537.877 262.207 538.375 262.522C542.048 264.839 556.336 305.611 558.813 312.338C553.246 309.019 539.923 269.853 536.57 261.858Z" fill="#E1E9CB"/>
<path d="M523.134 393.751C524.058 393.934 524.636 394.346 525.296 395.013C529.689 399.462 533.421 405.061 537.471 409.881C542.417 415.767 547.863 421.21 552.71 427.176L551.341 434.196L550.832 434.609C547.985 432.192 544.431 424.277 542.144 420.692C536.219 411.408 529.4 402.793 523.134 393.751Z" fill="#909D7A"/>
<path d="M604.026 389.724L634.921 381.867C637.101 384.57 639.549 386.99 641.994 389.451C629.566 390.715 616.449 390.943 604.026 389.724Z" fill="#909D7A"/>
<path d="M684.189 646.709L701.372 644.938C698.281 649.511 694.35 653.842 690.686 657.971C685.424 657.991 680.087 657.331 674.842 656.909L684.189 646.709Z" fill="#909D7A"/>
<path d="M690.036 633.817C697.927 631.203 706.078 629.114 714.066 626.791C711.093 631.249 707.403 635.537 704.921 640.272L705.12 641.192C701.563 642.563 690.645 641.935 686.311 641.871C687.498 639.161 688.74 636.476 690.036 633.817Z" fill="#909D7A"/>
<path d="M551.082 306.537C544.632 302.211 539.093 296.042 533.507 290.662C526.767 284.175 519.928 277.944 512.734 271.963C518.138 274.64 524.15 276.943 529.272 280.079C533.619 282.103 538.123 283.987 542.353 286.238C543.351 288.642 544.392 291.029 545.185 293.511C546.486 297.858 549.378 302.2 551.082 306.537Z" fill="#909D7A"/>
<path d="M545.185 293.511L544.695 294.188C541.895 293.475 530.704 283.331 528.675 280.751L529.272 280.079C533.619 282.103 538.123 283.987 542.353 286.238C543.351 288.642 544.392 291.029 545.185 293.511Z" fill="#E1E9CB"/>
<path d="M729.873 338.597L730.883 338.91C733.79 342.767 734.818 348.618 736.072 353.25C727.671 353.725 719.265 354.052 710.853 354.233L703.901 354.438C712.158 348.75 721.391 344.025 729.873 338.597Z" fill="#E1E9CB"/>
<path d="M729.093 599.311C727.029 603.779 721.439 613.625 721.416 618.342C717.749 622.461 693.753 627.917 687.532 628.99C702.031 619.961 714.993 608.892 729.093 599.311Z" fill="#909D7A"/>
<path d="M426.148 347.375C433.289 353.823 440.54 360.2 448.824 365.166C454.837 368.771 461.589 371.604 467.299 375.642C468.089 378.147 469.731 381.428 468.656 383.97C464.012 381.855 459.474 378.335 455.217 375.505C442.732 367.204 430.84 358.325 418.682 349.576C421.197 348.976 423.675 348.132 426.148 347.375Z" fill="#BAC7A8"/>
<path d="M448.487 294.786L465.725 310.48C465.796 310.757 465.865 311.036 465.941 311.312C467.851 318.236 474.906 332.005 473.819 339.111L473.042 340.147C461.879 326.038 454.188 311.828 448.487 294.786Z" fill="#BAC7A8"/>
<path d="M797.974 542.225C798.903 546.226 799.772 550.896 801.648 554.549C795.796 575.662 777.594 589.144 759.411 599.45C758.345 599.963 758.917 599.831 757.688 599.82C760.127 595.647 766.317 591.395 769.922 587.98C782.731 575.849 792.89 559.033 797.974 542.225Z" fill="#F9EBD8"/>
<path d="M430.859 345.916C440.205 343.008 449.874 342.143 459.601 341.987C459.724 348.103 460.794 353.914 462.01 359.888C462.581 362.689 463.834 366.165 463.761 368.974C451.769 363.467 440.421 354.952 430.859 345.916Z" fill="#BAC7A8"/>
<path d="M408.876 330.663C413.166 333.537 418.503 339.859 422.495 343.637C413.492 346.914 404.55 349.529 395.067 351.016C390.354 351.476 385.603 351.242 380.892 350.912C387.292 340.94 398.387 335.383 408.876 330.663Z" fill="#BAC7A8"/>
<path d="M691.167 448.159C703.381 442.91 714.472 437.159 725.305 429.404C721.097 442.852 713.501 455.966 704.573 466.85C699.581 461.814 694.94 454.201 691.167 448.159Z" fill="#E1E9CB"/>
<path d="M706.489 471.259C713.159 462.173 719.333 453.023 724.029 442.716C726.594 437.084 727.759 429.546 731.305 424.566C733.109 422.032 736.746 419.673 739.203 417.701C734.27 439.636 725.666 462.56 711.913 480.564L706.489 471.259Z" fill="#E1E9CB"/>
<path d="M642.151 666.415C656.806 668.32 659.442 663.423 671.709 661.221C676.488 660.364 682.412 661.328 687.306 661.397C681.661 667.48 675.78 672.957 669.439 678.305C661.763 678.094 654.058 678.294 646.379 678.368L642.151 666.415Z" fill="#909D7A"/>
<path d="M653.936 221.603C655.781 223.638 672.763 267.474 673.511 271.774C674.141 275.405 672.072 280.953 670.096 283.999L669.32 283.935C661.758 265.185 655.034 246.081 647.597 227.27C650.119 225.63 652.162 224.07 653.936 221.603Z" fill="#E1E9CB"/>
<path d="M499.479 600.612C499.765 604.497 490.945 625.436 488.959 630.646C482.142 628.639 475.655 624.827 469.406 621.489C466.183 619.83 463.075 617.804 459.951 615.958C472.94 610.379 486.502 606.369 499.479 600.612Z" fill="#BAC7A8"/>
<path d="M389.379 248.568C416.205 243.924 441.824 246.728 467.77 254.408C466.307 259.024 464.142 263.341 463.249 268.12C438.013 256.503 416.77 251.912 389.379 248.568Z" fill="#BAC7A8"/>
<path d="M569.603 451.971C591.038 458.227 613.269 461.415 635.612 459.714L623.622 464.165C608.776 469.532 593.477 474.127 577.583 474.732C574.443 467.366 572.008 459.603 569.603 451.971Z" fill="#909D7A"/>
<path d="M448.955 320.936C450.745 320.587 452.774 320.594 454.602 320.436C458.2 326.453 461.685 332.499 465.809 338.177C454.049 337.231 442.796 339.004 431.316 341.268L428.45 341.933C423.489 341.04 417.008 332.782 413.489 329.167C425.155 325.302 436.725 322.335 448.955 320.936Z" fill="#BAC7A8"/>
<path d="M803.023 561.665C804.808 563.706 807.504 576.154 808.909 579.745C792.936 597.531 758.817 612.067 735.5 617.964L728.035 619.62C733.97 616.488 739.379 612.395 745.321 609.299C751.148 606.264 757.315 603.883 763.173 600.891C780.073 592.26 795.325 579.293 803.023 561.665Z" fill="#F9EBD8"/>
<path d="M755.471 572.096C770.21 553.336 782.5 535.517 788.346 511.96C789.796 516.074 791.42 520.128 792.936 524.219C797.642 536.922 792.608 547.27 787.255 558.902C779.279 561.407 761.517 571.668 755.471 572.096Z" fill="#E1E9CB"/>
<path d="M675.253 428.129C698.103 422.208 720.057 415.831 742.171 407.521C729.676 420.458 716.783 430.482 700.656 438.651C696.588 440.712 692.314 442.925 687.996 444.374C683.375 439.501 679.365 433.462 675.253 428.129Z" fill="#E1E9CB"/>
<path d="M683.316 635.752L683.625 636.274C683.519 636.877 683.424 637.4 683.204 637.974C679.694 647.132 672.345 655.388 663.36 659.473C658.642 661.618 646.216 664.12 641.755 662.054C640.265 661.364 639.838 659.888 639.281 658.472C637.59 653.745 635.998 649.037 634.599 644.212C651.02 643.026 667.094 638.37 683.316 635.752Z" fill="#909D7A"/>
<path d="M405.17 281.103C417.754 279.589 432.937 281.59 445.042 285.082C438.527 286.23 431.647 285.78 425.043 286.17C406.626 287.257 390.537 291.591 373.808 299.25C366.043 303.204 358.936 307.922 351.856 312.971C350.209 309.464 348.81 305.791 347.306 302.217C363.534 288.748 384.409 282.502 405.17 281.103Z" fill="#BAC7A8"/>
<path d="M465.725 310.48C471.965 315.529 479.425 320.59 484.392 326.949C490.167 334.343 494.467 346.33 499.29 354.894C503.154 361.787 507.168 368.591 511.332 375.306C514.11 379.801 517.303 384.298 519.627 389.033C503.289 373.933 485.386 358.86 473.042 340.147L473.819 339.111C474.906 332.005 467.851 318.236 465.941 311.312C465.865 311.036 465.796 310.757 465.725 310.48Z" fill="#909D7A"/>
<path d="M459.601 341.987L468.384 342.231C475.59 350.859 482.84 359.434 490.636 367.54C497.64 374.82 505.066 381.679 512.06 388.973C494.087 387.044 479.501 377.19 463.761 368.974C463.834 366.165 462.581 362.689 462.01 359.888C460.794 353.914 459.724 348.103 459.601 341.987Z" fill="#909D7A"/>
<path d="M570.087 374.737C586.605 372.188 602.712 368.048 619.012 364.474C622.706 369.121 626.737 373.747 631.078 377.802C624.552 379.058 618.086 381.29 611.576 382.757C596.616 386.094 581.526 388.658 566.304 390.449L570.087 374.737Z" fill="#909D7A"/>
<path d="M546.04 262.755L559.851 262.342C564.657 273.047 568.479 284.365 572.824 295.279C575.99 303.233 579.844 310.999 582.829 319.004C583.216 320.043 583.432 320.534 582.918 321.564L581.455 321.699C574.702 319.772 569.287 316.477 563.065 313.321C562.756 312.72 562.459 312.113 562.177 311.499C559.341 305.47 557.575 298.876 555.356 292.598C552.855 285.516 549.983 278.547 547.25 271.552C546.647 270.009 544.095 264.892 544.178 263.553C544.191 263.335 544.328 263.144 544.402 262.94L546.04 262.755Z" fill="#E1E9CB"/>
<path d="M413.976 351.319C420.522 355.404 426.448 360.919 432.726 365.452C440.822 371.3 449.432 376.39 457.508 382.256C447.761 381.331 438.213 379.291 428.71 377.002C418.821 374.672 394.94 369.771 386.975 364.207C383.253 361.608 380.951 358.215 378.514 354.497C390.667 356.2 402.212 354.631 413.976 351.319Z" fill="#BAC7A8"/>
<path d="M738.202 536.748C757.678 512.183 766.32 485.487 770.276 454.763C772.687 462.527 775.9 470.004 778.36 477.753C770.098 505.046 758.435 531.678 739.257 553.236C737.978 548.192 738.471 541.988 738.202 536.748Z" fill="#E1E9CB"/>
<path d="M663.832 413.034C681.692 409.667 699.26 405.162 716.536 399.518C726.99 395.991 737.367 391.343 747.975 388.419L751.392 397.629C730.134 411.392 696.829 416.835 672.291 424.052C672.035 423.8 671.773 423.554 671.528 423.291C669.902 421.551 663.798 414.966 663.832 413.034Z" fill="#E1E9CB"/>
<path d="M474.111 394.621C495.335 409.516 525.357 441.679 539.212 463.66C529.414 461.547 518.273 458.967 509.361 454.412C509.156 452.769 496.241 433.888 494.256 430.759C489.079 422.598 484.68 414.227 480.159 405.691C478.19 401.975 475.912 398.423 474.111 394.621Z" fill="#909D7A"/>
<path d="M755.471 572.096C761.517 571.668 779.279 561.407 787.255 558.902C776.058 583.715 745.213 606.092 721.416 618.342C721.439 613.625 727.029 603.779 729.093 599.311C731.738 595.397 736.472 591.758 739.872 588.365C745.186 583.062 750.319 577.558 755.471 572.096Z" fill="#F9EBD8"/>
<path d="M343.361 271.241C348.94 265.051 354.462 257.718 362.534 254.735C379.861 248.331 421.569 257.061 439.159 262.813C447.554 265.56 455.556 269.268 463.567 272.955C462.952 277.709 463.014 282.509 462.502 287.274C447.167 280.473 433.774 271.189 417.666 265.761C389.069 256.126 370.087 258.027 343.361 271.241Z" fill="#BAC7A8"/>
<path d="M644.035 230.671C646.655 234.539 652.219 252.124 654.373 257.82C658.316 268.248 662.952 278.503 666.428 289.089C662.229 293.505 657.191 296.962 651.883 299.896C647.963 291.189 645.187 281.612 641.888 272.637C637.77 261.436 633.092 250.413 629.308 239.095C634.324 236.496 639.486 234.048 644.035 230.671Z" fill="#E1E9CB"/>
<path d="M439.871 307.497C442.626 307.077 445.612 307.273 448.402 307.251C449.893 310.327 451.197 313.488 452.531 316.634C441.435 317.221 430.261 319.516 419.608 322.625C403.198 327.413 385.119 334.844 376.497 350.548L376.052 350.494C371.971 346.913 367.034 338.318 363.67 333.576C386.165 319.377 413.509 310.276 439.871 307.497Z" fill="#BAC7A8"/>
<path d="M579.897 258.063L581.197 257.885C581.696 258.217 581.946 258.475 582.178 259.036C583.583 262.426 584.602 266.02 585.916 269.455C592.139 285.715 598.369 302.436 605.532 318.284C600.46 319.393 595.453 320.374 590.302 321.07C589.423 321.192 588.569 321.199 587.68 321.226C585.219 319.223 566.944 269.034 564.368 261.46C569.587 260.455 574.741 259.359 579.897 258.063Z" fill="#E1E9CB"/>
<path d="M566.78 326.089C572.007 326.31 577.945 327.14 583.094 326.224L582.468 327.092C583.666 329.374 611.322 356.564 615.236 360.488C611.114 360.912 606.648 362.371 602.583 363.298C592.163 365.676 581.676 368.273 571.121 369.959C572.891 352.418 571.03 343.003 566.78 326.089Z" fill="#909D7A"/>
<path d="M363.618 721.754C372.524 719.613 381.954 719.024 391.018 717.625C410.58 714.602 430.307 709.967 448.6 702.34C452.601 703.277 456.436 704.487 460.325 705.813C457.258 713.529 454.319 721.418 450.613 728.85C442.559 729.214 434.323 728.421 426.283 727.857C405.312 726.386 384.545 723.574 363.618 721.754Z" fill="#F9EBD8"/>
<path d="M625.099 242.06C625.596 242.281 625.873 242.672 626.128 243.157C628.893 248.4 630.662 255.304 632.759 260.902C637.84 274.644 643.071 288.328 648.454 301.955C642.886 305.12 637.206 307.939 631.434 310.71C626.629 298.426 621.894 286.116 617.229 273.778C614.103 265.685 610.699 257.626 608.018 249.375C613.559 246.675 619.408 244.44 625.099 242.06Z" fill="#E1E9CB"/>
<path d="M604.041 250.654C604.34 250.995 626.63 308.817 627.655 312.25C621.778 314.171 615.801 315.848 609.874 317.617C606.115 311.738 603.878 303.348 601.326 296.785C596.151 283.476 590.74 270.222 585.936 256.777C591.884 254.559 598.027 252.7 604.041 250.654Z" fill="#E1E9CB"/>
<path d="M494.11 334.43C506.681 341.954 542.38 378.344 549.62 390.992C554.438 399.409 556.44 410.331 553.93 419.665L553.764 419.973L553.025 419.974C531.612 401.018 505.208 360.871 494.11 334.43Z" fill="#909D7A"/>
<path d="M462.787 292.349C496.844 308.182 533.224 337.964 546.216 374C547.125 376.522 547.722 379.139 548.373 381.736C542.512 373.262 535.12 365.919 527.81 358.704C513.033 344.119 497.381 330.926 481.545 317.548C476.174 313.012 466.904 306.907 462.568 301.824C463.292 298.895 462.873 295.369 462.787 292.349Z" fill="#909D7A"/>
<path d="M646.503 393.565C669.511 391.219 691.94 387.721 714.607 383.178C724.189 381.259 734.526 379.663 743.503 375.715L746.43 384.146C718.151 395.645 688.993 404.902 658.761 409.546C655.653 406.61 648.138 397.255 646.503 393.565Z" fill="#E1E9CB"/>
<path d="M868.365 773.386C868.852 774.088 868.796 774.549 868.795 775.381C868.778 787.528 861.323 797.56 852.934 805.571C824.66 832.572 776.938 847.585 738.317 846.631L738.016 846.493C738.205 845.837 751.488 843.347 753.47 842.848C787.008 834.408 825.22 815.736 851.023 792.352C857.435 786.541 862.861 780.028 868.365 773.386Z" fill="#F9EBD8"/>
<path d="M780.499 485.333C782.228 490.86 784.625 496.818 785.243 502.588C786.397 513.379 780.045 526.796 775.232 536.06C765.527 554.74 750.605 572.942 735.238 587.274C734.005 583.888 738.165 571.316 738.874 566.878C739.232 564.625 739.192 562.374 739.127 560.101C757.576 538.305 772.819 513.028 780.499 485.333Z" fill="#E1E9CB"/>
<path d="M761.942 431.422C763.516 435.86 764.971 440.259 765.597 444.944C768.233 464.697 761.059 487.738 752.578 505.518C748.349 514.383 743.227 524.168 736.86 531.626C733.237 524.126 730.313 516.127 726.988 508.474C742.103 483.99 757.55 460.521 761.942 431.422Z" fill="#E1E9CB"/>
<path d="M391.041 559.954C407.177 561.107 423.442 562.506 439.472 564.686C454.497 566.729 469.176 569.509 484.299 570.906L468.31 576.587C453.248 581.996 438.127 587.226 422.512 590.812C415.235 584.905 394.251 567.558 391.041 559.954Z" fill="#BAC7A8"/>
<path d="M560.606 414.556C568.108 415.58 575.545 416.971 583.084 417.726C601.944 419.614 620.865 418.872 639.671 416.749C647.694 415.842 655.985 414.959 663.832 413.034C663.798 414.966 669.902 421.551 671.528 423.291C671.773 423.554 672.035 423.8 672.291 424.052C634.171 431.416 600.895 433.633 562.154 429.834C561.272 426.169 560.331 422.597 559.102 419.033L560.606 414.556Z" fill="#909D7A"/>
<path d="M834.097 661.89C835.155 663.382 835.685 665.449 836.329 667.168C829.851 672.011 821.967 675.786 814.779 679.466C804.047 684.959 793.221 690.286 782.007 694.732C770.663 699.229 758.859 702.55 747.163 705.989C733.335 710.053 719.482 714.108 705.394 717.185C698.041 718.791 666.552 724.807 661.906 721.826C660.146 718.148 658.869 714.081 657.416 710.264C720.138 712.688 780.012 692.576 834.097 661.89Z" fill="#F9EBD8"/>
<path d="M701.372 644.938C710.108 644.934 719.279 643.164 727.835 641.471C759.044 635.295 791.77 624.334 814.722 601.418L818.414 613.135C786.542 639.043 731.968 658.471 690.686 657.971C694.35 653.842 698.281 649.511 701.372 644.938Z" fill="#F9EBD8"/>
<path d="M436.54 289.576C438.68 289.502 440.854 289.62 442.997 289.655C444.689 293.996 445.99 298.502 447.388 302.946C421.573 303.722 385.482 313.612 364.321 328.578C363.466 329.215 362.987 329.61 361.905 329.698C358.215 327.279 355.864 321.082 353.853 317.218C357.984 313.333 362.908 310.133 367.767 307.245C389.074 294.581 412.253 290.963 436.54 289.576Z" fill="#BAC7A8"/>
<path d="M630.411 640.22C638.593 636.258 646.892 632.623 654.899 628.294C660.274 625.388 665.552 622.317 670.734 619.079C675.916 615.842 680.991 612.445 685.96 608.889C690.929 605.333 695.781 601.625 700.516 597.765C705.251 593.904 709.861 589.898 714.346 585.748C722.987 577.603 730.998 568.752 739.127 560.101C739.192 562.374 739.232 564.625 738.874 566.878C738.165 571.316 734.005 583.888 735.238 587.274C723.304 599.017 689.153 625.411 674.072 631.75C664.512 635.768 640.993 639.953 630.411 640.22Z" fill="#909D7A"/>
<path d="M264.343 482.985C267.168 486.37 268.788 491.985 270.816 495.957C273.248 500.72 276.175 505.281 279.257 509.645C284.508 517.021 290.226 524.015 296.413 530.626C301.344 535.932 306.593 541.027 311.152 546.658C307.231 545.781 303.188 545.332 299.212 544.763C282.77 542.285 265.361 539.371 249.711 533.629C253.823 516.669 259.536 499.796 264.343 482.985Z" fill="#BAC7A8"/>
<path d="M381.839 264.182C401.601 262.611 422.263 270.818 439.503 279.623C415.749 274.861 391.603 275.437 368.92 284.569C358.743 288.583 341.62 299.472 333.551 307.094C332.471 302.696 331.319 298.467 329.327 294.383C331.963 288.777 334.798 283.327 338.273 278.189C355.739 270.865 361.56 265.225 381.839 264.182Z" fill="#BAC7A8"/>
<path d="M218.671 648.226C221.281 650.589 223.285 654.27 225.432 657.124C229.15 662.069 233.145 666.977 237.426 671.453C250.903 685.545 268.177 697.695 285.039 707.403C290.339 710.454 295.88 713.072 301.22 716.06C298.605 716.23 295.986 716.174 293.368 716.159C288.968 715.82 284.542 715.426 280.185 714.724C253.73 710.464 228.092 695.288 212.301 673.47C213.941 664.957 216.283 656.554 218.671 648.226Z" fill="#F9EBD8"/>
<path d="M262.856 580.904C283.469 584.526 303.798 589.839 324.382 593.335C332.863 594.776 341.438 595.635 349.996 596.449C359.264 597.331 369.215 597.368 377.871 601.15C362.723 604.384 347.508 607.272 332.228 609.815C321.527 611.686 310.737 613.861 299.921 614.904C298.027 612.33 294.04 609.826 291.517 607.692C281.919 599.575 270.446 590.991 262.856 580.904Z" fill="#BAC7A8"/>
<path d="M714.066 626.791L714.93 626.502C722.761 623.93 731.048 622.998 738.997 620.813C763.26 614.144 791.849 601.106 809.934 583.525C811.132 588.16 812.399 592.776 813.734 597.373C812.145 599.053 810.499 600.676 808.797 602.242C807.096 603.809 805.343 605.315 803.537 606.76C801.731 608.205 799.878 609.586 797.977 610.902C796.076 612.219 794.131 613.469 792.144 614.652C768.661 628.797 732.469 639.481 705.12 641.192L704.921 640.272C707.403 635.537 711.093 631.249 714.066 626.791Z" fill="#F9EBD8"/>
<path d="M474.682 389.427C488.292 390.465 501.443 392.794 515.177 392.968C527.39 404.738 542.391 425.882 548.901 441.559C547.715 446.584 545.848 451.474 544.176 456.353L542.905 461.77C539.383 455.026 534.309 448.999 529.509 443.129C513.095 423.059 494.738 405.771 474.682 389.427Z" fill="#909D7A"/>
<path d="M714.916 483.951C725.155 468.082 733.426 452.463 738.66 434.235C740.561 427.614 741.479 418.166 744.302 412.329C745.999 408.823 749.932 405.225 752.631 402.405C755.075 408.886 758.128 416.378 759.043 423.261C760.423 433.652 752.907 452.52 748.588 462.09C742.228 476.182 734.531 490.303 725.857 503.095C721.968 499 717.728 489.157 714.916 483.951Z" fill="#E1E9CB"/>
<path d="M565.16 395.092C571.768 394.934 578.308 393.279 584.924 393.247C592.019 393.212 599.2 394.54 606.329 394.764C619.748 395.186 633.117 394.39 646.503 393.565C648.138 397.255 655.653 406.61 658.761 409.546C625.581 414.583 594.255 416.594 561.102 410.264C562.719 405.291 563.886 400.162 565.16 395.092Z" fill="#909D7A"/>
<path d="M463.567 272.955C473.992 277.425 483.974 283 493.568 289.034C518.074 304.445 538.662 323.54 549.672 350.951C551.813 356.283 561.491 385.906 559.933 390.208C558.222 390.416 556.831 390.313 555.13 390.058C553.779 387.152 553.278 383.684 552.518 380.574C551.137 374.914 549.566 369.744 547.03 364.469C530.385 329.851 496.663 303.447 462.502 287.274C463.014 282.509 462.952 277.709 463.567 272.955Z" fill="#909D7A"/>
<path d="M420.614 595.787C423.54 596.267 437.403 607.001 441.06 609.358C456.089 619.041 471.062 627.71 487.223 635.331C485.586 639.667 483.849 643.963 482.014 648.219C475.584 646.715 469.443 643.942 463.348 641.457C437.561 630.799 413.528 617.339 389.212 603.771C399.505 600.538 410.074 598.066 420.614 595.787Z" fill="#BAC7A8"/>
<path d="M510.475 566.34L510.664 566.657C510.558 571.185 503.594 589.184 501.558 594.34C487.089 601.624 469.503 609.077 453.599 611.914C448.49 608.728 443.421 605.479 438.391 602.168C434.717 599.583 431.067 596.966 427.441 594.317C455.649 586.45 482.625 575.238 510.475 566.34Z" fill="#BAC7A8"/>
<path d="M738.202 536.748C738.471 541.988 737.978 548.192 739.257 553.236C735.651 558.553 730.234 563.702 725.807 568.388C700.813 594.848 665.944 622.295 631.324 634.399C629.531 629.636 628.045 624.693 626.434 619.861C653.318 615.61 696.332 581.67 715.54 562.534C723.663 554.441 730.815 545.502 738.202 536.748Z" fill="#909D7A"/>
<path d="M302.098 619.282C328.952 614.917 355.732 610.134 382.436 604.935C391.311 609.195 405.272 617.806 413.737 623.178C388.023 629.661 356.009 631.067 329.399 631.415C323.183 631.496 316.323 632.105 310.2 631.097C312.741 630.921 315.323 631.01 317.871 631.005C312.459 627.304 307.202 623.396 302.098 619.282Z" fill="#BAC7A8"/>
<path d="M662.067 373.034C669.089 370.387 676.017 367.515 682.853 364.418C686.963 362.6 691.196 360.255 695.515 359.037C702.516 357.062 728.357 357.859 737.531 357.553L742.41 372.267C727.303 377.09 711.564 379.613 695.987 382.434C680.273 385.28 657.479 389.605 641.994 389.451C639.549 386.99 637.101 384.57 634.921 381.867C641.024 380.051 649.749 376.265 655.867 375.944C659.156 375.77 662.646 376.562 665.916 376.996C671.311 377.71 676.631 377.898 682.037 377.198C675.318 376.011 668.633 374.922 662.067 373.034Z" fill="#E1E9CB"/>
<path d="M664.802 681.765C677.869 681.735 690.892 681.353 703.875 679.791C743.428 675.032 794.11 660.27 824.356 633.383C825.92 637.838 827.366 642.33 828.696 646.858C810.427 668.783 722.728 687.736 693.357 690.435C680.569 691.61 668.049 691.977 655.249 690.77C658.094 687.447 661.522 684.646 664.802 681.765Z" fill="#F9EBD8"/>
<path d="M864.702 752.35C867.049 754.629 867.812 763.458 868.317 766.74C858.381 786.002 831.919 803.99 813.076 814.647C786.343 829.763 742.164 849.585 711.328 841.002C708.751 840.011 706.397 838.633 703.999 837.279C716.693 836.888 728.849 835.583 741.269 832.837C779.523 824.383 813.08 806.105 841.495 779.142C850.078 770.998 858.308 762.349 864.702 752.35Z" fill="#F9EBD8"/>
<path d="M675.818 453.376C676.69 453.211 676.23 453.192 677.188 453.534C677.123 453.697 677.075 453.868 676.994 454.024C675.516 456.86 670.959 460.017 668.471 462.182C653.451 475.248 637.46 488.137 618.847 495.663C613.328 497.896 592.588 504.424 587.187 501.053C585.696 500.122 585.507 498.744 584.925 497.192C582.928 491.216 580.881 485.257 578.783 479.315C596.902 476.699 613.496 472.561 630.677 466.144C636.001 464.156 640.795 460.837 646.217 459.103C653.95 456.629 667.237 455.081 675.818 453.376Z" fill="#909D7A"/>
<path d="M829.837 650.927C831.512 652.402 832.363 657.086 833.031 659.238C825.956 663.599 818.053 667.098 810.587 670.766C768.777 691.306 723.682 705.577 676.855 707.077C670.872 707.27 664.402 707.763 658.45 707.137C656.928 706.978 656.848 706.97 655.933 705.828C654.204 701.645 652.807 697.318 651.336 693.037C655.618 693.712 659.921 694.216 664.243 694.548C702.921 697.334 800.608 676.433 829.837 650.927Z" fill="#F9EBD8"/>
<path d="M324.528 552.676C332.498 553.219 340.535 554.636 348.491 555.52C359.935 556.79 371.426 557.664 382.852 559.084C387.24 562.888 390.873 567.756 394.962 571.908C401.966 579.022 409.497 585.73 417.053 592.253L410.627 593.482C401.485 595.956 391.789 598.773 382.414 600.067C364.607 588.29 338.746 568.311 324.528 552.676Z" fill="#BAC7A8"/>
<path d="M270.578 785.101C276.539 787.23 289.517 796.967 296.803 800.894C313.702 810.006 331.122 818.363 349.79 823.145C357.213 825.048 364.807 825.97 372.239 827.776C369.314 829.322 366.322 830.386 363.198 831.459C361.079 832.218 358.942 832.918 356.784 833.558C354.627 834.198 352.454 834.777 350.264 835.295C348.073 835.814 345.871 836.271 343.655 836.666C341.44 837.061 339.216 837.394 336.982 837.664C334.748 837.935 332.508 838.143 330.262 838.289C328.017 838.434 325.769 838.517 323.518 838.537C321.269 838.556 319.02 838.513 316.772 838.407C314.524 838.301 312.281 838.132 310.042 837.9C305.941 837.471 301.324 837.039 297.551 835.259C289.428 831.427 273.872 794.459 270.578 785.101Z" fill="#F9EBD8"/>
<path d="M855.339 724.736C856.586 727.515 857.613 730.393 858.691 733.242C857.261 735.361 855.797 737.456 854.299 739.527C814.541 793.847 758.972 810.982 695.293 820.973C693.842 817.339 692.568 813.674 691.336 809.962C706.557 810.055 723.068 806.448 737.671 802.263C776.56 791.119 814.538 770.609 842.232 740.77C846.782 735.867 852.085 730.591 855.339 724.736Z" fill="#F9EBD8"/>
<path d="M837.65 672.719C839.814 675.026 840.623 680.353 841.474 683.451C840.719 684.353 839.938 685.17 839.079 685.973C815.395 708.066 787.602 724.411 758.453 738.07C745.743 744.025 732.693 749.658 719.1 753.28C715.498 754.255 711.866 755.097 708.202 755.805C704.539 756.514 700.855 757.088 697.149 757.526C693.443 757.965 689.726 758.267 685.999 758.433C682.272 758.599 678.543 758.628 674.813 758.522L670.043 745.091C678.92 744.364 687.757 744.205 696.608 743.037C703.527 742.1 710.4 740.899 717.228 739.434C724.055 737.971 730.817 736.248 737.512 734.267C778.549 722.474 808.506 703.834 837.65 672.719Z" fill="#F9EBD8"/>
<path d="M842.349 686.728C843.473 687.426 843.668 689.202 844.076 690.457C839.919 694.693 836.103 699.273 831.978 703.544C824.566 711.216 816.567 718.489 808.44 725.393C806.639 726.949 804.811 728.473 802.957 729.964C801.103 731.455 799.222 732.913 797.316 734.337C795.411 735.762 793.481 737.154 791.526 738.511C789.571 739.868 787.593 741.19 785.591 742.477C783.591 743.764 781.568 745.016 779.522 746.232C777.476 747.448 775.41 748.627 773.324 749.771C771.236 750.914 769.13 752.02 767.004 753.089C764.878 754.158 762.734 755.189 760.572 756.183C758.409 757.176 756.23 758.131 754.034 759.048C751.838 759.965 749.627 760.843 747.4 761.681C745.174 762.52 742.933 763.319 740.678 764.079C738.422 764.839 736.155 765.558 733.874 766.238C731.594 766.918 729.302 767.558 726.999 768.158C724.696 768.757 722.384 769.315 720.061 769.833C717.739 770.351 715.408 770.827 713.069 771.263C710.729 771.698 708.383 772.093 706.029 772.446C697.436 773.669 688.518 774.673 679.853 773.964L676.016 762.097C679.021 762.155 682.026 762.149 685.03 762.08C733.559 760.916 809.244 721.368 842.349 686.728Z" fill="#F9EBD8"/>
<path d="M210.998 679.157C212.542 680.528 213.584 682.457 214.269 684.389C216.349 690.261 216.943 697.014 217.932 703.157C219.081 710.292 220.429 717.228 222.101 724.26C229.546 755.565 239.383 787.125 256.443 814.669L252.757 812.786C239.156 805.257 228.221 797.116 220.391 783.464C201.748 750.96 201.336 714.555 210.998 679.157Z" fill="#F9EBD8"/>
<path d="M844.949 694.635C847.031 696.665 848.241 703.195 849.15 706.162C848.099 707.309 847.039 708.448 845.972 709.58C840.188 715.809 834.139 721.769 827.825 727.46C821.511 733.151 814.957 738.551 808.162 743.659C775.868 767.481 726.455 790.304 685.818 791.482L681.139 777.745C730.015 776.415 772.202 760.369 809.667 728.782C822.284 718.146 833.512 706.488 844.949 694.635Z" fill="#F9EBD8"/>
<path d="M564.072 434.221C575.988 434.264 587.947 436.088 599.914 436.215C608.886 436.259 617.847 435.949 626.796 435.285C635.744 434.621 644.653 433.605 653.521 432.236C660.804 431.078 667.994 429.422 675.253 428.129C679.365 433.462 683.375 439.501 687.996 444.374C681.57 445.828 675.241 448.236 668.756 449.746C640.12 456.415 609.896 459.06 581.118 451.241C576.213 449.909 571.465 447.681 566.692 445.917C565.614 442.051 564.831 438.161 564.072 434.221Z" fill="#909D7A"/>
<path d="M859.899 737.997C861.033 739.168 862.727 744.147 863.781 746.062C859.459 754.267 853.64 761.339 847.327 768.082C815.295 802.298 773.291 825.508 726.701 832.014C718.121 833.213 709.561 833.514 700.913 833.801C699.214 830.789 697.763 827.766 696.393 824.59C708.264 821.622 720.629 820.31 732.59 817.458C786.426 804.622 826.959 783.659 859.899 737.997Z" fill="#F9EBD8"/>
<path d="M687.306 661.397C697.937 661.383 708.314 660.853 718.816 659.143C750.249 654.03 795.575 637.896 819.343 616.426C820.999 620.642 822.222 624.886 823.418 629.248C816.71 636.592 807.996 641.918 799.348 646.691C765.36 665.448 724.307 676.314 685.598 678.081C680.213 678.311 674.827 678.385 669.439 678.305C675.78 672.957 681.661 667.48 687.306 661.397Z" fill="#F9EBD8"/>
<path d="M467.77 254.408C477.44 257.879 488.075 261.164 496.977 266.376C510.988 274.582 526.167 289.468 538.148 300.602C543.01 305.122 548.397 309.603 552.754 314.601C556.298 318.665 559.229 323.387 561.503 328.268C569.774 346.01 568.134 363.513 563.312 381.901C560.106 369.389 557.17 356.826 551.981 344.943C540.175 317.913 516.297 297.205 491.405 282.473C482.306 277.087 472.869 272.492 463.249 268.12C464.142 263.341 466.307 259.024 467.77 254.408Z" fill="#909D7A"/>
<path d="M236.976 577.59C245.504 579.102 254.417 578.864 262.856 580.904C270.446 590.992 281.919 599.575 291.517 607.692C294.04 609.826 298.027 612.33 299.921 614.904C296.764 615.228 292.864 615.02 290.664 617.633L290.693 618.622C291.927 619.776 293.546 620.284 295.23 620.265C297.468 620.241 299.895 619.694 302.098 619.282C307.202 623.396 312.459 627.304 317.871 631.005C315.323 631.01 312.741 630.921 310.2 631.097C291.919 631.307 264.308 628.109 247.795 620.415C240.649 617.085 234.775 612.704 228.864 607.564C231.368 597.742 233.266 587.004 236.976 577.59Z" fill="#F9EBD8"/>
<path d="M830.588 674.361L830.884 674.566L830.696 675.307L830.183 675.602L830.618 675.07C827.649 682.415 799.439 702.463 791.522 707.321C759.86 726.75 722.167 737.514 685.308 740.671C681.017 741.038 673.396 742.783 669.476 741.225C667.924 740.609 667.781 739.437 667.173 738.028C665.677 733.979 664.263 729.902 662.932 725.796C691.312 726.433 720.999 717.706 747.877 709.548C760.41 705.744 772.91 701.936 785.073 697.048C800.556 690.826 816.429 683.179 830.588 674.361Z" fill="#F9EBD8"/>
<path d="M850.063 710.037C852.327 712.185 853.038 718.215 853.704 721.317C849.089 728.211 843.874 734.334 838.148 740.317C803.696 776.317 740.786 805.762 690.714 806.891C688.843 803.177 687.913 799.044 686.843 795.046C693.357 794.625 699.834 793.881 706.275 792.813C712.715 791.746 719.086 790.361 725.388 788.657C757.292 779.833 794.196 760.034 819.826 739.076C830.631 730.24 840.461 720.138 850.063 710.037Z" fill="#F9EBD8"/>
<path d="M766.009 269.581C769.313 278.002 770.205 285.781 766.443 294.318C752.811 325.254 692.114 356.472 660.995 368.284C651.189 371.981 641.217 375.154 631.078 377.803C626.737 373.747 622.706 369.121 619.012 364.474C664.511 351.028 737.639 324.931 761.695 280.594C763.617 277.053 765.029 273.495 766.009 269.581Z" fill="#E1E9CB"/>
<path d="M219.765 689.155C222.946 691.439 225.868 694.345 228.999 696.767C234.526 701.042 240.325 704.696 246.302 708.288C251.517 742.021 260.45 775.694 274.696 806.788C278.488 815.064 283.529 822.739 287.368 831.001C280.775 828.516 273.547 825.611 267.791 821.482C252.881 810.785 233.521 751.715 228.781 733.624C224.955 719.021 222.143 704.059 219.765 689.155Z" fill="#F9EBD8"/>
<path d="M597.264 534.865C605.849 534.07 614.284 532.942 622.556 530.414C653.707 520.889 685.254 495.677 706.489 471.259L711.913 480.564C709.268 485.047 705.646 489.347 702.472 493.482C699.93 496.781 697.312 500.018 694.617 503.194C691.922 506.369 689.155 509.479 686.314 512.524C683.472 515.569 680.561 518.545 677.579 521.453C674.597 524.36 671.548 527.196 668.433 529.96C665.317 532.724 662.138 535.412 658.895 538.026C655.653 540.64 652.351 543.176 648.989 545.633C645.627 548.091 642.209 550.468 638.734 552.765C635.26 555.062 631.733 557.275 628.155 559.405C622.046 562.967 615.811 566.678 608.936 568.503C604.217 557.835 601.118 545.907 597.264 534.865Z" fill="#909D7A"/>
<path d="M392.042 371.113C405.541 376.947 430.686 382.112 445.334 384.891C451.542 386.069 458.728 386.264 464.652 388.407C468.222 389.698 471.176 392.294 474.111 394.621C475.912 398.423 478.19 401.975 480.159 405.691C484.68 414.227 489.079 422.598 494.256 430.759C496.241 433.888 509.156 452.769 509.361 454.412C463.517 438.41 423.861 407.176 392.042 371.113Z" fill="#BAC7A8"/>
<path d="M714.916 483.951C717.728 489.157 721.968 499 725.857 503.095C702.259 538.568 658.159 578.347 616.921 590.962C614.192 585.209 612.454 579.129 610.708 573.028C652.019 556.106 688.483 518.938 714.916 483.951Z" fill="#909D7A"/>
<path d="M630.967 207.895C636.141 207.703 644.823 207.328 649.119 210.565C650.118 211.318 650.896 212.453 650.925 213.745C650.979 216.244 649.079 219.29 647.562 221.151C635.698 235.705 595.836 249.823 577.179 254.171C569.761 255.901 562.316 256.74 554.749 257.41C550.444 257.514 539.631 258.534 535.999 255.81C535.079 255.12 534.51 254.393 534.538 253.185C534.588 251.062 536.48 248.918 537.784 247.396C558.124 223.649 600.482 210.123 630.967 207.895Z" fill="#E1E9CB"/>
<path d="M726.988 508.474C730.313 516.127 733.237 524.126 736.86 531.626C736.812 531.703 736.772 531.785 736.717 531.856C713.489 562.99 663.728 607.14 624.953 615.744C622.194 608.968 620.251 601.623 617.902 594.671C626.947 592.26 635.521 588 643.733 583.566C645.798 582.43 647.846 581.265 649.878 580.07C651.91 578.876 653.924 577.652 655.92 576.399C657.916 575.146 659.894 573.864 661.853 572.554C663.812 571.244 665.752 569.906 667.673 568.54C669.593 567.174 671.494 565.78 673.373 564.359C675.254 562.938 677.114 561.49 678.952 560.015C680.79 558.54 682.607 557.039 684.402 555.512C686.197 553.984 687.97 552.431 689.719 550.853C691.47 549.274 693.197 547.671 694.9 546.043C696.604 544.414 698.284 542.761 699.94 541.084C701.596 539.407 703.228 537.707 704.835 535.982C706.442 534.258 708.024 532.512 709.58 530.742C711.136 528.972 712.667 527.18 714.172 525.366C715.676 523.552 717.155 521.716 718.606 519.859C720.058 518.003 721.482 516.125 722.879 514.228C724.277 512.33 725.646 510.412 726.988 508.474Z" fill="#909D7A"/>
<path d="M588.317 506.189C618.79 506.309 648.414 486.06 670.231 466.033C676.912 459.901 682.849 452.044 691.167 448.159C694.94 454.201 699.581 461.814 704.573 466.85C700.601 472.312 696.224 477.428 691.444 482.199C673.692 499.754 646.534 518.7 622.65 526.097C613.91 528.804 605.261 529.965 596.125 529.915C593.22 522.133 590.858 514.098 588.317 506.189Z" fill="#909D7A"/>
<path d="M248.335 537.819C270.626 545.202 294.609 548.129 317.704 551.973C332.442 567.284 349.186 580.341 365.676 593.64C354.005 592.598 342.256 591.698 330.688 589.795C318.848 587.849 307.133 584.94 295.385 582.499C282.427 579.805 269.44 577.577 256.374 575.5C257.186 575.306 257.818 575.351 258.384 574.713C252.925 570.255 246.906 566.427 240.87 562.807C243.403 554.495 245.717 546.101 248.335 537.819Z" fill="#BAC7A8"/>
<path d="M227.507 612.887C234.004 617.56 240.518 621.786 247.77 625.206C247.867 625.404 247.962 625.602 248.061 625.798C250.767 631.101 255.433 636.235 259.194 640.867C275.081 660.433 299.238 687.523 319.922 701.766C330.684 709.177 342.437 714.462 354.758 718.664L346.117 718.856C338.386 719.237 322.631 719.539 315.381 718.1C309.602 716.954 304.032 712.949 298.816 710.246C267.519 694.021 239.828 671.866 219.871 642.609C222.365 632.689 224.91 622.781 227.507 612.887Z" fill="#F9EBD8"/>
<path d="M259.9 751.217C264.926 752.06 281.527 761.747 287.59 764.597C328.338 783.75 369.706 800.115 415.652 796.489C412.214 802.017 407.851 806.125 402.876 810.259C396.751 814.84 388.604 821.354 380.988 823.062C376.406 824.09 370.688 822.765 366.103 822.133C329.94 817.155 298.004 797.026 267.742 777.91C264.95 769.064 262.336 760.167 259.9 751.217Z" fill="#F9EBD8"/>
<path d="M256.088 734.246C259.741 735.265 263.374 737.079 266.877 738.533C273.137 741.132 279.391 743.605 285.857 745.645C324.543 757.854 357.256 764.195 397.933 761.238C411.102 760.28 424.08 758.616 436.929 755.531C433.634 762.581 429.744 769.43 426.073 776.293C423.445 781.678 420.493 786.951 417.696 792.252C371.301 796.998 328.822 778.804 287.703 759.874C278.358 755.572 269.17 749.316 259.483 746.006C259.279 745.937 259.074 745.873 258.87 745.807C257.769 741.964 256.723 738.195 256.088 734.246Z" fill="#F9EBD8"/>
<path d="M923.69 782.284C923.722 782.315 923.756 782.343 923.784 782.377C926.223 785.327 925.903 794.383 925.507 798.088C923.756 814.454 911.228 827.769 898.974 837.579C863.976 865.595 820.44 880.342 777.302 890.047C759.045 894.154 740.392 898 721.593 895.834C704.529 893.869 677.226 888.543 666.199 874.744C663.68 870.706 661.856 866.294 660.056 861.905C666.564 867.217 673.35 871.365 681.311 874.133C732.207 891.825 801.992 874.184 848.754 851.509C880.319 836.203 911.619 817.206 923.69 782.284Z" fill="#F9EBD8"/>
<path d="M250.638 710.442C283.124 723.371 318.594 722.058 352.912 724.939L448.18 733.565C445.801 739.069 443.371 744.707 440.252 749.834C438.99 750.606 437.676 751.027 436.254 751.413C425.699 754.285 413.812 755.632 402.904 756.595C362.229 760.187 332.227 754.828 293.361 743.005C280.385 739.059 266.648 735.016 254.812 728.294C253.122 722.462 251.979 716.37 250.638 710.442Z" fill="#F9EBD8"/>
<path d="M283.362 411.616C285.715 415.658 287.195 420.8 288.921 425.169C292.414 434.01 295.944 442.803 300.258 451.284C303.899 458.46 307.774 465.506 311.884 472.424C315.994 479.341 320.329 486.114 324.889 492.744C329.449 499.372 334.224 505.843 339.215 512.155C344.205 518.467 349.4 524.606 354.799 530.571C362.078 538.624 370.017 546.123 377.511 553.988L361.204 552.442C351.129 551.794 328.06 550.36 319.204 546.497C314.399 544.4 309.681 538.354 306.113 534.584C288.248 515.704 275.564 499.97 266.55 475.128C268.236 466.63 271.031 458.23 273.112 449.805C276.24 437.141 278.604 423.791 283.362 411.616Z" fill="#BAC7A8"/>
<path d="M303.968 358.927C305.297 363.912 305.493 369.866 306.417 375.043C308.371 386.014 311.174 396.475 314.743 407.031C331.734 457.285 349.822 483.699 387.546 520.29C403.71 535.967 421.562 550.768 441.854 560.806C436.136 559.85 430.339 559.191 424.59 558.422C411.287 557.228 398.006 555.769 384.69 554.752C379.298 550.109 374.37 544.565 369.397 539.458C341.762 511.076 317.676 478.887 300.888 442.845C295.047 430.306 290.982 417.433 286.034 404.586C290.581 388.738 297.129 373.895 303.968 358.927Z" fill="#BAC7A8"/>
<path d="M334.787 311.427C337.756 309.3 340.689 307.125 343.585 304.9C344.448 307.014 345.323 309.123 346.209 311.227C352.525 326.194 362.474 340.035 372.259 352.918C402.508 392.74 435.59 423.809 480.378 446.945C489.645 451.733 499.151 455.624 508.983 459.079C514.407 460.984 520.036 462.537 525.35 464.717L525.766 464.89C528.082 467.916 535.464 473.455 538.767 475.786C536.313 484.487 533.869 493.264 530.568 501.688C522.649 499.751 514.888 496.816 507.495 493.409C483.633 482.412 461.976 467.482 441.299 451.411C388.737 410.558 357.971 374.435 334.787 311.427Z" fill="#BAC7A8"/>
<path d="M326.547 635.806C337.22 635.945 347.883 635.68 358.535 635.009C369.187 634.338 379.799 633.264 390.369 631.787C400.505 630.336 410.658 627.714 420.784 626.57C428.369 629.991 435.612 634.126 443.114 637.727C455.203 643.488 467.615 648.44 480.349 652.583C475.819 664.974 470.461 677.218 466.694 689.863C458.12 692.735 449.929 696.92 441.507 700.233C399.516 685.299 360.297 665.256 326.547 635.806Z" fill="#BAC7A8"/>
<path d="M253.942 627.493C276.512 635.075 302.911 635.865 326.548 635.806C360.297 665.256 399.516 685.299 441.507 700.233C415.778 710.404 387.521 713.869 360.261 717.609C349.686 711.772 338.213 707.937 327.826 701.56C301.141 685.178 273.574 651.802 253.942 627.493Z" fill="#F9EBD8"/>
<path d="M311.809 339.916C314.926 345.785 316.162 353.455 318.336 359.789C323.109 373.698 328.844 387.735 335.742 400.729C343.059 414.511 352.162 426.768 361.901 438.907C393.502 478.299 431.616 510.742 474.426 537.349C482.781 542.444 491.394 547.058 500.265 551.19C504.2 553.014 509.013 553.852 512.51 556.37C512.801 556.98 513.202 557.317 512.906 557.992C512.01 560.035 508.276 561.065 506.331 561.865L505.474 562.231C488.285 569.406 465.945 566.649 449.155 559.528C433.976 553.09 419.536 542.207 406.925 531.693C371.583 502.223 342.915 467.761 325.741 424.757C319.089 408.103 306.434 368.711 308.153 351.417C308.569 347.225 310.164 343.741 311.809 339.916Z" fill="#BAC7A8"/>
<path d="M168.467 495.954C189.081 517.877 211.963 543.915 237.024 560.761C229.694 584.937 223.607 609.709 217.444 634.211C213.924 648.207 209.975 662.134 206.803 676.212C204.313 687.264 202.947 698.542 200.452 709.573C189.312 694.193 181.805 675.077 175.947 657.045C169.448 637.041 163.955 617.01 162.146 595.988C160.479 576.611 162.773 557.16 164.662 537.885L168.467 495.954Z" fill="#F9EBD8"/>
<path d="M667.401 241.747C689.4 237.315 732.314 235.985 751.031 248.547C755.832 251.77 759.947 256.442 760.961 262.294C762.471 271.015 756.676 280.446 751.71 287.158C724.252 324.276 658.103 347.482 615.236 360.488C611.322 356.564 583.666 329.374 582.468 327.092L583.093 326.224C608.502 325.911 651.348 310.813 669.183 292.768C674.32 287.57 679.098 280.525 678.876 272.934C678.622 264.251 670.853 250.149 667.401 241.747Z" fill="#E1E9CB"/>
<path d="M867.716 741.344C881.304 742.645 895.547 745.28 907.071 753.027C913.219 757.161 918.319 763.081 919.647 770.573C921.432 780.638 915.291 791.456 909.855 799.512C884.078 837.716 814.269 863.651 770.545 872.187C739.231 878.301 693.817 879.367 666.608 861.082C665.84 860.402 665.091 859.703 664.361 858.984C659.741 854.463 656.365 848.326 656.471 841.721C656.715 826.398 672.075 810.487 682.288 800.22C689.043 815.257 689.999 835.092 705.745 844.02C727.308 856.249 764.574 851.842 787.79 845.398C816.533 837.419 854.661 820.034 869.669 793.077C879.056 776.216 872.566 758.52 867.716 741.344Z" fill="#F9EBD8"/>
<path d="M326.451 300.187C328.611 302.319 333.564 320.368 335.424 325.053C340.069 336.759 345.238 348.061 351.332 359.081C374.264 400.547 407.695 431.572 445.171 459.768C465.258 474.88 487 490.284 510.463 499.728C516.626 502.209 522.967 503.957 529.339 505.795C524.74 520.93 520.583 536.138 515.727 551.212L515.123 551.968C512.157 552.616 498.071 545.218 494.893 543.597C481.205 536.613 468.356 528.404 455.724 519.676C451.819 517.03 447.962 514.317 444.151 511.537C440.34 508.757 436.579 505.911 432.868 503.001C429.156 500.09 425.496 497.116 421.888 494.078C418.279 491.04 414.724 487.941 411.224 484.78C407.723 481.618 404.278 478.397 400.889 475.117C397.5 471.836 394.169 468.497 390.896 465.1C387.623 461.704 384.41 458.252 381.256 454.744C378.103 451.236 375.012 447.674 371.982 444.059C360.668 430.827 350.046 417.345 341.551 402.099C329.427 380.342 321.919 357.204 314.261 333.629C317.301 322.254 321.748 310.974 326.451 300.187Z" fill="#BAC7A8"/>
<path d="M557.285 426.228C560.74 441.008 565.905 455.171 570.811 469.514L587.022 517.64C606.441 577.029 626.365 636.249 646.795 695.299C635.457 700.211 624.002 704.034 612.271 707.874C571.583 721.189 540.046 725.504 497.76 716.246C486.887 713.866 475.735 710.93 465.3 707.022C465.15 706.966 465.003 706.901 464.853 706.84C469.474 694.943 473.426 682.832 477.973 670.923C488.514 643.314 499.381 616.008 508.855 587.991C517.307 562.99 524.401 537.692 532.344 512.551C538.1 494.451 543.697 476.303 549.137 458.106C552.195 447.646 555.654 437.026 557.285 426.228Z" fill="#BAC7A8"/>
<path d="M464.853 706.84C465.003 706.901 465.15 706.966 465.3 707.022C475.735 710.93 486.887 713.866 497.76 716.246C540.046 725.504 571.583 721.189 612.271 707.874C624.002 704.034 635.457 700.211 646.795 695.299C650.993 707.23 655.406 719.1 659.524 731.056C662.042 738.366 664.178 745.991 667.04 753.159C660.95 756.567 654.842 759.949 649.288 764.201C639.276 771.866 630.763 781.275 622.143 790.419C613.325 799.773 604.466 809.026 594.922 817.651C591.363 820.923 587.729 824.111 584.022 827.215C580.314 830.318 576.537 833.334 572.688 836.262C568.84 839.189 564.926 842.026 560.946 844.771C556.966 847.517 552.924 850.168 548.821 852.724C544.717 855.282 540.556 857.742 536.338 860.105C532.12 862.469 527.849 864.733 523.525 866.898C519.201 869.062 514.83 871.124 510.41 873.085C505.991 875.046 501.528 876.903 497.022 878.657C483.044 884.055 467.719 888.806 452.643 888.845C446.609 888.861 440.664 887.767 434.872 886.138C414.218 880.334 394.015 870.815 383.128 851.43C382.269 849.869 381.468 848.279 380.725 846.659C379.982 845.039 379.299 843.395 378.675 841.725C378.052 840.056 377.489 838.366 376.988 836.656C376.487 834.946 376.049 833.22 375.673 831.479C382.012 828.841 388.024 824.214 394.57 822.396C398.911 821.191 403.803 821.384 408.275 820.58C411.515 820.024 414.733 819.36 417.929 818.589C421.125 817.818 424.291 816.942 427.429 815.959C430.566 814.977 433.667 813.891 436.731 812.701C439.797 811.512 442.819 810.222 445.797 808.83C467.283 798.819 484.67 782.038 506.611 772.749C541.969 757.779 584.853 760.919 612.905 730.814C617.961 725.388 622.799 718.889 625.58 711.961C626.294 710.181 626.856 708.339 627.448 706.517C627.3 706.67 627.151 706.822 627.005 706.978C623.374 710.872 620.55 715.544 617.388 719.823C610.79 728.753 601.52 736.419 591.925 741.926C566.58 756.47 536.214 756.529 509.243 767.042C489.07 774.905 473.146 788.06 454.924 799.191C438.694 809.106 419.472 815.377 400.573 817.657C405.623 813.599 410.914 809.646 414.924 804.5C422.358 794.965 427.604 783.249 433.203 772.563C444.517 750.968 455.694 729.474 464.853 706.84Z" fill="#F9EBD8"/>
<path d="M164.094 492.973C164.022 492.351 164.089 491.699 163.878 491.109C163.009 488.667 151.51 477.04 149.054 474.394C128.921 452.705 109.706 430.511 93.0682 405.982C87.4147 397.647 81.876 389.455 77.4748 380.358C71.146 367.276 66.8549 353.116 65.9473 338.572C64.6753 318.186 69.2092 302.022 76.1809 283.24C91.8171 241.118 116.122 206.292 145.811 172.901C150.978 167.09 156.712 161.86 162.527 156.712C186.763 135.25 213.838 120.878 246.75 118.927C324.528 114.316 401.605 170.669 457.716 218.37C464.16 223.847 470.802 229.104 477.12 234.726L477.168 234.902C473.059 239.154 472.114 245.457 469.245 250.438C438.813 240.618 408.619 239.7 377.443 246.484C370.979 247.891 364.009 249.062 358.079 252.101C327.771 267.632 315.244 319.603 303.441 349.075C295.157 369.764 286.02 388.055 279.277 409.537C270.076 438.845 263.956 469.265 255.492 498.836C251.094 514.204 246.132 529.418 241.628 544.759C240.147 549.798 237.751 555.605 237.024 560.761C211.963 543.915 189.081 517.877 168.467 495.954C170.239 477.109 171.337 458.224 171.762 439.3C172.188 420.376 171.939 401.461 171.014 382.555C170.254 363.85 169.405 344.544 165.378 326.215C164.631 322.818 163.433 317.39 160.066 315.704C158.763 315.052 157.392 315.21 156.119 315.826C139.68 323.778 134.35 370.398 128.878 388.072C124.99 400.625 119.343 412.391 115.162 424.78C115.687 425.708 116.22 425.915 117.315 426.078C120.001 426.479 121.448 421.495 122.281 419.473C126.184 409.99 130.058 400.44 132.894 390.575C137.352 375.066 144.379 330.109 156.061 321.219C157.021 320.488 157.557 320.351 158.723 320.52C162.358 325.716 163.042 338.333 163.744 344.802C165.725 364.371 166.917 383.988 167.321 403.653C167.725 423.318 167.339 442.968 166.163 462.602C165.608 472.667 165.379 482.977 164.094 492.973Z" fill="#BAC7A8"/>
</g>
<defs>
<clipPath id="clip0_157_872">
<rect width="1020" height="1020" fill="white"/>
</clipPath>
</defs>
</svg>
