<svg width="1280" height="191" viewBox="0 0 1280 191" fill="none" xmlns="http://www.w3.org/2000/svg">
<path d="M1 49C1 49 79.329 1 153.535 1C227.742 1 231.865 49 306.071 49C380.277 49 403.639 1 487.465 1C571.29 1 560.297 49 638.626 49C716.955 49 727.948 1 817.271 1C906.594 1 887.355 49 954.69 49C1022.03 49 1026.15 1 1115.47 1C1204.79 1 1279 49 1279 49" stroke="black"/>
<path d="M0 190C0 190 78.329 142 152.535 142C226.742 142 230.865 190 305.071 190C379.277 190 402.639 142 486.465 142C570.29 142 559.297 190 637.626 190C715.955 190 726.948 142 816.271 142C905.594 142 886.355 190 953.69 190C1021.03 190 1025.15 142 1114.47 142C1203.79 142 1278 190 1278 190" stroke="black"/>
<path d="M2 166C2 166 80.329 119 154.535 119C228.742 119 232.865 166 307.071 166C381.277 166 404.639 119 488.465 119C572.29 119 561.297 166 639.626 166C717.955 166 728.948 119 818.271 119C907.594 119 888.355 166 955.69 166C1023.03 166 1027.15 119 1116.47 119C1205.79 119 1280 166 1280 166" stroke="black"/>
<path d="M0 143C0 143 78.329 96 152.535 96C226.742 96 230.865 143 305.071 143C379.277 143 402.639 96 486.465 96C570.29 96 559.297 143 637.626 143C715.955 143 726.948 96 816.271 96C905.594 96 886.355 143 953.69 143C1021.03 143 1025.15 96 1114.47 96C1203.79 96 1278 143 1278 143" stroke="black"/>
<path d="M0 73C0 73 78.329 26 152.535 26C226.742 26 230.865 73 305.071 73C379.277 73 402.639 26 486.465 26C570.29 26 559.297 73 637.626 73C715.955 73 726.948 26 816.271 26C905.594 26 886.355 73 953.69 73C1021.03 73 1025.15 26 1114.47 26C1203.79 26 1278 73 1278 73" stroke="black"/>
<path d="M0 96C0 96 78.329 49 152.535 49C226.742 49 230.865 96 305.071 96C379.277 96 402.639 49 486.465 49C570.29 49 559.297 96 637.626 96C715.955 96 726.948 49 816.271 49C905.594 49 886.355 96 953.69 96C1021.03 96 1025.15 49 1114.47 49C1203.79 49 1278 96 1278 96" stroke="black"/>
<path d="M2 120C2 120 80.329 73 154.535 73C228.742 73 232.865 120 307.071 120C381.277 120 404.639 73 488.465 73C572.29 73 561.297 120 639.626 120C717.955 120 728.948 73 818.271 73C907.594 73 888.355 120 955.69 120C1023.03 120 1027.15 73 1116.47 73C1205.79 73 1280 120 1280 120" stroke="black"/>
</svg>
