<?xml version="1.0" encoding="utf-8" ?>
<svg xmlns="http://www.w3.org/2000/svg" xmlns:xlink="http://www.w3.org/1999/xlink" width="1488" height="662">
	<path fill="#FAFBFC" transform="scale(4.01078 4.01212)" d="M0 0L370.562 0C370.784 0.340506 370.922 0.665472 370.955 1.07264C371.269 4.93218 371 9.03855 371 12.9203L371.004 36.7232L371.003 131.58L371 155.208C370.999 157.619 371.398 162.059 370.913 164.236C370.851 164.514 370.716 164.764 370.562 165L0 165L0 0Z"/>
	<path transform="scale(4.01078 4.01212)" d="M265.372 132.125C277.341 131.953 287.417 140.025 297.196 145.809C313.071 155.199 327.32 152.574 342.852 143.702C345.649 142.105 348.663 138.869 351.744 138.079C352.337 138.214 352.798 138.294 353.176 138.836C353.509 139.313 353.462 139.707 353.337 140.227C349.907 144.001 341.421 148.365 336.673 150.445C321.916 156.906 308.681 156.672 294.878 148.262C288.7 144.499 282.692 140.165 275.921 137.524C272.807 136.308 269.515 135.412 266.152 135.384C254.466 135.287 238.979 144.106 228.154 148.839C219.397 152.669 207.158 157.908 197.503 154.514C192.467 152.744 187.683 149.483 183.048 146.831C178.791 144.395 174.489 142.037 169.911 140.251C165.591 138.564 161.148 137.53 156.552 136.938C137.76 134.521 126.435 145.563 110.434 152.562C102.609 155.717 93.2116 156.026 85.3133 152.923C81.0507 151.248 76.9904 148.779 72.934 146.643C62.7256 141.266 51.1467 135.747 39.309 136.4C34.7117 136.653 29.6865 137.957 25.7334 140.362C23.9382 141.455 21.851 143.39 19.7991 143.814C19.1202 143.954 18.8519 143.907 18.292 143.559C18.2501 143.435 18.2233 143.322 18.2087 143.191C18.119 142.386 18.7898 141.442 19.2998 140.86C20.8848 139.052 23.308 137.879 25.4226 136.801C41.3494 128.682 59.1082 135.662 73.7243 143.332C78.7423 145.965 83.9334 149.398 89.4427 150.86Q90.7004 151.181 91.9803 151.398Q93.2601 151.616 94.5535 151.727Q95.8468 151.838 97.1449 151.844Q98.443 151.849 99.7372 151.747Q101.031 151.646 102.313 151.439Q103.594 151.232 104.855 150.92Q106.115 150.609 107.345 150.195Q108.576 149.781 109.768 149.268C120.178 144.889 129.175 137.697 140.219 134.706C146.037 133.131 151.657 133.025 157.605 133.823C163.669 134.636 169.409 136.232 174.969 138.801C179.901 141.08 184.597 143.923 189.304 146.626C192.53 148.48 195.874 150.633 199.468 151.693C201.638 152.332 203.925 152.474 206.171 152.264C225.714 150.438 244.977 133.312 265.372 132.125Z"/>
	<path transform="scale(4.01078 4.01212)" d="M263.22 106.375C286.359 104.872 296.528 128.783 321.406 125.551C328.595 124.617 336.1 121.87 342.307 118.138C344.88 116.591 349.105 112.814 351.851 112.258C352.602 112.472 352.729 112.573 353.273 113.139C353.355 113.502 353.49 113.807 353.362 114.169C352.584 116.37 341.158 122.548 338.375 123.806C327.357 128.788 315.057 131.241 303.404 126.763C299.619 125.308 296.139 123.193 292.701 121.069C287.086 117.601 281.594 113.809 275.377 111.476C272.451 110.378 269.331 109.544 266.191 109.506C255.505 109.374 242.137 116.669 232.4 121.091C222.616 125.535 208.886 132.293 197.98 128.813C193.301 127.32 188.885 124.328 184.643 121.9C179.621 119.025 174.598 116.149 169.162 114.115C165.051 112.577 160.831 111.638 156.481 111.088C138.089 108.76 126.985 119.201 111.311 126.349Q110.657 126.633 109.989 126.883Q109.127 127.21 108.255 127.509Q107.282 127.842 106.286 128.1C92.3859 131.766 85.07 127.096 73.2231 120.919C64.9219 116.592 56.109 112.303 46.7693 110.916C41.1679 110.084 35.4776 110.478 30.137 112.419C26.3213 113.806 23.1489 116.89 20.2296 117.99C19.7003 118.19 19.1664 118.139 18.619 118.052C18.4427 117.894 18.2033 117.76 18.1586 117.518C18.0001 116.662 18.6968 115.727 19.1905 115.08C20.6245 113.201 24.3466 111.316 26.5478 110.385C39.0943 105.079 51.0812 107.418 63.288 112.529Q69.7687 115.279 75.953 118.643C80.1525 120.888 84.4102 123.604 89.0216 124.89C112.486 131.434 126.795 106.884 151.622 107.454Q154.376 107.531 157.11 107.865Q159.844 108.198 162.536 108.784Q165.228 109.37 167.853 110.204Q170.479 111.038 173.015 112.112C178.532 114.474 183.709 117.557 188.906 120.537C192.213 122.433 195.638 124.667 199.302 125.798C201.577 126.501 203.91 126.662 206.271 126.416C224.902 124.48 243.393 109.142 263.22 106.375Z"/>
	<path transform="scale(4.01078 4.01212)" d="M262.062 80.6247C282.804 78.3369 294.801 98.6951 314.362 99.9332C320.62 100.329 326.876 99.0545 332.702 96.82Q339.079 94.335 344.846 90.6498C346.847 89.3573 348.817 87.7642 350.906 86.6422C351.404 86.3751 351.758 86.2753 352.321 86.3461C352.939 86.6808 353.199 86.9665 353.53 87.5852C353.516 87.7965 353.489 88.001 353.416 88.2013C352.475 90.7812 341.478 96.5013 338.703 97.8214C323.995 104.816 309.877 105.517 295.721 97.0724C289.464 93.3404 283.485 88.9311 276.719 86.1465C273.061 84.6407 269.021 83.4954 265.037 83.6744C245.677 84.5439 222.076 105.134 202.471 103.798C194.958 103.286 186.096 96.7884 179.514 93.1405C175.903 91.1399 172.154 89.3152 168.258 87.9373C164.282 86.5309 160.22 85.6809 156.034 85.197C138.421 83.1609 127.528 92.7898 112.642 99.8985C103.561 104.044 93.6526 104.688 84.3394 100.831C80.8305 99.3776 77.4739 97.3344 74.1135 95.5623C64.9313 90.7202 55.0097 85.7448 44.5199 84.7908C38.9673 84.2858 33.5323 85.0553 28.4229 87.3376C25.9715 88.4327 21.4862 91.8373 20.0269 92.2845C19.8436 92.3407 19.4202 92.2755 19.212 92.2724C18.6843 91.899 18.3729 91.6985 18.2307 91.0181C18.145 90.608 18.3034 90.0639 18.5339 89.723C19.4329 88.3934 22.1186 86.9554 23.5284 86.1314Q23.8796 85.9264 24.2355 85.7297Q24.5111 85.5771 24.7896 85.4297Q25.8728 84.8568 26.9933 84.361C42.3956 77.5579 58.7121 83.9052 72.689 91.1077C81.6042 95.7018 88.5513 100.623 99.0287 100.09C105.69 99.7508 111.4 97.0503 117.163 93.9023C129.786 87.0066 140.35 80.3221 155.348 81.8571C161.919 82.5297 168.199 84.0652 174.246 86.753C179.7 89.1769 184.856 92.388 190.032 95.3455C192.764 96.9064 195.542 98.6487 198.523 99.693C200.497 100.385 202.506 100.708 204.599 100.638C218.058 100.189 235.251 89.7893 248.061 84.7037C252.613 82.8962 257.266 81.5986 262.062 80.6247Z"/>
	<path transform="scale(4.01078 4.01212)" d="M263.436 54.6248C283.341 53.3126 295.566 73.1694 314.822 74.1057C321.974 74.4535 328.848 72.7087 335.372 69.8643Q341.043 67.3656 346.215 63.9511C347.743 62.9417 349.216 61.6122 350.816 60.7487C351.314 60.4798 351.703 60.3972 352.261 60.4895C352.648 60.7206 353.084 60.9467 353.29 61.3644C353.478 61.7459 353.488 62.0568 353.34 62.4588C352.48 64.7998 341.381 70.7001 338.927 71.8829C324.21 78.9754 310.119 79.6821 295.862 71.2916C289.567 67.5867 283.617 63.2016 276.847 60.3665C273.148 58.8177 268.994 57.6183 264.955 57.8227C245.576 58.803 221.694 79.4095 202.479 77.9802C194.947 77.4201 185.942 70.8364 179.303 67.1797C175.646 65.1656 171.863 63.3433 167.916 61.969Q164.938 60.9443 161.86 60.2785Q158.781 59.6126 155.646 59.3149C138.198 57.5064 126.92 67.1496 112.15 74.288Q111.468 74.5903 110.777 74.8736C90.404 83.2195 78.8082 70.8308 61.139 63.4375C50.4752 58.9755 38.9617 56.7671 28.0031 61.5703C25.3486 62.7337 23.1253 65.0487 20.4302 66.0868C19.7076 66.3651 19.2757 66.3627 18.6011 66.0587C18.451 65.7937 18.2576 65.4887 18.2069 65.1855C18.1306 64.7292 18.1691 64.3509 18.4502 63.9712C19.3511 62.7542 21.5121 61.4689 22.8503 60.6665C30.5576 56.0452 38.9991 54.7442 47.8253 56.1396C56.3413 57.4859 64.385 61.0511 72.027 64.9145C79.7482 68.818 86.877 73.8702 95.7968 74.2814C117.477 75.2808 129.302 52.795 156.888 56.1649C163.134 56.9279 168.979 58.5433 174.703 61.1602C179.679 63.4346 184.398 66.2548 189.14 68.9705C192.419 70.848 195.816 73.0515 199.463 74.1341C201.68 74.7922 203.979 74.9311 206.272 74.6929C212.969 73.9975 219.403 71.471 225.542 68.8374C237.996 63.4953 249.876 56.7239 263.436 54.6248Z"/>
	<path transform="scale(4.01078 4.01212)" d="M262.56 28.8746C280.16 26.7037 291.744 42.4159 306.852 46.9206C319.13 50.5816 331.94 46.5214 342.65 40.3202C345.363 38.7495 347.791 36.5489 350.527 35.1036C351.06 34.822 351.741 34.4619 352.349 34.7093C352.946 34.9524 353.178 35.3242 353.458 35.8592C353.431 36.0818 353.393 36.2961 353.314 36.5071C352.361 39.0514 341.84 44.6386 339.067 45.9627C324.33 53.0001 310.382 53.941 296.06 45.5531C289.927 41.9614 284.127 37.694 277.595 34.8289C273.658 33.102 269.297 31.8115 264.969 32.0099C245.811 32.8878 221.469 53.5425 202.681 52.1794C195.095 51.629 186.507 45.3242 179.883 41.6449C176.114 39.5511 172.216 37.6294 168.143 36.197Q164.771 35.0215 161.273 34.303Q157.775 33.5845 154.213 33.3355C137.537 32.1656 126.706 41.4518 112.557 48.2409C104.083 52.1341 94.1762 52.9825 85.3828 49.5479C81.2129 47.9192 77.279 45.5332 73.3198 43.4414C64.3751 38.7154 54.6571 33.9872 44.4371 33.1332C40.0082 32.7631 35.4162 33.0803 31.19 34.5218Q28.9341 35.2986 26.8334 36.43C25.3262 37.2414 20.7647 40.6899 19.3371 40.5982C18.7664 40.3206 18.5398 40.0587 18.214 39.5187C18.1492 38.9868 18.2262 38.6195 18.5302 38.1703C20.6958 34.9702 28.7657 31.6804 32.4214 30.7665C47.0943 27.0984 62.2058 33.8026 74.9413 40.5445C81.966 44.2632 87.9952 48.1533 96.1769 48.4296C113.996 49.0312 127.529 32.3324 146.168 30.165C157.884 28.8027 169.682 32.4307 179.909 37.8981C186.793 41.5778 196.998 49.2254 204.658 48.9263C218.652 48.3799 236.164 37.5288 249.41 32.4792Q255.812 30.046 262.56 28.8746Z"/>
</svg>
